<ttFont>
          <CharString index="0">
            91 496 rmoveto
            -328 -7 160 -197 340 hhcurveto
            111 29 108 53 146 83 -34 86 rcurveline
            -139 -52 -150 -35 0 vvcurveto
            -118 -215 41 343 6 hvcurveto
            653 hlineto
            0 5 70 1 38 vhcurveto
            251 5 -103 164 -255 hhcurveto
            -314 -194 -252 -294 -6 hvcurveto
            208 127 rmoveto
            6 204 104 74 31 11 rrcurveto
            161 59 132 -70 -182 vvcurveto
            -35 -14 -38 -22 -3 vhcurveto
            -33 -4 -101 -12 -264 -4 rrcurveto
            return
          </CharString>
          <CharString index="1">
            -91 callsubr
            596 82 vlineto
            -166 55 11 4 -521 1298 -3 -48 -72 187 rlinecurve
            -135 -39 -24 -7 -116 -26 1 -50 rcurveline
            87 -32 -511 -1286 -38 -26 -55 -12 -68 -18 rlinecurve
            511 549 rmoveto
            219 604 9 26 8 20 8 16 rlinecurve
            265 -666 rlineto
            return
          </CharString>
          <CharString index="2">
            -146 55 -16 151 0 73 -4 391 rlinecurve
            514 -27 callsubr
            83 -10 70 30 -7 callsubr
            113 -56 rlineto
            -1046 vlineto
            -118 -134 -135 -55 -180 hhcurveto
            -236 -55 117 282 hvcurveto
            253 vlineto
            493 -3 109 28 105 vhcurveto
            -391 -84 hlineto
            151 -56 rlineto
            return
          </CharString>
          <CharString index="3">
            90 476 rmoveto
            -338 219 -160 277 279 228 228 354 328 -176 154 -302 -277 -248 -220 -346 vhcurveto
            234 49 rmoveto
            203 44 192 175 10 vhcurveto
            248 14 68 -201 -249 vvcurveto
            -190 -44 -207 -174 -11 vhcurveto
            -250 -16 -67 206 249 vvcurveto
            return
          </CharString>
          <CharString index="4">
            -50 callgsubr
            hintmask 10101010
            -80 callgsubr
            hintmask 01101010
            -101 callgsubr
            hintmask 10101010
            -99 callgsubr
            hintmask 00010100
            return
          </CharString>
          <CharString index="5">
            rmoveto
            -98 -47 -43 -2 -2 hvcurveto
            -2 -2 9 -108 0 0 117 26 -72 vvcurveto
            -74 -104 -61 0 vhcurveto
            61 -54 rlineto
            0 226 67 191 vvcurveto
            79 -63 53 -97 vhcurveto
            endchar
          </CharString>
          <CharString index="6">
            566 82 hlineto
            -182 55 rlineto
            570 vlineto
            132 5 96 19 108 vhcurveto
            -37 19 -95 -49 -86 -10 19 callgsubr
            85 -22 81 -28 -141 vvcurveto
            -413 -35 callsubr
            -33 -11 -141 -38 vhcurveto
            return
          </CharString>
          <CharString index="7">
            100 736 rmoveto
            -383 246 -373 471 36 266 -12 151 269 vhcurveto
            -8 200 rlineto
            209 vlineto
            60 44 19 60 17 vhcurveto
            83 -501 -83 vlineto
            187 -55 rlineto
            -403 vlineto
            -33 -86 -56 -8 -139 hhcurveto
            -376 -192 334 363 192 68 158 88 114 hvcurveto
            64 66 135 49 109 hhcurveto
            148 167 -14 -88 108 hvcurveto
            50 -217 rlineto
            103 hlineto
            38 378 rlineto
            0 -239 92 -281 -487 -294 -413 -401 vhcurveto
            return
          </CharString>
          <CharString index="8">
            202 -412 rmoveto
            24 -101 rlineto
            296 hlineto
            142 336 0 -21 390 1054 23 45 57 20 80 18 6 81 rcurveline
            -502 hlineto
            3 -82 179 -53 -207 -650 -32 -15 -27 9 -35 96 rlinecurve
            -200 499 13 68 34 13 109 34 rlinecurve
            6 81 rlineto
            -557 hlineto
            3 -82 129 -39 100 -225 160 -322 142 -352 rlinecurve
            68 12 -5 -12 -13 -38 -122 -347 -264 -27 rlinecurve
            return
          </CharString>
          <CharString index="9">
            rmoveto
            84 24 31 82 -15 67 -17 76 -65 40 -81 -23 -85 -24 -31 -78 16 -71 16 -69 64 -48 83 24 rrcurveto
            -438 hmoveto
            84 24 31 82 -15 67 -17 76 -65 40 -81 -23 -85 -24 -31 -78 16 -71 16 -69 64 -48 83 24 rrcurveto
            endchar
          </CharString>
          <CharString index="10">
            104 hmoveto
            522 82 hlineto
            -157 55 rlineto
            1099 -27 callsubr
            17 -46 callsubr
            82 -517 -82 vlineto
            144 -56 rlineto
            -1098 -35 callsubr
            -9 -76 callsubr
            return
          </CharString>
          <CharString index="11">
            271 206 271 -206 88 65 -105 127 -96 84 -102 140 rlinecurve
            -112 hlineto
            -12 callgsubr
            -84 -105 -127 rrcurveto
            endchar
          </CharString>
          <CharString index="12">
            -85 -36 -78 -27 -89 -13 rrcurveto
            53 -77 -110 26 -132 hhcurveto
            -238 -193 -129 -226 -140 79 -94 120 -50 hvcurveto
            -65 -65 -52 -64 -54 -60 -12 -15 -3 -27 2 -16 rrcurveto
            462 305 rmoveto
            -206 -10 -54 127 143 vvcurveto
            100 44 109 123 6 vhcurveto
            205 10 64 -123 -143 vvcurveto
            -98 -33 -114 -143 -7 vhcurveto
            return
          </CharString>
          <CharString index="13">
            80 -62 52 -76 -113 -54 -75 -67 -74 55 -62 85 return
          </CharString>
          <CharString index="14">
            rmoveto
            303 137 279 -137 68 65 -291 267 rlineto
            -112 hlineto
            -315 -267 rlineto
            endchar
          </CharString>
          <CharString index="15">
            rmoveto
            405 355 -48 51 -88 65 -56 10 rlinecurve
            -12 callgsubr
            -144 -105 -132 rrcurveto
            endchar
          </CharString>
          <CharString index="16">
            -42 hmoveto
            532 82 hlineto
            -203 47 138 381 rlineto
            600 hlineto
            68 -172 40 -105 22 -59 -29 -54 -61 -13 -93 -25 rrcurveto
            -82 return
          </CharString>
          <CharString index="17">
            rmoveto
            83 63 67 79 81 -56 51 -67 -101 -47 -75 -68 -74 50 -61 75 hvcurveto
            -438 hmoveto
            83 63 67 79 81 -56 51 -67 -101 -47 -75 -68 -74 50 -61 75 hvcurveto
            endchar
          </CharString>
          <CharString index="18">
            -98 -48 -61 -3 -2 hvcurveto
            -2 -3 19 -139 0 0 128 36 -102 vvcurveto
            -148 -135 -59 0 vhcurveto
            62 -77 rlineto
            31 24 207 115 238 vvcurveto
            115 -64 64 -98 vhcurveto
            return
          </CharString>
          <CharString index="19">
            rmoveto
            215 161 153 196 -41 hvcurveto
            -109 hlineto
            -102 -1 -97 -86 -128 hhcurveto
            -128 -92 86 102 -1 hvcurveto
            -109 hlineto
            -196 -40 155 -153 215 hhcurveto
            endchar
          </CharString>
          <CharString index="20">
            -100 58 rlineto
            -43 -26 -49 -69 -57 -68 -112 122 -122 hhcurveto
            -96 -87 -139 -80 -37 hvcurveto
            return
          </CharString>
          <CharString index="21">
            132 hmoveto
            820 hlineto
            25 367 rlineto
            -96 hlineto
            -100 -219 -22 2 -10 -6 -51 -23 -191 -11 -166 -6 60 66 rcurveline
            558 755 -34 95 rlineto
            -774 hlineto
            -11 -315 rlineto
            90 hlineto
            68 154 17 18 30 12 24 10 187 15 162 8 -64 -72 rcurveline
            -559 -751 rlineto
            return
          </CharString>
          <CharString index="22">
            rmoveto
            86 79 59 87 -94 callsubr
            hvcurveto
            endchar
          </CharString>
          <CharString index="23">
            226 292 rmoveto
            -217 9 -102 203 119 166 85 62 96 vhcurveto
            -38 96 rlineto
            -30 -62 -110 -35 -72 hhcurveto
            -63 -38 25 64 hvcurveto
            645 319 135 -319 vlineto
            7 260 rlineto
            -124 hlineto
            -77 -192 -8 -20 -30 -31 -38 -14 rlinecurve
            -98 -37 rlineto
            -101 158 vlineto
            return
          </CharString>
          <CharString index="24">
            218 443 rmoveto
            -436 260 -27 195 221 224 157 80 70 vhcurveto
            return
          </CharString>
          <CharString index="25">
            0 -83 18 -47 -281 -231 -162 -268 vhcurveto
            -190 vlineto
            -160 -20 rlineto
            -115 160 vlineto
            -2 -593 rlineto
            -161 -15 -11 -168 -38 vhcurveto
            return
          </CharString>
          <CharString index="26">
            rmoveto
            112 hlineto
            303 326 -88 65 -271 -186 -271 186 -88 -65 rlineto
            endchar
          </CharString>
          <CharString index="27">
            97 -59 rlineto
            46 35 40 58 60 97 74 -114 136 hhcurveto
            endchar
          </CharString>
          <CharString index="28">
            97 hmoveto
            547 -24 callsubr
            650 vlineto
            37 59 109 48 112 hhcurveto
            99 32 -12 -30 29 hvcurveto
            11 -12 8 25 callgsubr
            -155 -52 vhcurveto
            -82 546 26 callgsubr
            505 rlineto
            49 0 51 -3 47 vhcurveto
            35 62 110 48 107 hhcurveto
            99 37 -12 -30 29 hvcurveto
            12 -12 7 25 callgsubr
            -154 -52 vhcurveto
            -82 545 26 callgsubr
            515 rlineto
            200 -2 20 190 -294 hhcurveto
            -76 -71 -30 -7 -27 hvcurveto
            -96 -54 -124 -68 -16 -8 rrcurveto
            103 -23 -65 64 -173 hhcurveto
            -75 -71 -30 -7 -26 hvcurveto
            -103 -58 -114 -66 0 vvcurveto
            return
          </CharString>
          <CharString index="29">
            rmoveto
            -261 -257 -203 0 vhcurveto
            80 -72 288 264 105 10 -7 213 rlinecurve
            1 727 rlineto
            30 -1 122 14 188 vhcurveto
            -37 19 -95 -49 -76 -10 -183 -49 callgsubr
            86 -22 82 -28 -141 vvcurveto
            return
          </CharString>
          <CharString index="30">
            357 0 165 1267 118 hstem
            173 217 215 111 225 112 222 223 vstem
            163 hmoveto
            551 hlineto
            5 353 rlineto
            -292 127 -37 278 233 vvcurveto
            165 87 276 358 354 86 -275 -166 -234 -80 -335 -254 -69 vhcurveto
            -353 558 vlineto
            43 388 rlineto
            -93 hlineto
            -150 -6 -90 -73 -127 hhcurveto
            -174 hlineto
            2 110 rlineto
            210 86 234 280 314 vvcurveto
            302 -173 293 -482 -469 -201 -291 -304 -286 188 -302 244 -92 vhcurveto
            -110 -196 vlineto
            -165 -27 76 151 -22 hvcurveto
            -91 -4 rlineto
            endchar
          </CharString>
          <CharString index="31">
            -11 -140 -38 vhcurveto
            return
          </CharString>
          <CharString index="32">
            -162 -498 rmoveto
            21 15 20 20 51 -2 347 -10 49 -34 5 -92 rrcurveto
            -181 9 -146 -49 -248 hhcurveto
            -226 -100 184 149 218 hvcurveto
            return
          </CharString>
          <CharString index="33">
            rmoveto
            90 65 -105 132 -96 144 -102 140 rlinecurve
            -56 -10 -88 -65 -48 -51 rrcurveto
            endchar
          </CharString>
          <CharString index="34">
            13 160 -40 21 -149 -74 -22 -5 -183 -49 callgsubr
            85 -22 83 -19 -142 vvcurveto
            -401 vlineto
            -158 -15 -7 -147 -45 vhcurveto
            return
          </CharString>
          <CharString index="35">
            597 686 rmoveto
            198 -310 154 -251 226 -119 rrcurveto
            -32 94 101 4 99 hhcurveto
            1 76 -121 38 -220 221 -131 160 rlinecurve
            -193 235 -51 74 -30 41 473 576 rcurveline
            87 8 46 13 95 26 rrcurveto
            84 -561 -84 vlineto
            152 -50 -470 -617 6 -20 23 -39 22 -34 rlinecurve
            -494 -686 rmoveto
            561 -24 callsubr
            1099 -27 callsubr
            33 -46 callsubr
            84 -561 -84 vlineto
            172 -56 16 callgsubr
            return
          </CharString>
          <CharString index="36">
            354 hmoveto
            674 82 hlineto
            -233 55 rlineto
            1152 vlineto
            58 4 31 13 19 vhcurveto
            69 -2 105 -4 161 -7 46 -248 rcurveline
            94 hlineto
            26 413 -132 -19 rlineto
            return
          </CharString>
          <CharString index="37">
            -160 55 rlineto
            763 vlineto
            245 -4 292 19 23 callsubr
            -182 -35 rlinecurve
            -73 vlineto
            87 -21 81 -11 callsubr
            -22 -11 -140 -38 vhcurveto
            429 445 rmoveto
            323 -404 129 -145 281 22 rlineto
            82 vlineto
            -33 10 -47 21 -27 18 rrcurveto
            -134 99 -279 319 0 vvcurveto
            97 85 105 147 82 82 36 36 29 16 142 23 rrcurveto
            82 -521 -82 vlineto
            49 -10 68 -19 -41 vvcurveto
            -49 -208 -233 -92 -59 vhcurveto
            return
          </CharString>
          <CharString index="38">
            96 0 132 -129 -21 1417 131 -80 80 19 -20 return
          </CharString>
          <CharString index="39">
            135 70 -26 49 -47 78 -40 76 rlinecurve
            -42 78 -39 85 52 vvcurveto
            50 39 81 42 77 vhcurveto
            40 77 47 75 29 50 -130 64 rcurveline
            -105 -149 -120 -183 -112 -142 112 -145 110 -196 107 -147 rrcurveto
            return
          </CharString>
          <CharString index="40">
            rmoveto
            -249 -85 -146 -142 -132 vhcurveto
            59 -55 66 34 97 29 137 167 rlinecurve
            79 96 5 121 519 vvcurveto
            772 -27 callsubr
            33 12 130 38 vhcurveto
            84 -541 -84 vlineto
            162 -56 rlineto
            return
          </CharString>
          <CharString index="41">
            rmoveto
            4 -49 54 -40 38 -16 30 -12 7 -7 30 -9 10 -4 5 -6 -10 -11 -34 -38 -40 -21 -35 -31 rrcurveto
            return
          </CharString>
          <CharString index="42">
            216 hintmask 00000000
            hintmask 11000010
            -71 callsubr
            hintmask 10100010
            -992 hlineto
            hintmask 11000010
            -25 callgsubr
            hintmask 10010010
            92 248 rlineto
            hintmask 11000010
            -30 callsubr
            rrcurveto
            -1106 vlineto
            hintmask 10010010
            -16 callgsubr
            hintmask 00001100
            return
          </CharString>
          <CharString index="43">
            rmoveto
            397 -22 callgsubr
            -105 -132 rrcurveto
            -341 -55 rmoveto
            387 -22 callgsubr
            -95 -132 rrcurveto
            endchar
          </CharString>
          <CharString index="44">
            395 -20 191 -171 -46 callgsubr
            return
          </CharString>
          <CharString index="45">
            -125 78 137 -70 199 hhcurveto
            111 29 108 53 146 83 -34 86 rcurveline
            -139 -52 -150 -25 0 vvcurveto
            -118 -215 22 352 6 hvcurveto
            653 hlineto
            0 5 70 1 38 vhcurveto
            251 5 -103 164 -255 hhcurveto
            -139 -115 -49 -80 -86 hvcurveto
            95 -42 -95 34 -167 hhcurveto
            -59 -219 -78 -58 -132 hvcurveto
            -21 -206 rlineto
            159 hlineto
            return
          </CharString>
          <CharString index="46">
            97 21 31 47 19 vhcurveto
            -74 callgsubr
            return
          </CharString>
          <CharString index="47">
            98 48 61 3 2 hvcurveto
            2 3 -19 139 0 0 -128 -36 102 vvcurveto
            148 135 59 0 vhcurveto
            -62 77 rlineto
            -31 -24 -207 -115 -238 vvcurveto
            -115 64 -64 98 vhcurveto
            return
          </CharString>
          <CharString index="48">
            -74 179 -51 10 -42 vhcurveto
            -36 7 -31 -34 -82 hhcurveto
            8 callsubr
            return
          </CharString>
          <CharString index="49">
            314 -268 296 hintmask 00000000
            hintmask 11010000
            295 518 rmoveto
            hintmask 11100000
            112 hlineto
            10 512 58 273 329 vvcurveto
            -4 4 -104 -37 -102 -3 -104 -33 rlinecurve
            -17 vlineto
            hintmask 11010000
            94 -240 10 -276 30 -512 rrcurveto
            -88 -403 rmoveto
            -77 callgsubr
            return
          </CharString>
          <CharString index="50">
            hstemhm
            275 216 return
          </CharString>
          <CharString index="51">
            -10 102 107 -9 62 hhcurveto
            522 287 407 473 384 -267 297 -509 hvcurveto
            return
          </CharString>
          <CharString index="52">
            265 0 -15 callgsubr
            947 -20 return
          </CharString>
          <CharString index="53">
            30 47 23 95 100 -3 rrcurveto
            -3 98 86 -135 156 hhcurveto
            131 88 140 124 33 hvcurveto
            -93 34 rlineto
            -44 -23 -49 -92 -64 hhcurveto
            return
          </CharString>
          <CharString index="54">
            442 -35 rlineto
            180 vlineto
            -442 -29 1 568 rlineto
            0 87 2 391 -17 vhcurveto
            73 -249 104 2 rlineto
            412 vlineto
            -153 -20 -682 1 rlineto
            -575 -99 hlineto
            299 -20 -546 -1264 -53 -32 -78 -12 -76 -21 rlinecurve
            602 593 rmoveto
            return
          </CharString>
          <CharString index="55">
            113 hlineto
            26 254 20 210 20 125 -4 36 rcurveline
            -236 hlineto
            -4 -36 17 -125 20 -209 28 -255 rlinecurve
            return
          </CharString>
          <CharString index="56">
            -172 -20 148 793 121 return
          </CharString>
          <CharString index="57">
            464 rmoveto
            -215 117 -268 294 70 116 50 116 145 vhcurveto
            return
          </CharString>
          <CharString index="58">
            82 1364 return
          </CharString>
          <CharString index="59">
            103 hmoveto
            601 82 hlineto
            -213 55 rlineto
            458 vlineto
            -19 66 115 -9 63 hhcurveto
            289 270 222 315 256 -151 194 -296 hvcurveto
            -206 -84 -24 -195 hhcurveto
            -69 -83 -1 9 -107 hvcurveto
            return
          </CharString>
          <CharString index="60">
            -87 -22 108 844 112 return
          </CharString>
          <CharString index="61">
            12 -14 callgsubr
            return
          </CharString>
          <CharString index="62">
            2 -85 5 -132 0 vvcurveto
            return
          </CharString>
          <CharString index="63">
            -13 76 82 -12 57 hhcurveto
            121 405 59 514 138 -39 97 -43 72 hvcurveto
            -106 175 -174 13 -49 -1 rrcurveto
            -108 -147 -109 -52 -75 hvcurveto
            2 60 2 51 4 50 rrcurveto
            return
          </CharString>
          <CharString index="64">
            rmoveto
            -89 callsubr
            return
          </CharString>
          <CharString index="65">
            216 -194 360 hintmask 00000000
            return
          </CharString>
          <CharString index="66">
            rmoveto
            113 hlineto
            87 254 70 210 49 125 5 36 rcurveline
            -216 hlineto
            -13 -36 rlineto
            return
          </CharString>
          <CharString index="67">
            115 776 rmoveto
            -462 354 -347 441 441 354 368 443 462 -354 347 -441 -441 -354 -368 -443 vhcurveto
            return
          </CharString>
          <CharString index="68">
            rmoveto
            598 145 -598 hlineto
            endchar
          </CharString>
          <CharString index="69">
            rmoveto
            86 62 69 76 75 -60 72 -88 -85 -63 -70 -77 -77 63 -68 85 hvcurveto
            endchar
          </CharString>
          <CharString index="70">
            rmoveto
            112 -48 881 1490 -104 56 rlineto
            endchar
          </CharString>
          <CharString index="71">
            rmoveto
            13 -1 13 -4 15 -1 rrcurveto
            320 -30 250 148 195 vvcurveto
            82 -62 117 -164 24 vhcurveto
            13 vlineto
            73 31 103 98 114 vvcurveto
            return
          </CharString>
          <CharString index="72">
            vlineto
            -161 return
          </CharString>
          <CharString index="73">
            13 160 -40 21 -149 -74 -24 -25 -183 -49 callgsubr
            85 -22 85 -19 -142 vvcurveto
            -381 vlineto
            -158 -17 -7 -147 -45 vhcurveto
            return
          </CharString>
          <CharString index="74">
            -93 -492 -21 534 -21 939 81 return
          </CharString>
          <CharString index="75">
            303 -20 145 499 83 692 151 return
          </CharString>
          <CharString index="76">
            82 1302 -30 callgsubr
            return
          </CharString>
          <CharString index="77">
            180 8 109 4 67 2 return
          </CharString>
          <CharString index="78">
            114 -223 14 33 75 return
          </CharString>
          <CharString index="79">
            hstemhm
            218 215 return
          </CharString>
          <CharString index="80">
            vlineto
            160 return
          </CharString>
          <CharString index="81">
            -167 1109 rlineto
            160 33 1 -14 callgsubr
            84 -405 vlineto
            3 -26 -427 -1149 -453 1136 rlineto
            return
          </CharString>
          <CharString index="82">
            -244 -20 172 743 147 return
          </CharString>
          <CharString index="83">
            -27 callgsubr
            rlineto
            return
          </CharString>
          <CharString index="84">
            -38 20 -108 -56 -91 -33 -130 -22 rlinecurve
            -72 vlineto
            87 -22 62 -2 -144 vvcurveto
            210 -539 rmoveto
            603 vlineto
            return
          </CharString>
          <CharString index="85">
            -19 callgsubr
            hvcurveto
            return
          </CharString>
          <CharString index="86">
            -537 390 return
          </CharString>
          <CharString index="87">
            436 -19 139 -120 82 663 105 573 119 -94 82 hstemhm
            280 216 873 223 return
          </CharString>
          <CharString index="88">
            -303 0 -2 callgsubr
            return
          </CharString>
          <CharString index="89">
            96 hmoveto
            611 82 hlineto
            -236 55 rlineto
            return
          </CharString>
          <CharString index="90">
            204 1 82 1365 82 return
          </CharString>
          <CharString index="91">
            270 168 270 return
          </CharString>
          <CharString index="92">
            hstemhm
            237 210 return
          </CharString>
          <CharString index="93">
            -82 vlineto
            172 -66 16 callgsubr
            388 658 rmoveto
            496 vlineto
            return
          </CharString>
          <CharString index="94">
            0 132 -129 -21 579 114 721 134 -131 131 -109 109 19 -20 return
          </CharString>
          <CharString index="95">
            173 -56 rlineto
            return
          </CharString>
          <CharString index="96">
            -3 -143 vvcurveto
            -995 -35 callsubr
            return
          </CharString>
          <CharString index="97">
            82 792 168 return
          </CharString>
          <CharString index="98">
            212 -214 rmoveto
            -1 -140 -17 -21 -104 -29 rrcurveto
            -82 556 82 vlineto
            -224 56 rlineto
            return
          </CharString>
          <CharString index="99">
            -10 callsubr
            20 -20 return
          </CharString>
          <CharString index="100">
            vhcurveto
            84 4 callsubr
            vlineto
            return
          </CharString>
          <CharString index="101">
            8 callsubr
            -28 callgsubr
            return
          </CharString>
          <CharString index="102">
            90 -50 callsubr
            return
          </CharString>
          <CharString index="103">
            397 -29 174 -165 148 391 104 298 121 -110 110 return
          </CharString>
          <CharString index="104">
            rmoveto
            77 -63 68 -85 -86 -62 -69 -76 -75 60 -72 88 85 63 70 77 vhcurveto
            endchar
          </CharString>
          <CharString index="105">
            hstemhm
            105 222 -194 217 return
          </CharString>
          <CharString index="106">
            hstemhm
            261 210 return
          </CharString>
          <CharString index="107">
            82 980 -20 return
          </CharString>
          <CharString index="108">
            141 -18 return
          </CharString>
          <CharString index="109">
            -161 -33 -76 callsubr
            389 return
          </CharString>
          <CharString index="110">
            944 1448 82 return
          </CharString>
          <CharString index="111">
            -482 -84 return
          </CharString>
          <CharString index="112">
            hstemhm
            155 183 return
          </CharString>
          <CharString index="113">
            -17 -486 82 379 127 -81 -21 881 161 20 -20 return
          </CharString>
          <CharString index="114">
            -75 341 123 313 122 hstem
            158 879 vstem
            return
          </CharString>
          <CharString index="115">
            -77 -90 44 0 hvcurveto
            -41 callgsubr
            return
          </CharString>
          <CharString index="116">
            -587 -355 120 1896 -21 38 120 hstem
            return
          </CharString>
          <CharString index="117">
            -20 98 501 98 42 100 499 100 158 -20 return
          </CharString>
          <CharString index="118">
            310 155 310 hintmask 11100000
            return
          </CharString>
          <CharString index="119">
            436 17 callsubr
            return
          </CharString>
          <CharString index="120">
            178 11 182 return
          </CharString>
          <CharString index="121">
            122 481 hstemhm
            return
          </CharString>
          <CharString index="122">
            -20 hstemhm
            160 441 -441 995 hintmask 00000000
            return
          </CharString>
          <CharString index="123">
            -567 1660 -21 hstem
            114 475 vstem
            return
          </CharString>
          <CharString index="124">
            0 -46 callgsubr
            return
          </CharString>
          <CharString index="125">
            -82 vlineto
            -12 callsubr
            return
          </CharString>
          <CharString index="126">
            vstem
            191 539 rmoveto
            return
          </CharString>
          <CharString index="127">
            178 734 135 hstemhm
            226 210 return
          </CharString>
          <CharString index="128">
            21 77 20 hstem
            190 310 vstem
            338 return
          </CharString>
          <CharString index="129">
            140 -137 -21 return
          </CharString>
          <CharString index="130">
            187 vhcurveto
            -37 21 -148 -74 -26 -9 return
          </CharString>
          <CharString index="131">
            773 0 83 -72 -21 1458 82 return
          </CharString>
          <CharString index="132">
            -159 -44 -180 17 -113 42 rrcurveto
            return
          </CharString>
          <CharString index="133">
            -16 callgsubr
            endchar
          </CharString>
          <CharString index="134">
            hstemhm
            90 234 return
          </CharString>
        <CharString name=".notdef">
          -595 endchar
        </CharString>
        <CharString name=".null">
          endchar
        </CharString>
        <CharString name="A">
          -55 callsubr
          hstem
          -42 1610 vstem
          -106 callsubr
          endchar
        </CharString>
        <CharString name="AE">
          753 -13 callsubr
          hstemhm
          932 216 552 20 callgsubr
          hintmask 1010010100000000
          -60 hmoveto
          582 hlineto
          hintmask 0110010100000000
          82 vlineto
          -197 41 172 438 rlineto
          hintmask 1010100110000000
          -34 callgsubr
          hintmask 1010001110000000
          593 vlineto
          hintmask 1010010100000000
          -53 callsubr
          hintmask 1011000100000000
          7 callgsubr
          endchar
        </CharString>
        <CharString name="AEacute">
          813 -13 callsubr
          131 -21 hstemhm
          992 216 -170 475 247 20 callgsubr
          hintmask 1010010010000000
          0 vmoveto
          582 hlineto
          hintmask 0110010010000000
          82 vlineto
          -197 41 172 438 rlineto
          hintmask 1010100010100000
          -34 callgsubr
          hintmask 1010001010100000
          593 vlineto
          hintmask 1010010010000000
          -53 callsubr
          hintmask 1011000010000000
          7 callgsubr
          hintmask 0000000101000000
          136 964 -91 callgsubr
        </CharString>
        <CharString name="Aacute">
          -55 callsubr
          102 -21 14 callgsubr
          -1003 475 hintmask 11101000
          -106 callsubr
          hintmask 00010100
          -323 1008 -91 callgsubr
        </CharString>
        <CharString name="Abreve">
          -55 callsubr
          93 161 14 callgsubr
          -1171 677 hintmask 11101000
          -106 callsubr
          hintmask 00010100
          -245 1020 -88 callsubr
        </CharString>
        <CharString name="Acircumflex">
          -55 callsubr
          110 332 14 callgsubr
          -1192 718 hintmask 11101000
          -106 callsubr
          hintmask 00010100
          -534 1037 -93 callsubr
        </CharString>
        <CharString name="Adieresis">
          -55 callsubr
          14 callgsubr
          vstemhm
          -106 callsubr
          -35 1091 -90 callsubr
        </CharString>
        <CharString name="Agrave">
          -55 callsubr
          102 -21 14 callgsubr
          -1118 475 hintmask 11101000
          -106 callsubr
          hintmask 00010100
          -143 1008 -69 callgsubr
        </CharString>
        <CharString name="Amacron">
          -55 callsubr
          289 135 14 callgsubr
          -1132 598 hintmask 11101000
          -106 callsubr
          hintmask 00010100
          -542 1216 -38 callgsubr
        </CharString>
        <CharString name="Aogonek">
          265 4 callgsubr
          333 -15 callgsubr
          947 -20 hstem
          1090 176 vstem
          -91 callsubr
          303 vlineto
          -83 -47 -72 -85 -22 -93 rrcurveto
          -154 -42 121 -119 167 hhcurveto
          95 85 -60 callgsubr
          -36 -94 31 108 29 hvcurveto
          16 58 55 75 97 61 rrcurveto
          129 82 hlineto
          -166 55 11 4 -521 1298 -3 -48 -72 187 rlinecurve
          -135 -39 -24 -7 -116 -26 1 -50 rcurveline
          87 -32 -511 -1286 -38 -26 -55 -12 -68 -18 rlinecurve
          511 549 rmoveto
          219 604 9 26 8 20 8 16 rlinecurve
          265 -666 rlineto
          endchar
        </CharString>
        <CharString name="Aring">
          265 0 -15 callgsubr
          921 -20 326 89 hstem
          482 -6 callgsubr
          vstem
          -91 callsubr
          596 82 vlineto
          -166 55 11 4 -426 1060 -79 162 -55 126 rlinecurve
          78 40 56 79 94 vvcurveto
          143 -117 102 -135 -134 -119 -102 -143 -79 37 -66 56 -43 vhcurveto
          -33 -8 1 -50 87 -32 -511 -1286 -38 -26 -55 -12 -68 -18 rlinecurve
          774 1470 rmoveto
          -73 -68 61 89 71 50 85 94 96 47 -85 -71 -91 -70 -59 -76 hvcurveto
          -263 -921 rmoveto
          219 604 9 26 8 20 8 16 rlinecurve
          265 -666 rlineto
          endchar
        </CharString>
        <CharString name="Atilde">
          -55 callsubr
          118 -35 callgsubr
          14 callgsubr
          -1225 754 hintmask 11100100
          -106 callsubr
          hintmask 00000000
          -96 1045 -57 callgsubr
          hintmask 00001010
          -87 callsubr
          hintmask 00010010
          -80 callsubr
        </CharString>
        <CharString name="B">
          104 -30 1572 hstem
          110 1184 vstem
          -79 callgsubr
          endchar
        </CharString>
        <CharString name="C">
          -33 callgsubr
          hstem
          100 215 vstem
          -97 callgsubr
          endchar
        </CharString>
        <CharString name="CR">
          -593 endchar
        </CharString>
        <CharString name="Cacute">
          -33 callgsubr
          111 -21 hstemhm
          100 215 387 475 hintmask 11010000
          -97 callgsubr
          hintmask 00101000
          692 902 -91 callgsubr
        </CharString>
        <CharString name="Ccaron">
          -33 callgsubr
          81 -21 hstemhm
          100 215 198 718 hintmask 11010000
          -97 callgsubr
          hintmask 00101000
          716 872 -81 callsubr
        </CharString>
        <CharString name="Ccedilla">
          241 -496 141 336 172 1245 151 hstemhm
          100 215 419 13 callsubr
          hintmask 00000000
          hintmask 11111000
          650 -311 rmoveto
          -41 callgsubr
          vhcurveto
          hintmask 11111100
          -22 callsubr
          16 39 80 14 146 48 246 161 rlinecurve
          -39 82 rlineto
          -53 -131 -226 -85 -39 hhcurveto
          hintmask 11111000
          -466 -187 297 391 156 49 184 107 126 hvcurveto
          57 84 116 34 115 hhcurveto
          152 145 -21 -79 103 hvcurveto
          47 -218 rlineto
          113 hlineto
          48 376 rlineto
          0 -251 93 -281 -498 -264 -407 -405 -372 231 -361 477 -23 vhcurveto
          -30 -26 -44 -43 -30 vvcurveto
          -74 179 -51 10 -42 vhcurveto
          -36 7 -31 -34 -82 hhcurveto
          -77 -90 44 0 hvcurveto
          endchar
        </CharString>
        <CharString name="Ccircumflex">
          -33 callgsubr
          119 332 hstemhm
          100 215 198 718 hintmask 11010000
          -97 callgsubr
          hintmask 00101000
          481 931 -93 callsubr
        </CharString>
        <CharString name="Cdotaccent">
          -33 callgsubr
          171 278 hstemhm
          100 215 405 305 hintmask 11010000
          -97 callgsubr
          hintmask 00101000
          760 983 -93 callgsubr
        </CharString>
        <CharString name="D">
          -21 callgsubr
          hstemhm
          275 216 873 223 hintmask 00000000
          hintmask 01101100
          102 hmoveto
          405 hlineto
          hintmask 10101100
          -56 callsubr
          hintmask 01011100
          -17 callgsubr
          -278 -82 hlineto
          -12 callsubr
          -1100 vlineto
          2 callsubr
          95 rmoveto
          hintmask 10101100
          1091 vlineto
          -61 callsubr
          endchar
        </CharString>
        <CharString name="DC1">
          endchar
        </CharString>
        <CharString name="DC2">
          endchar
        </CharString>
        <CharString name="DC3">
          endchar
        </CharString>
        <CharString name="DC4">
          endchar
        </CharString>
        <CharString name="DEL">
          endchar
        </CharString>
        <CharString name="DLE">
          endchar
        </CharString>
        <CharString name="Dcaron">
          -21 callgsubr
          100 18 callgsubr
          -1 718 156 -71 callgsubr
          302 1432 -81 callsubr
        </CharString>
        <CharString name="Dcroat">
          -20 callsubr
          hintmask 01110110
          107 hmoveto
          405 hlineto
          hintmask 10110110
          -56 callsubr
          hintmask 01101110
          -17 callgsubr
          -278 -82 hlineto
          -12 callsubr
          -13 callgsubr
          1 callgsubr
          hintmask 10110110
          -74 callgsubr
          endchar
        </CharString>
        <CharString name="Delta">
          -45 callgsubr
        </CharString>
        <CharString name="E">
          -70 callgsubr
          endchar
        </CharString>
        <CharString name="Eacute">
          -69 callsubr
          131 18 callgsubr
          30 475 47 -104 callgsubr
          496 1559 -91 callgsubr
        </CharString>
        <CharString name="Ebreve">
          -69 callsubr
          122 161 -57 callsubr
          -138 677 13 -104 callgsubr
          574 1571 -88 callsubr
        </CharString>
        <CharString name="Ecaron">
          -69 callsubr
          101 18 callgsubr
          -159 718 -7 -104 callgsubr
          520 1529 -81 callsubr
        </CharString>
        <CharString name="Ecircumflex">
          -69 callsubr
          139 332 -57 callsubr
          -159 718 -7 -104 callgsubr
          285 1588 -93 callsubr
        </CharString>
        <CharString name="Edieresis">
          -70 callgsubr
          hintmask 00000000
          784 1642 -90 callsubr
        </CharString>
        <CharString name="Edotaccent">
          -69 callsubr
          191 278 -57 callsubr
          48 305 199 -104 callgsubr
          564 1640 -93 callgsubr
        </CharString>
        <CharString name="Egrave">
          -69 callsubr
          131 18 callgsubr
          -85 475 162 -104 callgsubr
          676 1559 -69 callgsubr
        </CharString>
        <CharString name="Emacron">
          -69 callsubr
          318 135 -57 callsubr
          -99 598 53 -104 callgsubr
          277 1767 -38 callgsubr
        </CharString>
        <CharString name="Eng">
          436 -485 -21 506 -46 callgsubr
          hstem
          273 147 919 124 vstem
          81 hmoveto
          541 82 hlineto
          -193 55 -2 3 -14 1060 862 -1112 1 -12 18 -286 -62 -129 -142 -112 rlinecurve
          59 -55 rlineto
          152 91 163 85 328 vvcurveto
          1238 -27 callsubr
          33 12 140 38 -7 callsubr
          172 -56 9 -524 7 -499 -920 1163 rlineto
          -319 -82 hlineto
          113 -31 43 -14 13 -88 rrcurveto
          -962 vlineto
          -7 -61 -18 -160 -27 -12 -140 -38 rlinecurve
          endchar
        </CharString>
        <CharString name="Eogonek">
          94 4 callgsubr
          333 132 -129 -21 33 -21 1405 131 -80 80 19 -20 hstemhm
          273 216 318 173 61 20 callgsubr
          hintmask 1100100111000000
          113 hmoveto
          889 hlineto
          -87 -49 -77 -92 -23 -94 rrcurveto
          -154 -40 112 -109 160 hhcurveto
          95 85 -60 callgsubr
          -32 -90 31 108 35 hvcurveto
          hintmask 1001100111000000
          17 58 55 66 99 64 rrcurveto
          hintmask 1010100111000000
          92 -12 19 448 rlineto
          -108 hlineto
          hintmask 1100100111000000
          -92 -287 -581 -21 rlineto
          582 vlineto
          442 -31 rlineto
          190 vlineto
          -442 -29 rlineto
          565 vlineto
          0 89 2 391 -17 vhcurveto
          72 -249 104 2 rlineto
          hintmask 1100001111000000
          412 vlineto
          hintmask 1100100111000000
          -142 -19 rlineto
          -895 hlineto
          hintmask 1100010111000000
          -80 vlineto
          165 -54 rlineto
          -1115 vlineto
          -153 -26 -11 -134 -37 vhcurveto
          endchar
        </CharString>
        <CharString name="Eth">
          -20 callsubr
          hintmask 00000000
          hintmask 10110110
          107 hmoveto
          405 hlineto
          -10 102 107 -9 62 hhcurveto
          hintmask 01110110
          522 287 407 473 384 -267 297 -509 hvcurveto
          -17 callgsubr
          hintmask 10110110
          -278 -82 hlineto
          -12 callsubr
          hintmask 10101110
          -13 callgsubr
          hintmask 10110110
          568 484 vlineto
          20 105 rlineto
          -504 418 hlineto
          -61 callsubr
          endchar
        </CharString>
        <CharString name="Euro">
          262 -21 169 441 120 170 120 409 151 hstem
          259 216 vstem
          109 589 rmoveto
          162 hlineto
          -327 51 221 -283 346 hhcurveto
          28 155 -7 207 314 hvcurveto
          -34 78 rlineto
          -41 -110 -209 -68 -32 hhcurveto
          -258 -171 187 254 -66 hvcurveto
          484 hlineto
          30 120 rlineto
          -537 hlineto
          -6 43 -2 44 45 vvcurveto
          38 542 vlineto
          30 120 rlineto
          -561 hlineto
          17 114 39 117 78 93 rrcurveto
          49 66 96 36 91 hhcurveto
          112 137 -22 -69 80 hvcurveto
          49 -164 rlineto
          93 hlineto
          48 304 rlineto
          0 -212 102 -231 -362 -218 -255 -305 -78 vhcurveto
          -125 hlineto
          -30 -120 rlineto
          132 hlineto
          -6 -47 -3 -48 -47 vvcurveto
          -28 -120 vlineto
          endchar
        </CharString>
        <CharString name="F">
          10 callgsubr
          -57 callsubr
          hintmask 00000000
          hintmask 10100100
          123 hmoveto
          696 hlineto
          hintmask 01100100
          -37 callgsubr
          hintmask 10001100
          20 392 rlineto
          hintmask 10100100
          -142 -20 -1023 -1 rlineto
          hintmask 10010100
          -78 vlineto
          165 -54 rlineto
          -1104 -35 callsubr
          -12 -76 callsubr
          endchar
        </CharString>
        <CharString name="G">
          -32 callsubr
          hstem
          100 221 849 210 vstem
          -100 callsubr
          endchar
        </CharString>
        <CharString name="Gbreve">
          -32 callsubr
          101 161 hstemhm
          100 221 225 677 -53 210 hintmask 11101010
          -100 callsubr
          hintmask 00010100
          782 915 -88 callsubr
        </CharString>
        <CharString name="Gcircumflex">
          -32 callsubr
          118 332 hstemhm
          100 221 204 718 -73 210 hintmask 11101010
          -100 callsubr
          hintmask 00010100
          493 932 -93 callsubr
        </CharString>
        <CharString name="Gcommaaccent">
          303 -21 callsubr
          127 145 499 83 692 151 hstemhm
          100 221 331 307 211 210 hintmask 01111010
          -100 callsubr
          hintmask 10000100
          699 -883 -102 callsubr
        </CharString>
        <CharString name="Gdotaccent">
          -32 callsubr
          170 278 hstemhm
          100 221 411 305 133 210 hintmask 11101010
          -100 callsubr
          hintmask 00010100
          772 984 -93 callgsubr
        </CharString>
        <CharString name="H">
          12 callgsubr
          599 82 hstem
          275 216 724 216 vstem
          -62 callgsubr
          endchar
        </CharString>
        <CharString name="HT">
          endchar
        </CharString>
        <CharString name="Hbar">
          12 callgsubr
          224 105 270 82 hstem
          275 216 724 216 vstem
          102 hmoveto
          585 82 hlineto
          -196 55 rlineto
          592 724 -437 -35 callsubr
          -33 -76 callsubr
          -82 586 82 vlineto
          -197 55 rlineto
          936 184 vlineto
          20 105 rlineto
          -204 60 hlineto
          160 45 -46 callsubr
          82 -574 18 callsubr
          -214 -724 60 -27 callsubr
          45 12 139 38 vhcurveto
          82 -573 18 callsubr
          -214 -186 vlineto
          -20 -105 rlineto
          206 -781 hlineto
          2 callsubr
          767 rmoveto
          224 724 -224 vlineto
          endchar
        </CharString>
        <CharString name="Hcircumflex">
          12 callgsubr
          599 82 138 332 -57 callsubr
          15 718 -9 216 hintmask 11101010
          -62 callgsubr
          hintmask 00010100
          472 1586 -93 callsubr
        </CharString>
        <CharString name="I">
          -47 callgsubr
          hstem
          253 216 vstem
          -97 callsubr
          endchar
        </CharString>
        <CharString name="IJ">
          158 -481 -21 502 -4 callgsubr
          -82 84 hstemhm
          253 216 520 216 hintmask 01101000
          -97 callsubr
          hintmask 10010100
          885 -2 -67 callsubr
          endchar
        </CharString>
        <CharString name="Iacute">
          -47 callgsubr
          132 -21 hstemhm
          191 475 -413 216 hintmask 11001000
          -97 callsubr
          hintmask 00110000
          177 1557 -91 callgsubr
        </CharString>
        <CharString name="Ibreve">
          -47 callgsubr
          123 161 hstemhm
          23 677 -447 216 hintmask 11001000
          -97 callsubr
          hintmask 00110000
          255 1569 -88 callsubr
        </CharString>
        <CharString name="Icircumflex">
          -47 callgsubr
          140 332 hstemhm
          2 718 -467 216 hintmask 11001000
          -97 callsubr
          hintmask 00110000
          -34 1586 -93 callsubr
        </CharString>
        <CharString name="Idieresis">
          -47 callgsubr
          hstemhm
          253 216 vstemhm
          -97 callsubr
          465 1640 -90 callsubr
        </CharString>
        <CharString name="Idotaccent">
          -47 callgsubr
          192 278 hstemhm
          209 305 -261 216 hintmask 11001000
          -97 callsubr
          hintmask 00110000
          245 1638 -93 callgsubr
        </CharString>
        <CharString name="Igrave">
          -47 callgsubr
          132 -21 hstemhm
          76 475 -298 216 hintmask 11001000
          -97 callsubr
          hintmask 00110000
          357 1557 -69 callgsubr
        </CharString>
        <CharString name="Imacron">
          -47 callgsubr
          319 135 hstemhm
          62 598 -407 216 hintmask 11001000
          -97 callsubr
          hintmask 00110000
          -42 1765 -38 callgsubr
        </CharString>
        <CharString name="Iogonek">
          -586 4 callgsubr
          333 -4 callgsubr
          hstemhm
          89 187 -43 216 35 122 hintmask 00000000
          hintmask 11110100
          84 hmoveto
          213 hlineto
          -83 -53 -82 -86 -23 -104 rrcurveto
          -149 -33 99 -106 146 hhcurveto
          95 85 -60 callgsubr
          -24 -69 29 100 26 hvcurveto
          16 62 51 74 93 68 rrcurveto
          164 82 hlineto
          hintmask 11101100
          -157 55 rlineto
          1099 -27 callsubr
          17 -46 callsubr
          82 vlineto
          hintmask 11110100
          -517 -82 hlineto
          hintmask 11101100
          144 -56 rlineto
          -1098 -35 callsubr
          -9 -76 callsubr
          endchar
        </CharString>
        <CharString name="Itilde">
          -47 callgsubr
          148 -35 callgsubr
          hstemhm
          -31 754 -470 216 hintmask 11000100
          -97 callsubr
          hintmask 00000000
          404 1594 -57 callgsubr
          hintmask 00011000
          -87 callsubr
          hintmask 00101000
          -80 callsubr
        </CharString>
        <CharString name="J">
          -566 -481 -21 1948 84 hstem
          265 216 vstem
          265 80 -67 callsubr
          endchar
        </CharString>
        <CharString name="Jcircumflex">
          -566 -481 -21 1948 84 138 332 hstemhm
          12 718 -465 216 hintmask 11001000
          265 80 -67 callsubr
          hintmask 00110000
          -185 278 -93 callsubr
        </CharString>
        <CharString name="K">
          230 17 callsubr
          hstem
          275 216 vstem
          -72 callsubr
          endchar
        </CharString>
        <CharString name="Kcommaaccent">
          230 -21 callsubr
          147 -46 callgsubr
          -57 callsubr
          154 307 hintmask 01110000
          -72 callsubr
          hintmask 10001000
          689 -229 -102 callsubr
        </CharString>
        <CharString name="L">
          87 0 22 callsubr
          1464 17 callgsubr
          hintmask 10110000
          3 callgsubr
          hintmask 01110000
          -82 callgsubr
          endchar
        </CharString>
        <CharString name="LF">
          endchar
        </CharString>
        <CharString name="Lacute">
          87 0 22 callsubr
          1464 82 132 18 callgsubr
          -198 475 hintmask 10101000
          3 callgsubr
          hintmask 01101000
          -82 callgsubr
          hintmask 10101000
          hintmask 00010100
          270 1557 -91 callgsubr
        </CharString>
        <CharString name="Lcaron">
          87 0 22 callsubr
          959 21 77 20 387 17 callgsubr
          316 310 hintmask 10001100
          3 callgsubr
          hintmask 01001100
          -82 callgsubr
          hintmask 10001100
          hintmask 00110010
          842 1436 -43 callsubr
          endchar
        </CharString>
        <CharString name="Lcommaaccent">
          87 -21 callsubr
          147 22 callsubr
          1464 17 callgsubr
          46 307 hintmask 01011000
          3 callgsubr
          hintmask 00111000
          -82 callgsubr
          hintmask 01011000
          hintmask 10000100
          571 -229 -102 callsubr
        </CharString>
        <CharString name="Ldot">
          144 0 22 callsubr
          651 292 521 82 hstemhm
          280 216 621 296 hintmask 10011000
          118 hmoveto
          982 hlineto
          hintmask 01011000
          -82 callgsubr
          hintmask 10011000
          hintmask 00100100
          1147 551 -38 callsubr
        </CharString>
        <CharString name="Lslash">
          92 0 82 -79 -21 1072 -20 412 17 callgsubr
          hintmask 00000000
          hintmask 10111000
          3 callgsubr
          hintmask 01111000
          1 callsubr
          42 484 rlineto
          -113 hlineto
          -94 -323 -580 -31 rlineto
          627 vlineto
          419 213 -45 102 -374 -190 rlineto
          372 -27 callsubr
          53 15 140 35 vhcurveto
          82 -581 -82 vlineto
          172 -56 rlineto
          -636 vlineto
          -234 -118 44 -103 190 96 rlineto
          -337 vlineto
          hintmask 10111000
          -1 callgsubr
          endchar
        </CharString>
        <CharString name="M">
          24 callsubr
          hstemhm
          11 330 -330 2020 hintmask 00000000
          hintmask 10101000
          -53 callgsubr
          hintmask 10110000
          -26 callsubr
          hintmask 01101000
          -3 callgsubr
          hintmask 10101000
          -41 -156 9 -16 -140 -38 rrcurveto
          endchar
        </CharString>
        <CharString name="N">
          12 callsubr
          hstem
          273 147 919 124 vstem
          -95 callgsubr
          endchar
        </CharString>
        <CharString name="Nacute">
          12 callsubr
          130 -21 hstemhm
          273 147 282 475 162 124 hintmask 11010100
          -95 callgsubr
          hintmask 00101000
          711 1557 -91 callgsubr
        </CharString>
        <CharString name="Ncaron">
          12 callsubr
          100 -21 hstemhm
          273 147 93 718 108 124 hintmask 11010100
          -95 callgsubr
          hintmask 00101000
          735 1527 -81 callsubr
        </CharString>
        <CharString name="Ncommaaccent">
          436 -21 callsubr
          147 -46 callgsubr
          hstemhm
          273 147 304 307 308 124 hintmask 01110100
          -95 callgsubr
          hintmask 10001000
          790 -229 -102 callsubr
        </CharString>
        <CharString name="Ntilde">
          12 callsubr
          146 -35 callgsubr
          hstemhm
          273 147 60 754 105 124 hintmask 11001010
          -95 callgsubr
          hintmask 00000000
          938 1594 -57 callgsubr
          hintmask 00010100
          -87 callsubr
          hintmask 00100100
          -80 callsubr
        </CharString>
        <CharString name="O">
          -58 callgsubr
          hstem
          100 223 1061 223 vstem
          -106 callgsubr
          endchar
        </CharString>
        <CharString name="OE">
          953 -24 140 -114 130 -129 -21 1411 137 -106 126 hstemhm
          100 249 868 221 462 105 hintmask 00000000
          hintmask 10001110
          100 734 rmoveto
          -469 303 -289 452 vhcurveto
          hintmask 01010110
          75 66 9 17 59 hvcurveto
          904 hlineto
          hintmask 00110110
          151 -20 19 448 rlineto
          -108 hlineto
          hintmask 01010111
          -92 -287 -589 -21 -75 9 115 126 49 197 8 251 rlinecurve
          353 -25 rlineto
          180 vlineto
          -352 -23 -4 234 -38 202 -119 129 rlinecurve
          551 -18 72 -249 105 2 rlineto
          hintmask 10001111
          412 vlineto
          hintmask 10010110
          -143 -19 rlineto
          -809 hlineto
          hintmask 10001110
          13 -52 -59 7 -66 hhcurveto
          -520 -256 -339 -477 hvcurveto
          249 -6 rmoveto
          422 98 274 421 292 57 -279 -322 -389 44 -309 -375 -9 vhcurveto
          -358 -9 -179 277 344 vvcurveto
          endchar
        </CharString>
        <CharString name="Oacute">
          -58 callgsubr
          110 -21 27 callgsubr
          360 475 226 223 hintmask 11010100
          -106 callgsubr
          hintmask 00101000
          450 803 -91 callgsubr
        </CharString>
        <CharString name="Obreve">
          -58 callgsubr
          101 161 27 callgsubr
          192 677 192 223 hintmask 11010100
          -106 callgsubr
          hintmask 00101000
          528 815 -88 callsubr
        </CharString>
        <CharString name="Ocircumflex">
          -58 callgsubr
          118 332 27 callgsubr
          171 718 172 223 hintmask 11010100
          -106 callgsubr
          hintmask 00101000
          239 832 -93 callsubr
        </CharString>
        <CharString name="Odieresis">
          -58 callgsubr
          27 callgsubr
          1061 223 vstemhm
          -106 callgsubr
          738 886 -90 callsubr
        </CharString>
        <CharString name="Ograve">
          -58 callgsubr
          110 -21 27 callgsubr
          245 475 341 223 hintmask 11010100
          -106 callgsubr
          hintmask 00101000
          630 803 -69 callgsubr
        </CharString>
        <CharString name="Ohungarumlaut">
          -58 callgsubr
          50 400 27 callgsubr
          419 868 -226 223 hintmask 11010100
          -106 callgsubr
          hintmask 00101000
          920 764 -64 callgsubr
        </CharString>
        <CharString name="Omacron">
          -58 callgsubr
          297 135 27 callgsubr
          231 598 232 223 hintmask 11010100
          -106 callgsubr
          hintmask 00101000
          231 1011 -38 callgsubr
        </CharString>
        <CharString name="Omega">
          -77 callsubr
        </CharString>
        <CharString name="Oslash">
          436 -20 145 -114 -21 1414 146 -5 -20 27 callgsubr
          1061 223 hintmask 00000000
          hintmask 10101100
          527 -166 rmoveto
          133 hlineto
          hintmask 10011100
          40 156 rlineto
          hintmask 01101100
          -7 43 45 -3 48 hhcurveto
          505 266 411 405 319 -166 310 -342 95 hvcurveto
          40 152 rlineto
          -139 hlineto
          -33 -127 rlineto
          hintmask 10101100
          3 -31 -33 2 -33 hhcurveto
          -505 -265 -413 -405 -309 154 -299 320 -105 hvcurveto
          47 184 rmoveto
          -206 124 -92 256 253 vvcurveto
          156 51 177 107 146 vhcurveto
          53 84 106 36 115 hhcurveto
          50 47 -5 -10 44 hvcurveto
          -185 -1239 rmoveto
          311 1193 rlineto
          228 -117 103 -269 -265 vvcurveto
          -156 -52 -182 -107 -146 vhcurveto
          -49 -84 -106 -34 -115 hhcurveto
          -65 -59 9 16 -54 hvcurveto
          endchar
        </CharString>
        <CharString name="Otilde">
          -58 callgsubr
          126 -35 callgsubr
          27 callgsubr
          138 754 169 223 hintmask 11001010
          -106 callgsubr
          hintmask 00000000
          677 840 -57 callgsubr
          hintmask 00010100
          -87 callsubr
          hintmask 00100100
          -80 callsubr
        </CharString>
        <CharString name="P">
          8 callgsubr
          -57 callsubr
          584 219 hintmask 00000000
          hintmask 11011100
          -48 callsubr
          hintmask 11101100
          -14 callsubr
          hintmask 11011100
          -5 callgsubr
          hintmask 11101100
          25 callsubr
          endchar
        </CharString>
        <CharString name="Q">
          -58 callgsubr
          hstem
          100 223 1061 223 vstem
          100 732 rmoveto
          -384 238 -368 498 99 90 16 29 81 vhcurveto
          31 -44 32 -42 37 -44 104 -122 128 -110 150 -10 45 -3 47 2 46 6 47 4 61 8 47 5 -9 51 rcurveline
          -128 23 -172 120 -173 140 -43 34 -38 36 -36 37 rrcurveto
          214 154 111 264 262 vvcurveto
          384 -239 370 -498 -505 -265 -413 -405 vhcurveto
          223 104 rmoveto
          156 51 177 107 146 vhcurveto
          53 84 106 36 115 hhcurveto
          417 181 -359 -353 -156 -52 -182 -107 -146 hvcurveto
          -49 -84 -106 -34 -115 hhcurveto
          -417 -180 358 353 hvcurveto
          endchar
        </CharString>
        <CharString name="R">
          192 -7 1557 hstem
          110 1370 vstem
          -100 callgsubr
          endchar
        </CharString>
        <CharString name="RS">
          endchar
        </CharString>
        <CharString name="Racute">
          192 -7 1557 110 -21 hstemhm
          110 1370 -927 475 hintmask 10100000
          -100 callgsubr
          hintmask 01010000
          152 843 -91 callgsubr
        </CharString>
        <CharString name="Rcaron">
          192 -7 1557 80 -21 hstemhm
          110 1370 -1116 718 hintmask 10100000
          -100 callgsubr
          hintmask 01010000
          176 813 -81 callsubr
        </CharString>
        <CharString name="Rcommaaccent">
          192 -21 callsubr
          140 1557 hstemhm
          110 1370 -792 307 hintmask 01100000
          -100 callgsubr
          hintmask 10010000
          344 -943 -102 callsubr
        </CharString>
        <CharString name="S">
          64 -24 -29 callgsubr
          hstem
          180 207 635 202 vstem
          -105 callgsubr
          endchar
        </CharString>
        <CharString name="Sacute">
          64 -24 -29 callgsubr
          110 -21 13 callgsubr
          147 475 13 202 hintmask 11010100
          -105 callgsubr
          hintmask 00101000
          421 1140 -91 callgsubr
        </CharString>
        <CharString name="Scaron">
          64 -24 -29 callgsubr
          80 -21 13 callgsubr
          -42 718 -41 202 hintmask 11010100
          -105 callgsubr
          hintmask 00101000
          445 1110 -81 callsubr
        </CharString>
        <CharString name="Scedilla">
          64 -496 141 331 -29 callgsubr
          13 callgsubr
          157 13 callsubr
          107 202 hintmask 00000000
          hintmask 11111010
          159 100 rmoveto
          -67 127 169 -57 137 hhcurveto
          22 hlineto
          -30 -26 -40 -39 -29 vvcurveto
          hintmask 11111110
          -59 callsubr
          200 144 92 148 vhcurveto
          hintmask 11111010
          -29 callsubr
          vhcurveto
          15 37 rlineto
          272 31 212 125 291 540 -837 -211 437 vvcurveto
          113 58 32 30 36 vhcurveto
          26 46 69 9 79 hhcurveto
          96 79 -20 -23 56 hvcurveto
          38 -18 20 -20 14 -61 40 -167 rcurveline
          107 hlineto
          29 396 rlineto
          22 -153 -71 28 -155 hhcurveto
          -283 -306 -117 -295 hvcurveto
          -563 842 189 -416 vvcurveto
          -51 -23 -58 -13 -23 vhcurveto
          -45 -44 -70 -59 -115 hhcurveto
          -132 -158 48 30 -60 hvcurveto
          -13 9 -20 9 -15 59 -42 230 rcurveline
          -114 2 rlineto
          endchar
        </CharString>
        <CharString name="Scircumflex">
          64 -24 -29 callgsubr
          118 332 13 callgsubr
          -42 718 -41 202 hintmask 11010100
          -105 callgsubr
          hintmask 00101000
          210 1169 -93 callsubr
        </CharString>
        <CharString name="Scommaaccent">
          64 -21 callsubr
          123 -29 callgsubr
          13 callgsubr
          133 307 195 202 hintmask 01110100
          -105 callgsubr
          hintmask 10001000
          464 -646 -102 callsubr
        </CharString>
        <CharString name="T">
          94 0 -31 callsubr
          hstemhm
          579 216 hintmask 00000000
          hintmask 11001000
          -71 callsubr
          hintmask 10101000
          -992 hlineto
          hintmask 11001000
          -25 callgsubr
          hintmask 10011000
          92 248 rlineto
          hintmask 11001000
          -30 callsubr
          rrcurveto
          -1106 vlineto
          hintmask 10011000
          26 callsubr
        </CharString>
        <CharString name="Tbar">
          94 0 82 647 120 535 -30 callgsubr
          hstemhm
          579 216 hintmask 00000000
          hintmask 11100100
          354 hmoveto
          674 82 hlineto
          -233 55 rlineto
          592 227 vlineto
          9 120 rlineto
          -236 440 hlineto
          58 4 31 13 19 vhcurveto
          69 -2 105 -4 161 -7 46 -248 rcurveline
          94 hlineto
          26 413 -132 -19 rlineto
          -992 hlineto
          -25 callgsubr
          hintmask 11010100
          92 248 rlineto
          hintmask 11100100
          -30 callsubr
          rrcurveto
          -549 -246 vlineto
          hintmask 11001100
          -9 -120 rlineto
          hintmask 11100100
          255 -437 hlineto
          hintmask 11001100
          26 callsubr
        </CharString>
        <CharString name="Tcaron">
          94 0 -31 callsubr
          101 -21 hstemhm
          323 718 -462 -65 callsubr
          272 1527 -81 callsubr
        </CharString>
        <CharString name="Tcedilla">
          437 -496 141 355 -31 callsubr
          hstemhm
          528 178 -127 216 -78 182 hintmask 00000000
          hintmask 11100100
          354 hmoveto
          272 hlineto
          hintmask 11100001
          -17 -15 -81 -63 -40 vvcurveto
          -59 callsubr
          vhcurveto
          hintmask 11100100
          -22 callsubr
          10 23 12 30 0 vvcurveto
          297 hlineto
          hintmask 11010010
          82 vlineto
          -233 55 rlineto
          1152 vlineto
          hintmask 11100010
          58 4 31 13 19 vhcurveto
          69 -2 105 -4 161 -7 46 -248 rcurveline
          hintmask 11001010
          94 hlineto
          hintmask 11100010
          26 413 -132 -19 rlineto
          hintmask 11001010
          -992 hlineto
          -132 19 -20 -413 rlineto
          hintmask 11100010
          94 hlineto
          92 248 -30 callsubr
          rlinecurve
          -1106 vlineto
          26 callsubr
        </CharString>
        <CharString name="Tcommaaccent">
          94 -21 callsubr
          147 -31 callsubr
          hstemhm
          543 307 -271 216 hintmask 00000000
          hintmask 01100010
          -71 callsubr
          hintmask 01010010
          -992 hlineto
          hintmask 01100010
          -25 callgsubr
          hintmask 01001010
          92 248 rlineto
          hintmask 01100010
          -30 callsubr
          rrcurveto
          -1106 vlineto
          hintmask 01001010
          -16 callgsubr
          hintmask 10000100
          336 -229 -102 callsubr
        </CharString>
        <CharString name="Thorn">
          77 0 82 249 132 664 111 208 82 hstem
          275 216 584 219 vstem
          103 hmoveto
          601 82 hlineto
          -213 55 rlineto
          222 vlineto
          -19 66 115 -9 63 hhcurveto
          289 270 202 285 238 -151 182 -296 -155 -86 -14 -15 -116 hvcurveto
          37 vlineto
          -2 142 29 35 130 23 rrcurveto
          82 -517 -82 vlineto
          144 -56 1 -270 rlineto
          -858 -35 callsubr
          -32 19 -140 -38 vhcurveto
          388 422 rmoveto
          476 vlineto
          80 82 67 151 240 111 -158 -195 -168 -51 -53 -81 -64 vhcurveto
          -159 -45 -180 18 -113 42 rrcurveto
          endchar
        </CharString>
        <CharString name="U">
          -63 callsubr
          -28 callsubr
          740 -42 callsubr
          hintmask 10111000
          -83 callsubr
          hintmask 01111000
          -45 callsubr
          hintmask 01110100
          0 callgsubr
          hintmask 10111000
          -105 callsubr
          endchar
        </CharString>
        <CharString name="US">
          endchar
        </CharString>
        <CharString name="Uacute">
          -63 callsubr
          130 -21 -28 callsubr
          168 475 97 -42 callsubr
          hintmask 10101010
          -83 callsubr
          hintmask 01101010
          -45 callsubr
          hintmask 01101001
          0 callgsubr
          hintmask 10101010
          -105 callsubr
          hintmask 00010100
          473 249 -91 callgsubr
        </CharString>
        <CharString name="Ubreve">
          -63 callsubr
          121 161 -28 callsubr
          0 677 63 -42 callsubr
          hintmask 10101010
          -83 callsubr
          hintmask 01101010
          -45 callsubr
          hintmask 01101001
          0 callgsubr
          hintmask 10101010
          -105 callsubr
          hintmask 00010100
          551 261 -88 callsubr
        </CharString>
        <CharString name="Ucircumflex">
          -63 callsubr
          138 332 -28 callsubr
          -21 718 43 -42 callsubr
          hintmask 10101010
          -83 callsubr
          hintmask 01101010
          -45 callsubr
          hintmask 01101001
          0 callgsubr
          hintmask 10101010
          -105 callsubr
          hintmask 00010100
          262 278 -93 callsubr
        </CharString>
        <CharString name="Udieresis">
          -63 callsubr
          -28 callsubr
          740 -42 callsubr
          hintmask 10111000
          -83 callsubr
          hintmask 01111000
          -45 callsubr
          hintmask 01110100
          0 callgsubr
          hintmask 10111000
          -105 callsubr
          hintmask 00000000
          761 332 -90 callsubr
        </CharString>
        <CharString name="Ugrave">
          -63 callsubr
          130 -21 -28 callsubr
          53 475 212 -42 callsubr
          hintmask 10101010
          -83 callsubr
          hintmask 01101010
          -45 callsubr
          hintmask 01101001
          0 callgsubr
          hintmask 10101010
          -105 callsubr
          hintmask 00010100
          653 249 -69 callgsubr
        </CharString>
        <CharString name="Uhungarumlaut">
          -63 callsubr
          70 400 -28 callsubr
          65 868 -193 -42 callsubr
          hintmask 10101010
          -83 callsubr
          hintmask 01101010
          -45 callsubr
          hintmask 01101001
          0 callgsubr
          hintmask 10101010
          -105 callsubr
          hintmask 00010100
          781 210 -64 callgsubr
        </CharString>
        <CharString name="Umacron">
          -63 callsubr
          317 135 -28 callsubr
          39 598 103 -42 callsubr
          hintmask 10101010
          -83 callsubr
          hintmask 01101010
          -45 callsubr
          hintmask 01101001
          0 callgsubr
          hintmask 10101010
          -105 callsubr
          hintmask 00010100
          254 457 -38 callgsubr
        </CharString>
        <CharString name="Uogonek">
          395 4 callgsubr
          313 191 -171 -46 callgsubr
          -28 callsubr
          627 171 -58 216 -201 367 -82 69 -26 callgsubr
          hintmask 1101101010000000
          -83 callsubr
          1 -63 3 -84 2 -42 -65 -72 -62 -104 -9 -85 rrcurveto
          -157 -17 95 -108 174 hhcurveto
          94 86 -60 callgsubr
          hintmask 1011110010000000
          -40 -79 23 106 12 hvcurveto
          6 51 16 71 57 82 rrcurveto
          hintmask 1011100100000000
          245 82 hlineto
          hintmask 1101101010000000
          -146 55 -16 151 0 73 -4 391 rlinecurve
          514 -27 callsubr
          83 -10 70 30 vhcurveto
          84 vlineto
          hintmask 1101110010000000
          4 callsubr
          hlineto
          hintmask 1101101010000000
          113 -56 rlineto
          -1046 vlineto
          -118 -134 -135 -55 -180 hhcurveto
          -236 -55 117 282 hvcurveto
          253 vlineto
          493 -3 109 28 105 vhcurveto
          -391 -84 hlineto
          151 -56 rlineto
          endchar
        </CharString>
        <CharString name="Uring">
          -63 callsubr
          -70 92 306 89 -28 callsubr
          85 -6 callgsubr
          150 216 -194 360 -26 callgsubr
          hintmask 1010010010000000
          -83 callsubr
          hintmask 0110010010000000
          -45 callsubr
          hintmask 0110010001000000
          0 callgsubr
          hintmask 1010010010000000
          -105 callsubr
          hintmask 0001101100000000
          553 70 -84 callgsubr
        </CharString>
        <CharString name="Utilde">
          -63 callsubr
          146 -35 callgsubr
          -28 callsubr
          -54 754 40 216 -194 360 -26 callgsubr
          hintmask 1010010100000000
          -83 callsubr
          hintmask 0110010100000000
          -45 callsubr
          hintmask 0110010010000000
          0 callgsubr
          hintmask 1010010100000000
          -105 callsubr
          -26 callgsubr
          700 286 -57 callgsubr
          hintmask 0000101000000000
          -87 callsubr
          hintmask 0001001000000000
          -80 callsubr
        </CharString>
        <CharString name="V">
          265 -3 -21 1472 82 hstem
          -41 1606 vstem
          692 -24 rmoveto
          193 54 500 1369 49 22 62 8 69 19 rlinecurve
          82 -549 -82 vlineto
          185 -45 -398 -1184 -417 1118 22 69 42 14 103 28 rlinecurve
          82 -594 -82 vlineto
          163 -48 64 -162 2 -1 rlineto
          endchar
        </CharString>
        <CharString name="W">
          3 callsubr
          hstem
          -10 2277 vstem
          -98 callgsubr
          endchar
        </CharString>
        <CharString name="Wacute">
          3 callsubr
          130 -21 hstemhm
          -10 2277 -1321 475 hintmask 10100000
          -98 callgsubr
          hintmask 01010000
          882 246 -91 callgsubr
        </CharString>
        <CharString name="Wcircumflex">
          3 callsubr
          138 332 hstemhm
          -10 2277 -1510 718 hintmask 10100000
          -98 callgsubr
          hintmask 01010000
          671 275 -93 callsubr
        </CharString>
        <CharString name="Wdieresis">
          3 callsubr
          hstemhm
          -10 2277 vstemhm
          -98 callgsubr
          1170 329 -90 callsubr
        </CharString>
        <CharString name="Wgrave">
          3 callsubr
          130 -21 hstemhm
          -10 2277 -1436 475 hintmask 10100000
          -98 callgsubr
          hintmask 01010000
          1062 246 -69 callgsubr
        </CharString>
        <CharString name="X">
          262 0 82 1366 82 hstem
          42 1455 vstem
          42 hmoveto
          573 82 hlineto
          -192 22 -21 45 57 99 270 383 rcurveline
          356 -527 -79 -22 rlineto
          -82 491 82 vlineto
          -69 19 -53 24 -49 14 -461 645 rcurveline
          340 481 5 4 86 120 66 47 128 12 rlinecurve
          82 -502 -82 vlineto
          149 -52 -347 -503 -299 445 rlineto
          68 -28 39 42 123 hhcurveto
          82 -581 -82 vlineto
          154 -55 9 -11 446 -640 -380 -514 -86 -91 -145 -55 rlineto
          endchar
        </CharString>
        <CharString name="Y">
          -17 callsubr
          hstem
          649 216 vstem
          -92 callgsubr
          endchar
        </CharString>
        <CharString name="Yacute">
          -17 callsubr
          130 -21 hstemhm
          603 475 -429 216 hintmask 11001000
          -92 callgsubr
          hintmask 00110000
          286 1556 -91 callgsubr
        </CharString>
        <CharString name="Ycircumflex">
          -17 callsubr
          138 332 hstemhm
          405 718 -474 216 hintmask 11001000
          -92 callgsubr
          hintmask 00110000
          66 1585 -93 callsubr
        </CharString>
        <CharString name="Ydieresis">
          -17 callsubr
          hstemhm
          649 216 vstemhm
          -92 callgsubr
          574 1639 -90 callsubr
        </CharString>
        <CharString name="Ygrave">
          -17 callsubr
          130 -21 hstemhm
          488 475 -314 216 hintmask 11001000
          -92 callgsubr
          hintmask 00110000
          466 1556 -69 callgsubr
        </CharString>
        <CharString name="Z">
          96 -18 1567 hstem
          78 1208 vstem
          -83 callgsubr
          endchar
        </CharString>
        <CharString name="Zacute">
          96 -18 1567 111 -21 hstemhm
          78 1208 -774 475 hintmask 10100000
          -83 callgsubr
          hintmask 01010000
          524 1552 -91 callgsubr
        </CharString>
        <CharString name="Zcaron">
          96 -18 1567 81 -21 hstemhm
          78 1208 -963 718 hintmask 10100000
          -83 callgsubr
          hintmask 01010000
          548 1522 -81 callsubr
        </CharString>
        <CharString name="Zdotaccent">
          96 -18 1567 171 278 hstemhm
          78 1208 -756 305 hintmask 10100000
          -83 callgsubr
          hintmask 01010000
          592 1633 -93 callgsubr
        </CharString>
        <CharString name="a">
          -51 callsubr
          hstem
          103 220 387 210 vstem
          -107 callgsubr
          endchar
        </CharString>
        <CharString name="aacute">
          -51 callsubr
          14 callsubr
          103 220 87 495 -195 210 hintmask 11010100
          -107 callgsubr
          hintmask 00101000
          177 885 -92 callsubr
        </CharString>
        <CharString name="abreve">
          -51 callsubr
          145 -7 callgsubr
          103 220 -142 677 -148 210 hintmask 11001010
          -107 callgsubr
          hintmask 00110100
          194 908 -89 callgsubr
        </CharString>
        <CharString name="acircumflex">
          -51 callsubr
          187 416 hstemhm
          103 220 -163 718 -168 210 hintmask 11010100
          -107 callgsubr
          hintmask 00101000
          -75 950 rmoveto
          -96 callsubr
        </CharString>
        <CharString name="acute">
          11 callgsubr
          204 1164 -92 callsubr
        </CharString>
        <CharString name="acute.cap">
          16 callsubr
          204 1639 -91 callgsubr
        </CharString>
        <CharString name="adieresis">
          -51 callsubr
          225 278 hstemhm
          103 220 -159 -16 callsubr
          -162 210 hintmask 11010010
          -107 callgsubr
          hintmask 00101100
          446 994 -98 callsubr
        </CharString>
        <CharString name="ae">
          -4 callsubr
          hstemhm
          103 220 387 217 434 225 hintmask 00000000
          hintmask 01101111
          -11 callgsubr
          hintmask 10101111
          -62 callsubr
          hintmask 01110111
          2 callgsubr
          hintmask 01101111
          -61 callgsubr
          endchar
        </CharString>
        <CharString name="aeacute">
          -4 callsubr
          14 callsubr
          103 220 387 217 -120 495 59 225 -26 callgsubr
          hintmask 0110101101000000
          -11 callgsubr
          hintmask 1010101101000000
          -62 callsubr
          hintmask 0111001101000000
          2 callgsubr
          hintmask 0110101101000000
          -61 callgsubr
          hintmask 0000010010000000
          574 885 -92 callsubr
        </CharString>
        <CharString name="agrave">
          -51 callsubr
          14 callsubr
          103 220 -190 495 82 210 hintmask 11010100
          -107 callgsubr
          hintmask 00101000
          215 885 -74 callsubr
        </CharString>
        <CharString name="amacron">
          -51 callsubr
          225 145 hstemhm
          103 220 -103 598 -108 210 hintmask 11010100
          -107 callgsubr
          hintmask 00101000
          -103 988 -39 callsubr
        </CharString>
        <CharString name="ampersand">
          432 -38 144 -136 151 815 94 420 97 hstemhm
          130 224 -3 190 379 192 239 198 hintmask 00000000
          hintmask 01111011
          130 391 rmoveto
          hintmask 10111011
          -236 206 -193 330 156 147 61 92 127 vhcurveto
          hintmask 01110111
          -60 66 113 -85 107 hhcurveto
          151 86 88 0 hvcurveto
          -1 71 rlineto
          -4 -54 -37 -4 -33 hhcurveto
          -82 -46 19 119 -110 hvcurveto
          180 194 113 246 162 vvcurveto
          101 -47 68 -107 vhcurveto
          -166 hlineto
          1 -94 131 -7 -4 -74 -11 -104 rlinecurve
          -14 -133 -67 -145 -93 -120 -23 28 rcurveline
          -161 189 -108 133 -116 143 rrcurveto
          -1 0 1 0 hvcurveto
          171 86 178 89 245 vvcurveto
          161 -156 119 -199 -293 -108 -203 -129 -5 vhcurveto
          -5 -141 55 -116 82 -107 7 -10 8 -10 9 -10 rrcurveto
          hintmask 01111011
          -189 -87 -187 -105 -1 -238 rrcurveto
          hintmask 10111011
          574 526 rmoveto
          -85 101 -82 105 4 132 rrcurveto
          99 4 54 96 140 hhcurveto
          86 95 -67 -151 -130 -89 -108 -127 -77 hvcurveto
          hintmask 01110111
          -350 -489 rmoveto
          136 116 101 103 73 vhcurveto
          150 -184 218 -259 76 -94 rrcurveto
          -59 -80 -87 -36 -84 hhcurveto
          -176 -236 79 243 hvcurveto
          endchar
        </CharString>
        <CharString name="aogonek">
          -172 4 callgsubr
          313 148 793 121 hstemhm
          103 220 321 174 -108 -50 callgsubr
          hintmask 11110100
          103 254 rmoveto
          -190 159 -84 138 140 52 44 106 128 vhcurveto
          -94 32 -48 79 -7 vhcurveto
          -83 -53 -76 -79 -21 -92 rrcurveto
          hintmask 11111000
          -148 -36 102 -107 146 hhcurveto
          95 85 -60 callgsubr
          -24 -70 29 100 27 hvcurveto
          20 71 73 85 137 75 19 8 rcurveline
          83 vlineto
          hintmask 11110100
          6 -153 -16 71 vvcurveto
          575 vlineto
          220 -92 68 -239 -59 -219 -78 -58 -132 vhcurveto
          -21 -206 rlineto
          160 hlineto
          148 45 35 73 127 hhcurveto
          180 -3 5 -67 -74 vvcurveto
          -153 vlineto
          -539 -127 -68 -74 -169 vvcurveto
          220 25 rmoveto
          186 242 3 145 54 vhcurveto
          -297 vlineto
          -53 -56 -73 -44 -71 hhcurveto
          -105 -82 44 107 hvcurveto
          endchar
        </CharString>
        <CharString name="approxequal">
          -77 201 162 -24 168 217 15 callgsubr
          hintmask 00101000
          175 757 rmoveto
          hintmask 00011000
          97 -34 rlineto
          hintmask 00101000
          -54 callsubr
          hintmask 00011000
          -32 callgsubr
          hintmask 00000000
          -523 vmoveto
          hintmask 10001000
          97 -34 rlineto
          hintmask 01001000
          -54 callsubr
          hintmask 10001000
          -32 callgsubr
          endchar
        </CharString>
        <CharString name="aring">
          -51 callsubr
          126 92 306 89 hstemhm
          103 220 -56 -6 callgsubr
          -62 210 hintmask 11001001
          -107 callgsubr
          hintmask 00110110
          197 889 -84 callgsubr
        </CharString>
        <CharString name="asciicircum">
          -77 1530 -20 hstem
          136 921 vstem
          136 510 rmoveto
          160 hlineto
          300 801 311 -801 rlineto
          150 hlineto
          -362 1020 rlineto
          -193 hlineto
          endchar
        </CharString>
        <CharString name="asciitilde">
          -77 447 15 callgsubr
          hintmask 10100000
          175 480 rmoveto
          hintmask 01100000
          97 -34 rlineto
          hintmask 10100000
          -54 callsubr
          hintmask 01100000
          -32 callgsubr
          endchar
        </CharString>
        <CharString name="asterisk">
          33 1055 -20 501 -20 hstem
          192 931 vstem
          551 1055 rmoveto
          53 92 rlineto
          106 hlineto
          54 -92 -54 -92 317 -231 95 163 -358 160 359 158 -95 163 -318 -229 43 389 rlineto
          -189 hlineto
          40 -389 -316 229 -94 -162 rlineto
          92 -481 rmoveto
          318 230 -53 92 -359 -159 rlineto
          371 -321 rmoveto
          188 hlineto
          -41 388 rlineto
          -106 hlineto
          endchar
        </CharString>
        <CharString name="at">
          560 -176 117 260 204 -195 140 659 129 265 94 hstemhm
          123 152 254 178 961 138 hintmask 00000000
          hintmask 10111111
          123 558 rmoveto
          -499 347 -235 434 170 173 28 72 152 vhcurveto
          -6 82 rlineto
          -45 -128 -144 -20 -138 hhcurveto
          -418 -290 195 465 430 343 372 465 318 267 -199 -345 -245 -107 -264 -253 -29 -49 10 50 6 hvcurveto
          29 269 62 190 62 268 -92 14 rcurveline
          -60 -63 -21 7 -23 12 -20 9 rlinecurve
          13 -32 -32 9 -25 hhcurveto
          -299 -252 -318 -359 -4 hvcurveto
          hintmask 11011111
          -119 -1 55 -141 108 hhcurveto
          60 245 151 66 78 hvcurveto
          hintmask 10111111
          -17 -61 -14 -40 8 -59 rrcurveto
          -26 3 20 -22 47 hhcurveto
          58 21 1 4 57 hvcurveto
          319 31 232 285 -2 348 rrcurveto
          443 -3 -332 175 -386 hhcurveto
          -530 -432 -388 -551 hvcurveto
          hintmask 11011111
          584 -31 rmoveto
          162 153 440 207 -151 vhcurveto
          31 -20 24 -23 29 -32 -33 -178 -10 -11 -38 -176 rrcurveto
          -43 -41 -153 -90 -63 hhcurveto
          -83 -23 36 86 hvcurveto
          endchar
        </CharString>
        <CharString name="atilde">
          -51 callsubr
          234 -35 callgsubr
          -10 -20 hstemhm
          103 220 -178 754 -189 210 hintmask 11000101
          -107 callgsubr
          hintmask 00000000
          361 997 -57 callgsubr
          hintmask 00010010
          -87 callsubr
          hintmask 00101010
          -80 callsubr
        </CharString>
        <CharString name="b">
          21 callgsubr
          139 -21 hstem
          181 212 522 214 vstem
          179 -67 callgsubr
          endchar
        </CharString>
        <CharString name="backslash">
          -421 -166 1838 hstem
          119 612 vstem
          258 1672 rmoveto
          -139 hlineto
          479 -1838 rlineto
          133 hlineto
          endchar
        </CharString>
        <CharString name="bar">
          -757 -360 2102 hstem
          183 146 vstem
          183 -360 rmoveto
          146 2102 hlineto
          -146 -8 rlineto
          endchar
        </CharString>
        <CharString name="braceleft">
          -417 -350 2151 hstem
          53 159 131 192 vstem
          340 118 rmoveto
          -318 124 -123 314 -27 vhcurveto
          97 vlineto
          -71 16 -68 31 -71 56 rrcurveto
          -37 149 4 52 145 vvcurveto
          77 0 66 -4 53 vhcurveto
          -4 56 -8 42 -18 31 -37 70 -58 99 -194 36 rrcurveto
          5 vlineto
          194 36 58 93 37 70 18 31 8 42 4 56 rrcurveto
          4 53 0 36 77 vvcurveto
          145 -4 82 37 149 vhcurveto
          71 56 68 31 71 16 rrcurveto
          97 vlineto
          -314 -27 -124 -123 -318 vvcurveto
          -227 56 -292 -343 -30 vhcurveto
          -117 vlineto
          343 -30 -56 -217 -302 vvcurveto
          endchar
        </CharString>
        <CharString name="braceright">
          -417 -350 2151 hstem
          318 192 131 159 vstem
          513 118 rmoveto
          302 -56 217 343 30 vhcurveto
          117 vlineto
          -343 30 56 292 227 vvcurveto
          318 -124 123 -314 27 vhcurveto
          -97 vlineto
          71 -16 68 -31 71 -56 rrcurveto
          37 -149 -4 -82 -145 vvcurveto
          -77 0 -36 4 -53 vhcurveto
          4 -56 8 -42 18 -31 37 -70 58 -93 194 -36 rrcurveto
          -5 vlineto
          -194 -36 -58 -99 -37 -70 -18 -31 -8 -42 -4 -56 rrcurveto
          -4 -53 0 -66 -77 vvcurveto
          -145 4 -52 -37 -149 vhcurveto
          -71 -56 -68 -31 -71 -16 rrcurveto
          -97 vlineto
          314 27 124 123 318 vvcurveto
          endchar
        </CharString>
        <CharString name="bracketleft">
          9 callsubr
          170 155 vstem
          170 -355 rmoveto
          345 113 hlineto
          -190 14 rlineto
          1868 vlineto
          190 38 rlineto
          120 -345 vlineto
          endchar
        </CharString>
        <CharString name="bracketright">
          9 callsubr
          360 155 vstem
          515 1798 rmoveto
          -345 -120 hlineto
          190 -38 rlineto
          -1868 vlineto
          -190 -14 rlineto
          -113 345 vlineto
          endchar
        </CharString>
        <CharString name="breve">
          -363 1187 168 214 -20 hstem
          115 677 vstem
          451 1187 -89 callgsubr
        </CharString>
        <CharString name="breve.cap">
          -363 1651 161 hstem
          115 677 vstem
          451 1651 -88 callsubr
        </CharString>
        <CharString name="brokenbar">
          -757 -360 2100 hstem
          183 146 vstem
          183 851 rmoveto
          146 889 hlineto
          -146 -8 rlineto
          -2092 vmoveto
          146 871 hlineto
          -146 -8 rlineto
          endchar
        </CharString>
        <CharString name="bullet">
          -247 526 476 hstem
          275 472 vstem
          510 526 rmoveto
          134 103 111 126 126 -103 113 -134 -132 -103 -113 -126 -126 103 -111 132 hvcurveto
          endchar
        </CharString>
        <CharString name="c">
          -25 callsubr
          hstem
          90 201 vstem
          -96 callgsubr
          endchar
        </CharString>
        <CharString name="cacute">
          -25 callsubr
          14 callsubr
          90 201 190 495 hintmask 11010000
          -96 callgsubr
          hintmask 00101000
          481 703 -92 callsubr
        </CharString>
        <CharString name="caron">
          -324 1540 -20 hstem
          114 718 vstem
          417 1184 -85 callgsubr
        </CharString>
        <CharString name="caron.cap">
          -324 1630 -21 hstem
          114 718 vstem
          417 1609 -81 callsubr
        </CharString>
        <CharString name="caronvertical">
          -771 237 1086 -68 callgsubr
        </CharString>
        <CharString name="ccaron">
          -25 callsubr
          538 -20 hstemhm
          90 201 -60 718 hintmask 11010000
          -96 callgsubr
          hintmask 00101000
          444 763 -85 callgsubr
        </CharString>
        <CharString name="ccedilla">
          -244 -496 141 335 172 -137 -21 901 147 hstemhm
          90 201 84 13 callsubr
          hintmask 00000000
          hintmask 11011000
          375 -118 rmoveto
          hintmask 10111100
          -74 179 -51 10 -42 vhcurveto
          -36 7 -31 -34 -82 hhcurveto
          hintmask 11011010
          -23 callgsubr
          14 34 rlineto
          hintmask 11011100
          -1 11 10 0 11 hhcurveto
          22 176 64 90 148 hvcurveto
          -33 84 rlineto
          -28 -84 -158 -38 -40 hhcurveto
          -250 -92 197 213 66 45 193 80 53 hvcurveto
          13 46 52 8 44 hhcurveto
          69 63 -9 -15 65 hvcurveto
          15 -4 7 -38 35 -144 rrcurveto
          94 hlineto
          3 31 275 26 4 hvcurveto
          37 -93 -108 19 -93 hhcurveto
          -294 -266 -209 -372 -266 155 -157 220 -44 hvcurveto
          hintmask 11011000
          -26 -22 -64 -54 -36 vvcurveto
          endchar
        </CharString>
        <CharString name="ccircumflex">
          -25 callsubr
          187 416 hstemhm
          90 201 -60 718 hintmask 11010000
          -96 callgsubr
          hintmask 00101000
          229 768 rmoveto
          -96 callsubr
        </CharString>
        <CharString name="cdotaccent">
          -25 callsubr
          28 callgsubr
          90 201 146 305 hintmask 11010000
          -96 callgsubr
          hintmask 00101000
          487 806 -85 callsubr
        </CharString>
        <CharString name="cedilla">
          -535 -496 141 355 20 hstemhm
          250 13 callsubr
          hintmask 00000000
          hintmask 11110000
          397 20 rmoveto
          -49 -20 rlineto
          hintmask 11010000
          -17 -15 -81 -63 -40 vvcurveto
          -59 callsubr
          vhcurveto
          hintmask 11110000
          -22 callsubr
          10 23 12 30 0 vvcurveto
          endchar
        </CharString>
        <CharString name="cent">
          -219 -20 172 -150 -21 35 -21 1046 -20 hstemhm
          93 201 hintmask 00000000
          hintmask 00111000
          463 -5 rmoveto
          -25 -242 rlineto
          hintmask 01011000
          114 hlineto
          23 228 rlineto
          10 10 -1 10 hhcurveto
          hintmask 10011000
          22 176 64 90 148 hvcurveto
          -33 84 rlineto
          -28 -84 -158 -38 -40 hhcurveto
          -15 -14 0 2 -14 hvcurveto
          76 734 30 -4 29 -6 30 -7 rlinecurve
          15 -4 7 -38 35 -144 rrcurveto
          84 hlineto
          3 31 275 26 4 hvcurveto
          -83 33 -86 18 -83 4 25 243 rcurveline
          -114 hlineto
          -26 -248 rlineto
          hintmask 00111000
          -259 -33 -218 -191 -336 vvcurveto
          -270 153 -163 217 -48 vhcurveto
          19 188 rmoveto
          -135 64 -53 152 166 vvcurveto
          66 41 190 80 53 vhcurveto
          13 45 52 8 44 hhcurveto
          endchar
        </CharString>
        <CharString name="circumflex">
          -324 1189 416 hstem
          114 718 vstem
          202 1189 rmoveto
          -96 callsubr
        </CharString>
        <CharString name="circumflex.cap">
          -324 1668 332 hstem
          114 718 vstem
          182 1668 -93 callsubr
        </CharString>
        <CharString name="colon">
          -694 -9 -21 725 -21 hstemhm
          140 296 hintmask 10100000
          140 115 rmoveto
          -77 callgsubr
          hintmask 01100000
          704 vmoveto
          -77 callgsubr
          endchar
        </CharString>
        <CharString name="comma">
          -694 -5 -21 hstem
          110 346 vstem
          148 -26 -42 callgsubr
        </CharString>
        <CharString name="commaaccent">
          -734 -21 callsubr
          hstem
          115 307 vstem
          262 -147 -102 callsubr
        </CharString>
        <CharString name="copyright">
          539 -33 93 235 143 701 115 239 94 hstem
          115 138 203 168 943 138 vstem
          -40 callsubr
          138 hmoveto
          373 272 344 385 vhcurveto
          23 callgsubr
          -373 -272 -345 -385 -385 -272 326 390 vhcurveto
          203 -21 rmoveto
          -238 162 -222 321 20 50 -3 148 221 vhcurveto
          -38 75 rlineto
          -32 -79 -97 -45 -23 hhcurveto
          -209 -160 140 242 118 38 103 79 77 hvcurveto
          -20 callgsubr
          144 -18 95 -42 33 -167 rcurveline
          71 hlineto
          27 267 rlineto
          0 -156 58 -174 -306 -159 -248 -251 vhcurveto
          endchar
        </CharString>
        <CharString name="currency">
          57 232 145 687 146 hstem
          187 141 668 143 vstem
          207 138 rmoveto
          180 184 rlineto
          -56 77 95 -34 103 hhcurveto
          103 95 34 57 78 hvcurveto
          180 -185 104 110 -175 185 rlineto
          58 82 34 99 107 vvcurveto
          106 -35 101 -59 82 vhcurveto
          177 186 -104 111 -182 -187 rlineto
          56 -77 -94 34 -103 hhcurveto
          -102 -93 -34 -55 -77 hvcurveto
          -179 186 -105 -111 175 -184 rlineto
          -59 -83 -35 -101 -107 vvcurveto
          -108 34 -100 59 -82 vhcurveto
          -175 -183 rlineto
          557 129 rmoveto
          -186 -148 157 187 186 148 157 186 187 147 -157 -186 -187 -147 -157 -187 hvcurveto
          endchar
        </CharString>
        <CharString name="d">
          -87 -18 callgsubr
          603 -21 hstemhm
          90 214 522 -50 callgsubr
          hintmask 10111100
          -5 callsubr
          hintmask 01111100
          -78 callgsubr
          hintmask 10111100
          -73 callgsubr
          endchar
        </CharString>
        <CharString name="dagger">
          44 1027 15 callsubr
          hintmask 10100000
          160 1027 rmoveto
          441 46 rlineto
          116 116 vlineto
          hintmask 11000000
          45 460 rlineto
          hintmask 10100000
          -206 hlineto
          hintmask 11000000
          45 -460 -441 42 rlineto
          557 -158 rmoveto
          438 -46 rlineto
          204 vlineto
          -438 -42 rlineto
          -161 -1487 rmoveto
          -5 205 5 vlineto
          -44 1371 rlineto
          -116 hlineto
          endchar
        </CharString>
        <CharString name="daggerdbl">
          44 57 116 854 15 callsubr
          hintmask 11010000
          160 1027 rmoveto
          441 53 rlineto
          116 116 vlineto
          45 453 rlineto
          hintmask 11100000
          -206 hlineto
          45 -453 -441 35 rlineto
          557 -151 rmoveto
          438 -53 rlineto
          204 vlineto
          hintmask 11010000
          -438 -35 rlineto
          hintmask 11100000
          -116 -1023 rmoveto
          116 -116 hlineto
          438 -53 rlineto
          204 vlineto
          -438 -35 44 448 rlineto
          5 vlineto
          -44 454 rlineto
          -116 hlineto
          -45 -454 rlineto
          -5 vlineto
          -396 -617 rmoveto
          441 53 rlineto
          116 vlineto
          -441 35 rlineto
          441 -151 rmoveto
          -45 -458 rlineto
          206 hlineto
          -45 458 rlineto
          endchar
        </CharString>
        <CharString name="dcaron">
          40 -18 callgsubr
          603 -21 hstemhm
          114 214 522 -50 callgsubr
          hintmask 10111100
          114 -50 callsubr
          hintmask 01111100
          -78 callgsubr
          hintmask 10111100
          -73 callgsubr
          hintmask 00000000
          728 944 -68 callgsubr
        </CharString>
        <CharString name="dcroat">
          -87 -18 callgsubr
          120 125 358 -21 hstemhm
          90 214 522 -50 callgsubr
          hintmask 10111110
          -5 callsubr
          -74 9 -73 0 vhcurveto
          327 82 hlineto
          -46 13 -58 29 -17 18 rrcurveto
          -6 10 -5 19 11 vvcurveto
          hintmask 01111110
          980 133 125 -133 3 vlineto
          3 143 1 47 13 144 -38 21 rcurveline
          -117 -53 -71 -26 -175 -39 rrcurveto
          -73 vlineto
          40 -8 26 -5 27 -14 66 -34 13 -47 2 -59 rrcurveto
          -285 -125 285 -145 hlineto
          10 -58 -76 15 -76 hhcurveto
          -147 -168 -71 -138 -102 hvcurveto
          hintmask 10111110
          -73 callgsubr
          endchar
        </CharString>
        <CharString name="degree">
          -247 836 132 470 131 hstem
          144 151 432 151 vstem
          511 836 rmoveto
          218 149 170 197 198 -149 168 -218 -218 -149 -170 -197 -198 149 -168 218 hvcurveto
          132 vmoveto
          -139 -77 115 119 119 77 117 139 hvcurveto
          139 -1 77 -115 -119 vvcurveto
          -119 -77 -116 -139 vhcurveto
          endchar
        </CharString>
        <CharString name="dieresis">
          -332 1247 278 hstem
          115 -16 callsubr
          vstem
          720 1253 -98 callsubr
        </CharString>
        <CharString name="dieresis.cap">
          -333 1722 278 hstemhm
          114 271 167 271 hintmask 00000000
          hintmask 11100000
          677 1722 -90 callsubr
        </CharString>
        <CharString name="divide">
          -102 82 285 172 163 hstem
          459 250 vstem
          581 874 rmoveto
          72 56 68 73 72 -56 68 -72 -73 -49 -68 -72 -70 52 -71 70 hvcurveto
          -412 -335 rmoveto
          830 163 -830 hlineto
          290 -479 rmoveto
          -72 49 -69 73 75 53 69 72 73 -53 71 -75 -70 -52 -71 -73 vhcurveto
          endchar
        </CharString>
        <CharString name="dollar">
          58 -24 140 -117 -21 30 -21 1433 142 -7 -20 27 -20 hstemhm
          170 207 265 109 -103 109 255 202 -26 callgsubr
          hintmask 0010011101000000
          149 100 rmoveto
          -67 127 169 -57 137 hhcurveto
          19 20 1 1 19 hvcurveto
          -197 vlineto
          hintmask 0011001011000000
          109 206 hlineto
          263 34 202 126 284 vvcurveto
          290 -237 78 -222 75 vhcurveto
          4 546 51 -5 45 -10 35 -14 rlinecurve
          38 -18 20 -20 14 -61 40 -176 rcurveline
          107 hlineto
          29 396 rlineto
          hintmask 0010101011000000
          22 -153 -71 28 -155 hhcurveto
          206 vlineto
          hintmask 1000011101000000
          -109 -213 hlineto
          -247 -28 -233 -127 -257 vvcurveto
          -307 247 -85 227 -81 vhcurveto
          -4 -554 -102 10 -96 23 -45 23 rlinecurve
          -13 9 -20 9 -15 59 rrcurveto
          hintmask 0100011101000000
          -42 248 -114 2 rlineto
          453 414 rmoveto
          -149 57 -120 73 166 vvcurveto
          hintmask 0010011011000000
          113 54 25 30 36 vhcurveto
          44 27 69 14 76 1 rrcurveto
          hintmask 0100011101000000
          99 -1313 rmoveto
          hintmask 0010011101000000
          4 518 rlineto
          144 -57 115 -72 -153 vvcurveto
          -71 -16 -30 -18 -23 vhcurveto
          -43 -44 -78 -64 -108 -4 rrcurveto
          endchar
        </CharString>
        <CharString name="dotaccent">
          -737 1545 -20 hstem
          114 305 vstem
          254 1267 -85 callsubr
        </CharString>
        <CharString name="dotaccent.cap">
          -737 1720 278 hstem
          114 305 vstem
          254 1720 -93 callgsubr
        </CharString>
        <CharString name="dotlessi">
          -40 callgsubr
          hstem
          260 210 vstem
          86 hmoveto
          -101 callsubr
          endchar
        </CharString>
        <CharString name="dotlessj">
          -604 22 callgsubr
          hstem
          262 210 vstem
          262 25 -78 callsubr
          endchar
        </CharString>
        <CharString name="e">
          -59 callgsubr
          hstem
          91 208 434 225 vstem
          -107 callsubr
          endchar
        </CharString>
        <CharString name="eacute">
          -59 callgsubr
          14 callsubr
          91 208 162 495 -223 225 hintmask 11101010
          -107 callsubr
          hintmask 00010100
          252 541 -92 callsubr
        </CharString>
        <CharString name="ebreve">
          -59 callgsubr
          145 -7 callgsubr
          91 208 -65 677 -178 225 hintmask 11100101
          -107 callsubr
          hintmask 00011010
          271 564 -89 callgsubr
        </CharString>
        <CharString name="ecaron">
          -59 callgsubr
          538 -20 hstemhm
          91 208 -88 718 -196 225 hintmask 11101010
          -107 callsubr
          hintmask 00010100
          215 601 -85 callgsubr
        </CharString>
        <CharString name="ecircumflex">
          -59 callgsubr
          187 416 hstemhm
          91 208 -88 718 -196 225 hintmask 11101010
          -107 callsubr
          hintmask 00010100
          606 vmoveto
          -96 callsubr
        </CharString>
        <CharString name="edieresis">
          -59 callgsubr
          225 278 hstemhm
          91 208 -84 -16 callsubr
          -190 225 hintmask 11101001
          -107 callsubr
          hintmask 00010110
          521 650 -98 callsubr
        </CharString>
        <CharString name="edotaccent">
          -59 callgsubr
          28 callgsubr
          91 208 118 305 11 225 hintmask 11101010
          -107 callsubr
          hintmask 00010100
          258 644 -85 callsubr
        </CharString>
        <CharString name="egrave">
          -59 callgsubr
          14 callsubr
          91 208 -115 495 54 225 hintmask 11101010
          -107 callsubr
          hintmask 00010100
          290 541 -74 callsubr
        </CharString>
        <CharString name="eight">
          -76 -30 112 1191 108 hstemhm
          152 196 -148 193 460 194 -156 194 hintmask 00000000
          hintmask 11101000
          152 302 rmoveto
          -226 212 -106 237 vhcurveto
          hintmask 11100100
          243 241 145 240 180 -181 112 -161 67 hvcurveto
          hintmask 11011000
          165 91 139 82 187 vvcurveto
          231 -206 76 -207 -200 -234 -148 -216 -172 114 -103 153 -83 vhcurveto
          hintmask 11101000
          -146 -68 -169 -106 -183 vvcurveto
          502 471 rmoveto
          hintmask 11011000
          -143 43 -118 113 151 vvcurveto
          77 38 52 46 33 vhcurveto
          16 40 32 15 70 hhcurveto
          162 72 -90 -112 hvcurveto
          hintmask 11101000
          -111 -72 -126 -127 -61 vhcurveto
          -306 -449 rmoveto
          169 126 56 86 51 vhcurveto
          hintmask 11100100
          133 -66 198 -85 -170 vvcurveto
          -40 -17 -49 -19 -32 vhcurveto
          -47 -42 -76 -29 -87 hhcurveto
          hintmask 11101000
          -184 -118 72 170 hvcurveto
          endchar
        </CharString>
        <CharString name="ellipsis">
          458 -9 -21 hstemhm
          140 296 280 296 280 296 hintmask 11000000
          140 115 rmoveto
          -77 callgsubr
          hintmask 10100000
          576 hmoveto
          -77 callgsubr
          hintmask 10010000
          576 hmoveto
          -77 callgsubr
          endchar
        </CharString>
        <CharString name="emacron">
          -59 callgsubr
          225 145 hstemhm
          91 208 -28 598 -136 225 hintmask 11101010
          -107 callsubr
          hintmask 00010100
          -28 644 -39 callsubr
        </CharString>
        <CharString name="emdash">
          772 5 callgsubr
          1660 19 callsubr
          1660 163 -1660 hlineto
          endchar
        </CharString>
        <CharString name="endash">
          96 5 callgsubr
          984 19 callsubr
          984 163 -984 hlineto
          endchar
        </CharString>
        <CharString name="eng">
          83 -490 -21 511 -8 callsubr
          hstemhm
          260 211 475 209 hintmask 00000000
          hintmask 11011100
          99 hmoveto
          545 -24 callsubr
          hintmask 11101100
          650 vlineto
          37 59 111 50 112 hhcurveto
          99 46 -12 -30 29 hvcurveto
          11 -12 8 -30 -27 vvcurveto
          -738 vlineto
          -261 -251 -203 0 vhcurveto
          80 -72 rlineto
          288 264 92 54 219 vvcurveto
          1 626 rlineto
          200 -1 24 190 -294 hhcurveto
          -75 -91 -30 -7 -26 hvcurveto
          -103 -58 -116 -66 0 vvcurveto
          hintmask 11011100
          13 160 -40 21 -149 -74 -22 -5 -183 -49 callgsubr
          85 -22 83 -19 -142 vvcurveto
          -1 -401 rlineto
          -158 -14 -7 -147 -45 vhcurveto
          endchar
        </CharString>
        <CharString name="eogonek">
          -231 4 callgsubr
          304 174 374 104 309 110 hstemhm
          91 208 251 174 9 225 hintmask 00000000
          hintmask 11111100
          91 496 rmoveto
          -328 -7 160 -197 340 hhcurveto
          38 10 38 13 40 16 -66 -66 -64 -93 -15 -84 rrcurveto
          -155 -29 95 -110 146 hhcurveto
          95 85 -60 callgsubr
          -24 -63 27 102 20 hvcurveto
          15 78 73 126 133 136 -34 86 rcurveline
          -139 -52 -150 -25 0 vvcurveto
          -118 -215 31 343 6 hvcurveto
          hintmask 11111110
          653 hlineto
          0 5 70 1 38 vhcurveto
          251 5 -103 164 -255 hhcurveto
          hintmask 11111100
          -314 -194 -252 -294 -6 hvcurveto
          208 127 rmoveto
          6 204 104 74 31 11 rrcurveto
          hintmask 11111110
          161 59 132 -70 -182 vvcurveto
          -35 -14 -38 -22 -3 vhcurveto
          hintmask 11111100
          -33 -4 -101 -12 -264 -4 rrcurveto
          endchar
        </CharString>
        <CharString name="equal">
          7 callsubr
          158 777 rmoveto
          879 122 -879 hlineto
          -558 vmoveto
          879 123 -879 hlineto
          endchar
        </CharString>
        <CharString name="eth">
          -89 -22 108 844 112 493 -20 hstem
          90 231 551 221 vstem
          90 484 rmoveto
          -338 219 -168 277 279 228 236 354 12 -1 13 -2 14 vhcurveto
          -1 127 -29 306 -236 232 -53 52 -53 44 -53 39 169 128 rcurveline
          -76 95 -204 -151 -104 60 -102 41 -101 32 rlinecurve
          -4 1 -29 -97 0 vvcurveto
          0 101 -46 123 -84 vhcurveto
          -150 -110 78 -95 177 128 49 -39 49 -45 45 -49 rlinecurve
          39 -43 36 -63 32 -66 rrcurveto
          24 -53 -60 14 -65 hhcurveto
          -277 -248 -212 -346 hvcurveto
          231 49 rmoveto
          203 47 184 175 10 vhcurveto
          248 14 81 -122 -320 vvcurveto
          -190 -57 -215 -174 -11 vhcurveto
          -250 -16 -70 244 219 vvcurveto
          endchar
        </CharString>
        <CharString name="exclam">
          -587 -9 -21 1593 -20 hstemhm
          161 -58 callsubr
          endchar
        </CharString>
        <CharString name="exclamdbl">
          -51 -9 -21 1593 -20 hstemhm
          161 314 -268 296 194 -58 callsubr
          hintmask 00000000
          624 403 rmoveto
          hintmask 11000100
          112 hlineto
          10 512 58 273 329 vvcurveto
          -4 4 -104 -37 -102 -3 -104 -33 rlinecurve
          -17 vlineto
          hintmask 11001000
          94 -240 10 -276 30 -512 rrcurveto
          -88 -403 rmoveto
          -77 callgsubr
          endchar
        </CharString>
        <CharString name="exclamdown">
          -587 -185 20 1552 21 hstemhm
          171 296 -268 314 hintmask 00000000
          hintmask 11100000
          379 860 rmoveto
          hintmask 11010000
          -112 hlineto
          -10 -512 -58 -273 -329 vvcurveto
          4 -4 104 37 102 3 104 33 rlinecurve
          17 vlineto
          hintmask 11100000
          -94 240 -10 276 -30 512 rrcurveto
          88 403 -3 callsubr
        </CharString>
        <CharString name="f">
          -461 -31 callgsubr
          hstemhm
          279 -50 callgsubr
          hintmask 11101000
          94 hmoveto
          -86 callgsubr
          hintmask 11011000
          36 280 rlineto
          hintmask 11101000
          -82 callsubr
          endchar
        </CharString>
        <CharString name="f_f">
          348 -31 callgsubr
          hstemhm
          279 210 599 -50 callgsubr
          hintmask 11101000
          94 hmoveto
          -86 callgsubr
          hintmask 11011000
          36 280 rlineto
          hintmask 11101000
          -82 callsubr
          hintmask 00000000
          809 -82 rmoveto
          -86 callgsubr
          hintmask 11100100
          36 280 rlineto
          hintmask 11010100
          -82 callsubr
          endchar
        </CharString>
        <CharString name="f_i">
          214 0 82 803 135 42 -20 452 146 -95 -20 118 -21 hstemhm
          279 210 534 305 -259 210 -26 callgsubr
          hintmask 1101001000000000
          94 hmoveto
          -86 callgsubr
          hintmask 1100011000000000
          36 280 rlineto
          hintmask 1101001000000000
          -82 callsubr
          hintmask 1010000010000000
          801 -82 rmoveto
          -101 callsubr
          hintmask 0000100100000000
          -44 callgsubr
          endchar
        </CharString>
        <CharString name="f_l">
          215 -31 callgsubr
          23 -21 hstemhm
          279 210 577 -50 callgsubr
          hintmask 11100100
          94 hmoveto
          -86 callgsubr
          hintmask 11010100
          36 280 rlineto
          hintmask 11100100
          -82 callsubr
          hintmask 10001010
          811 -82 rmoveto
          -88 callgsubr
          endchar
        </CharString>
        <CharString name="five">
          -227 1210 176 144 -20 hstem
          705 215 vstem
          129 hmoveto
          13 -111 rlineto
          525 32 253 287 271 vvcurveto
          292 -191 136 -377 -41 -14 11 23 5 vhcurveto
          8 36 30 120 38 113 rrcurveto
          519 hlineto
          74 317 -77 3 -35 -54 -21 -47 -64 -22 rlinecurve
          -133 -21 -208 -7 -166 16 -135 -538 rcurveline
          -10 -41 6 -26 11 -11 18 -17 153 8 130 -31 rrcurveto
          164 -39 101 -110 -139 vvcurveto
          -306 -333 -135 -243 -10 vhcurveto
          endchar
        </CharString>
        <CharString name="florin">
          236 -495 152 861 128 586 151 hstemhm
          105 1242 -709 201 hintmask 00000000
          hintmask 11110000
          142 -108 rmoveto
          -37 -321 rlineto
          0 120 -66 105 75 263 64 275 68 vhcurveto
          51 205 22 233 20 236 rrcurveto
          242 hlineto
          24 128 rlineto
          -256 hlineto
          16 192 17 191 33 173 42 57 195 -29 39 -78 rrcurveto
          28 -56 -16 -101 0 vvcurveto
          106 -3 rlineto
          hintmask 11101000
          0 48 347 -3 vvcurveto
          7 -214 40 -33 -64 -240 -23 -289 -95 vhcurveto
          -30 -124 -19 -147 -14 -154 rrcurveto
          -186 hlineto
          -24 -128 rlineto
          198 hlineto
          -25 -300 -18 -309 -65 -204 -50 -49 -119 -15 -45 34 -51 39 -6 121 -5 57 rrcurveto
          endchar
        </CharString>
        <CharString name="four">
          -81 7 -21 360 129 hstem
          689 210 vstem
          54 346 rmoveto
          636 hlineto
          -1 -407 212 47 rlineto
          360 203 vlineto
          15 171 -64 -28 -72 -13 -84 -4 rlinecurve
          916 vlineto
          -69 32 -271 -315 -282 -339 -223 -321 rlinecurve
          207 30 rmoveto
          117 192 165 211 146 187 rrcurveto
          -590 vlineto
          endchar
        </CharString>
        <CharString name="fraction">
          -247 -80 1546 hstem
          -24 993 vstem
          -24 -32 -37 callsubr
        </CharString>
        <CharString name="g">
          -51 callgsubr
          -2 callsubr
          436 218 -63 198 -26 callgsubr
          hintmask 1111001100000000
          148 156 -66 callsubr
          hintmask 1111010010000000
          -87 callgsubr
          hintmask 1110101100000000
          -72 callgsubr
          hintmask 1111001100000000
          -95 callsubr
          hintmask 1111010010000000
          -75 callsubr
          endchar
        </CharString>
        <CharString name="gbreve">
          -51 callgsubr
          168 168 214 -20 -2 callsubr
          -117 677 -124 218 -63 198 -26 callgsubr
          hintmask 1111000010100000
          148 156 -66 callsubr
          hintmask 1111000100010000
          -87 callgsubr
          hintmask 1110100010100000
          -72 callgsubr
          hintmask 1111000010100000
          -95 callsubr
          hintmask 1111000100010000
          -75 callsubr
          hintmask 0000011001000000
          121 1224 -89 callgsubr
        </CharString>
        <CharString name="gcircumflex">
          -51 callgsubr
          210 416 -2 callsubr
          -140 718 -142 -90 callgsubr
          -150 1266 rmoveto
          -96 callsubr
        </CharString>
        <CharString name="gcommaaccent">
          -51 callgsubr
          145 400 -2 callsubr
          107 307 22 218 -63 198 hintmask 0000010010000000
          457 1519 rmoveto
          -2 -2 19 -107 0 0 126 25 -71 vvcurveto
          -104 -133 -42 0 vhcurveto
          0 61 -54 0 vhcurveto
          31 18 205 84 173 vvcurveto
          80 -64 45 -97 -97 -47 -43 -2 -2 vhcurveto
          -26 callgsubr
          -309 -1363 -66 callsubr
          hintmask 1111000101000000
          -87 callgsubr
          hintmask 1111001000100000
          -72 callgsubr
          hintmask 1110100101000000
          -95 callsubr
          hintmask 1111000101000000
          -75 callsubr
          endchar
        </CharString>
        <CharString name="gdotaccent">
          -51 callgsubr
          526 -20 -2 callsubr
          66 305 65 -90 callgsubr
          108 1304 -85 callsubr
        </CharString>
        <CharString name="germandbls">
          89 -17 131 -114 82 803 135 0 -20 484 126 hstemhm
          237 213 206 164 131 215 -7 180 -26 callgsubr
          hintmask 1001111010000000
          53 hmoveto
          hintmask 1001111100000000
          513 82 hlineto
          -107 55 -7 229 -12 932 25 47 rlinecurve
          56 51 83 83 104 hhcurveto
          hintmask 0110111100000000
          165 -20 83 -66 -108 -283 -295 16 -246 -309 503 64 -278 vvcurveto
          -70 -45 -70 -56 -67 -102 6 36 -28 vhcurveto
          -49 171 rlineto
          -112 hlineto
          -26 -259 rlineto
          -46 55 106 -39 101 hhcurveto
          222 181 85 278 hvcurveto
          371 -519 -79 243 vvcurveto
          38 95 308 1 324 vvcurveto
          hintmask 1001111010000000
          181 -109 128 -280 -379 -140 -237 -302 -20 vhcurveto
          -51 vlineto
          -160 -20 rlineto
          -115 160 vlineto
          -2 -593 -1 -161 -14 -11 -168 -38 rlinecurve
          endchar
        </CharString>
        <CharString name="grave">
          11 callgsubr
          519 1164 -74 callsubr
        </CharString>
        <CharString name="grave.cap">
          16 callsubr
          499 1639 -69 callgsubr
        </CharString>
        <CharString name="greater">
          92 37 1061 hstem
          166 1045 vstem
          1211 634 rmoveto
          -1045 464 rlineto
          -133 vlineto
          912 -397 -912 -397 rlineto
          -134 vlineto
          1045 465 rlineto
          endchar
        </CharString>
        <CharString name="greaterequal">
          36 158 102 hstem
          216 888 vstem
          216 260 rmoveto
          885 309 rlineto
          171 vlineto
          -885 308 rlineto
          -144 vlineto
          768 -249 -768 -254 rlineto
          -358 vmoveto
          885 hlineto
          3 115 rlineto
          -888 hlineto
          endchar
        </CharString>
        <CharString name="guillemotleft">
          92 23 962 hstemhm
          170 467 42 467 hintmask 11000000
          499 23 rmoveto
          -68 callsubr
          hintmask 10100000
          509 hmoveto
          -68 callsubr
          endchar
        </CharString>
        <CharString name="guillemotright">
          92 23 962 hstemhm
          216 467 42 467 hintmask 11000000
          -48 callgsubr
          rrcurveto
          hintmask 10100000
          644 892 rmoveto
          -135 -70 26 -49 47 -78 40 -76 rlinecurve
          42 -78 39 -85 -52 vvcurveto
          -50 -39 -81 -42 -77 vhcurveto
          -40 -77 -47 -75 -29 -50 130 -64 rcurveline
          105 149 120 183 112 142 -112 145 -110 196 -107 147 rrcurveto
          endchar
        </CharString>
        <CharString name="guilsinglleft">
          -417 23 962 hstem
          170 467 vstem
          499 23 rmoveto
          -68 callsubr
          endchar
        </CharString>
        <CharString name="guilsinglright">
          -417 23 962 hstem
          216 467 vstem
          -48 callgsubr
          135 -70 rcurveline
          endchar
        </CharString>
        <CharString name="h">
          66 0 -10 callsubr
          603 -21 hstem
          223 210 495 210 vstem
          60 -75 callgsubr
          352 -3 204 18 23 callsubr
          -183 -35 rlinecurve
          -73 vlineto
          87 -21 82 -11 callsubr
          -23 -76 callsubr
          endchar
        </CharString>
        <CharString name="hbar">
          94 0 -10 callsubr
          95 135 373 -21 hstem
          239 210 495 210 vstem
          76 -75 callgsubr
          256 232 135 -232 vlineto
          1 137 4 110 10 105 -37 21 rcurveline
          -148 -74 -26 -9 -183 -35 rrcurveto
          -73 vlineto
          87 -21 82 -3 -143 vvcurveto
          -15 -156 -135 156 -845 -35 callsubr
          -23 -76 callsubr
          endchar
        </CharString>
        <CharString name="hcircumflex">
          66 0 -10 callsubr
          603 -21 44 332 hstemhm
          223 210 -75 718 -148 210 hintmask 11101010
          60 -75 callgsubr
          352 -3 204 18 23 callsubr
          -183 -35 rlinecurve
          -73 vlineto
          87 -21 82 -11 callsubr
          -23 -76 callsubr
          hintmask 00010100
          366 1586 -93 callsubr
        </CharString>
        <CharString name="hungarumlaut">
          -144 1540 -20 hstem
          114 898 vstem
          615 1174 -64 callsubr
        </CharString>
        <CharString name="hungarumlaut.cap">
          -174 1600 400 hstem
          114 868 vstem
          615 1600 -64 callgsubr
        </CharString>
        <CharString name="hyphen">
          -247 5 callgsubr
          641 19 callsubr
          641 163 -641 hlineto
          endchar
        </CharString>
        <CharString name="i">
          -40 callgsubr
          28 callgsubr
          214 305 -259 210 hintmask 11001000
          86 hmoveto
          -101 callsubr
          hintmask 00110000
          -44 callgsubr
          endchar
        </CharString>
        <CharString name="iacute">
          -40 callgsubr
          14 callsubr
          218 495 -453 210 hintmask 11001000
          86 hmoveto
          -101 callsubr
          hintmask 00110000
          222 1082 -92 callsubr
        </CharString>
        <CharString name="ibreve">
          -40 callgsubr
          145 -7 callgsubr
          -9 677 -408 210 hintmask 11000100
          86 hmoveto
          -101 callsubr
          hintmask 00111000
          241 1105 -89 callgsubr
        </CharString>
        <CharString name="icircumflex">
          -40 callgsubr
          187 416 hstemhm
          -32 718 -426 210 hintmask 11001000
          86 hmoveto
          -101 callsubr
          hintmask 00110000
          -30 1147 rmoveto
          -96 callsubr
        </CharString>
        <CharString name="idieresis">
          -40 callgsubr
          225 278 hstemhm
          -28 270 18 210 -60 270 hintmask 11001000
          86 hmoveto
          -101 callsubr
          hintmask 00110100
          491 1191 -98 callsubr
        </CharString>
        <CharString name="igrave">
          -40 callgsubr
          14 callsubr
          -59 495 -176 210 hintmask 11001000
          86 hmoveto
          -101 callsubr
          hintmask 00110000
          260 1082 -74 callsubr
        </CharString>
        <CharString name="ij">
          71 -490 -21 511 0 callsubr
          28 callgsubr
          214 305 -259 210 401 305 -239 210 hintmask 01100100
          86 hmoveto
          -101 callsubr
          hintmask 00011000
          -44 callgsubr
          hintmask 00010010
          657 hmoveto
          86 79 59 87 -94 callsubr
          hvcurveto
          hintmask 10100001
          -74 -1242 -78 callsubr
          endchar
        </CharString>
        <CharString name="imacron">
          -40 callgsubr
          245 145 hstemhm
          28 598 -366 210 hintmask 11001000
          86 hmoveto
          -101 callsubr
          hintmask 00110000
          -58 1205 -39 callsubr
        </CharString>
        <CharString name="infinity">
          606 127 858 hstem
          175 1526 vstem
          522 127 rmoveto
          195 78 137 134 107 hvcurveto
          6 -14 rlineto
          -147 87 120 -110 182 hhcurveto
          216 188 224 230 227 -106 177 -241 -195 -79 -137 -134 -106 hvcurveto
          -6 14 rlineto
          147 -87 -120 110 -182 hhcurveto
          -216 -188 -224 -230 -227 106 -177 241 hvcurveto
          502 494 rmoveto
          94 74 131 77 120 hhcurveto
          113 107 -97 -149 -145 -75 -81 -128 -161 -135 138 163 -46 hvcurveto
          -497 -301 rmoveto
          -113 -107 97 149 145 75 81 128 161 135 -138 -163 46 hvcurveto
          -94 -74 -131 -77 -120 hhcurveto
          endchar
        </CharString>
        <CharString name="integral">
          -247 -500 146 -125 -21 1964 146 hstemhm
          404 214 hintmask 00000000
          hintmask 10110000
          40 -202 rmoveto
          -36 -280 rlineto
          0 83 -18 47 281 203 162 268 vhcurveto
          1090 vlineto
          192 -4 176 17 47 vhcurveto
          31 29 184 22 19 -57 30 -117 rcurveline
          87 hlineto
          36 280 rlineto
          0 -83 18 -47 -281 -203 -162 -268 vhcurveto
          -1090 vlineto
          hintmask 01110000
          -202 4 -166 -17 -47 vhcurveto
          hintmask 10110000
          -31 -29 -184 -22 -19 57 -30 117 rcurveline
          endchar
        </CharString>
        <CharString name="iogonek">
          -595 4 callgsubr
          333 0 callsubr
          28 callgsubr
          129 390 -305 296 -250 -50 callgsubr
          hintmask 11110010
          354 1267 rmoveto
          86 79 59 87 80 -62 52 -76 hvcurveto
          hintmask 11111000
          -113 -54 -75 -67 hvcurveto
          hintmask 11110100
          -74 55 -62 85 vhcurveto
          -268 -1267 rmoveto
          hintmask 11111000
          237 hlineto
          -83 -53 -82 -86 -23 -104 rrcurveto
          -149 -33 99 -106 146 hhcurveto
          95 85 39 24 30 hvcurveto
          -47 132 rlineto
          hintmask 11110010
          -30 -48 -51 0 -36 hhcurveto
          -24 -69 29 100 26 hvcurveto
          16 62 51 74 93 68 rrcurveto
          184 82 hlineto
          -182 55 rlineto
          570 vlineto
          132 5 96 19 108 vhcurveto
          -37 19 rlineto
          hintmask 11111000
          -95 -49 -86 -10 -182 -35 rrcurveto
          -72 vlineto
          hintmask 11110100
          85 -22 81 -28 -141 vvcurveto
          -413 vlineto
          hintmask 11111000
          -161 -33 -11 -141 -38 vhcurveto
          endchar
        </CharString>
        <CharString name="itilde">
          -40 callgsubr
          234 -35 callgsubr
          -10 -20 hstemhm
          -47 754 -447 210 hintmask 11000010
          86 hmoveto
          -101 callsubr
          hintmask 00000000
          406 1194 -57 callgsubr
          hintmask 00010100
          -87 callsubr
          hintmask 00101100
          -80 callsubr
        </CharString>
        <CharString name="j">
          -604 22 callgsubr
          28 callgsubr
          196 305 -239 210 hintmask 00110000
          336 1267 rmoveto
          86 79 59 87 -94 callsubr
          hvcurveto
          hintmask 11001000
          -74 -1242 -78 callsubr
          endchar
        </CharString>
        <CharString name="jcircumflex">
          -616 22 callgsubr
          187 416 hstemhm
          -7 718 -449 210 hintmask 11001000
          262 25 -78 callsubr
          hintmask 00110000
          -181 524 rmoveto
          -96 callsubr
        </CharString>
        <CharString name="k">
          -67 -1 -21 22 82 856 82 625 -21 hstemhm
          223 -50 callgsubr
          hintmask 01111000
          61 hmoveto
          532 hlineto
          hintmask 10111000
          82 vlineto
          hintmask 01111000
          -70 callsubr
          endchar
        </CharString>
        <CharString name="kcommaaccent">
          -67 -21 callsubr
          146 -21 22 82 856 82 625 -21 hstemhm
          223 210 68 307 hintmask 00000000
          hintmask 00111100
          61 hmoveto
          532 hlineto
          hintmask 01011100
          82 vlineto
          hintmask 00111100
          -70 callsubr
          hintmask 10000010
          158 -674 -102 callsubr
        </CharString>
        <CharString name="kgreenlandic">
          -30 0 82 856 82 39 -20 hstem
          261 209 vstem
          99 hmoveto
          532 82 hlineto
          -159 55 -2 567 rlineto
          132 5 96 19 108 vhcurveto
          -37 19 -95 -49 -87 -10 19 callgsubr
          85 -22 83 -28 -141 vvcurveto
          -410 vlineto
          -1 callgsubr
          430 415 rmoveto
          322 -374 109 -123 rlineto
          301 82 hlineto
          -33 10 -47 21 -27 18 rrcurveto
          -134 99 -279 289 0 vvcurveto
          97 85 105 177 82 82 36 36 29 16 142 23 rrcurveto
          82 -521 -82 vlineto
          49 -10 68 -19 -41 vvcurveto
          -49 -207 -263 -92 -59 vhcurveto
          endchar
        </CharString>
        <CharString name="l">
          -594 0 82 1563 -21 hstem
          257 210 vstem
          96 hmoveto
          -88 callgsubr
          endchar
        </CharString>
        <CharString name="lacute">
          -590 0 82 1563 -21 36 -21 hstemhm
          179 475 -395 210 hintmask 11001000
          98 hmoveto
          -88 callgsubr
          hintmask 00110000
          171 1557 -91 callgsubr
        </CharString>
        <CharString name="lcaron">
          -401 0 82 1563 -21 hstemhm
          259 210 vstemhm
          98 hmoveto
          -88 callgsubr
          662 1004 -68 callgsubr
        </CharString>
        <CharString name="lcommaaccent">
          -590 -21 callsubr
          147 82 1563 -21 hstemhm
          227 307 -275 210 hintmask 01101000
          98 hmoveto
          -88 callgsubr
          hintmask 10010000
          276 -229 -102 callsubr
        </CharString>
        <CharString name="ldot">
          -412 0 82 551 292 720 -21 hstemhm
          259 210 167 296 hintmask 10110000
          98 hmoveto
          -88 callgsubr
          hintmask 01001000
          686 551 -38 callsubr
        </CharString>
        <CharString name="less">
          92 37 1061 hstem
          151 1045 vstem
          151 502 rmoveto
          1045 -465 rlineto
          134 vlineto
          -912 397 912 397 rlineto
          133 vlineto
          -1045 -464 rlineto
          endchar
        </CharString>
        <CharString name="lessequal">
          57 43 115 890 -20 hstem
          216 888 vstem
          219 569 rmoveto
          885 -309 rlineto
          141 vlineto
          -768 254 768 249 rlineto
          144 vlineto
          -885 -308 rlineto
          -697 vmoveto
          885 115 -888 hlineto
          endchar
        </CharString>
        <CharString name="logicalnot">
          96 539 163 hstem
          1010 157 vstem
          198 539 rmoveto
          812 -343 157 504 -1 hlineto
          1 2 rlineto
          -969 hlineto
          endchar
        </CharString>
        <CharString name="lozenge">
          -77 -20 149 -128 -21 hstemhm
          128 937 hintmask 00000000
          hintmask 01100000
          507 -20 rmoveto
          178 hlineto
          380 839 -380 818 rlineto
          -177 hlineto
          -380 -818 rlineto
          hintmask 10100000
          467 -690 rmoveto
          -300 690 300 686 305 -686 rlineto
          endchar
        </CharString>
        <CharString name="lslash">
          -590 3 82 1445 -20 138 -21 hstem
          259 208 vstem
          98 3 rmoveto
          543 -27 callgsubr
          -4 203 2 187 1 240 rlinecurve
          205 115 -53 103 -151 -86 rlineto
          1 vlineto
          245 -5 292 19 187 vhcurveto
          -37 21 -148 -74 -23 -9 -182 -35 rlinecurve
          -73 vlineto
          87 -21 80 -3 -143 vvcurveto
          -506 vlineto
          -189 -106 56 -100 133 75 rlineto
          -358 -35 callsubr
          -21 -76 callsubr
          endchar
        </CharString>
        <CharString name="m">
          24 callgsubr
          -1 callsubr
          459 210 460 -50 callgsubr
          hintmask 11011100
          -79 callsubr
          hintmask 10111100
          -34 callsubr
          endchar
        </CharString>
        <CharString name="macron">
          -444 1267 145 hstem
          114 598 vstem
          114 1267 -39 callsubr
        </CharString>
        <CharString name="macron.cap">
          -444 1847 135 hstem
          114 598 vstem
          114 1847 -38 callgsubr
        </CharString>
        <CharString name="minus">
          -77 5 callgsubr
          810 19 callsubr
          810 163 -810 hlineto
          endchar
        </CharString>
        <CharString name="minute">
          -587 1010 625 hstem
          200 324 vstem
          200 1010 -41 callsubr
          endchar
        </CharString>
        <CharString name="mu">
          -76 callgsubr
        </CharString>
        <CharString name="multiply">
          -74 229 740 hstem
          212 741 vstem
          328 229 rmoveto
          254 254 255 -254 116 115 -255 255 255 255 -116 115 -255 -255 -254 255 -116 -115 255 -255 -255 -255 rlineto
          endchar
        </CharString>
        <CharString name="n">
          -10 callgsubr
          -1 callsubr
          475 -50 callgsubr
          hintmask 11011000
          -94 callgsubr
          hintmask 10111000
          -73 callsubr
          endchar
        </CharString>
        <CharString name="nacute">
          -10 callgsubr
          122 481 -1 callsubr
          159 495 -179 -50 callgsubr
          hintmask 11001010
          -94 callgsubr
          hintmask 10101010
          -73 callsubr
          hintmask 00010100
          621 1082 -92 callsubr
        </CharString>
        <CharString name="nbspace">
          -595 endchar
        </CharString>
        <CharString name="ncaron">
          -10 callgsubr
          538 -20 -1 callsubr
          -91 718 -152 -50 callgsubr
          hintmask 11001010
          -94 callgsubr
          hintmask 10101010
          -73 callsubr
          hintmask 00010100
          584 1142 -85 callgsubr
        </CharString>
        <CharString name="ncommaaccent">
          83 -21 callsubr
          147 -8 callsubr
          -1 callsubr
          102 307 66 -50 callgsubr
          hintmask 01101010
          -94 callgsubr
          hintmask 01011010
          -73 callsubr
          hintmask 10000100
          621 -229 -102 callsubr
        </CharString>
        <CharString name="nine">
          -77 1 -21 469 143 675 114 hstem
          121 211 545 219 vstem
          301 -20 rmoveto
          35 -104 rlineto
          495 162 265 389 444 vvcurveto
          234 -154 276 -341 -288 -192 -248 -250 -238 134 -196 214 94 112 54 34 80 vhcurveto
          111 vlineto
          -18 -23 -85 -38 -83 hhcurveto
          -58 -60 14 30 -33 hvcurveto
          -46 52 -35 150 107 vvcurveto
          203 69 115 181 4 vhcurveto
          107 2 62 -47 48 -72 rrcurveto
          58 -88 20 -122 -108 vvcurveto
          -386 -241 -324 -335 -142 vhcurveto
          endchar
        </CharString>
        <CharString name="notequal">
          7 callsubr
          307 120 rmoveto
          153 hlineto
          86 221 rlineto
          491 123 -443 hlineto
          122 313 rlineto
          321 122 -274 hlineto
          104 265 rlineto
          -153 hlineto
          -104 -265 rlineto
          -452 -122 405 hlineto
          -122 -313 rlineto
          -283 -123 235 hlineto
          endchar
        </CharString>
        <CharString name="ntilde">
          -10 callgsubr
          234 -35 callgsubr
          -10 -20 -1 callsubr
          -106 754 -173 210 -26 callgsubr
          hintmask 1100001010000000
          -94 callgsubr
          hintmask 1010001010000000
          -73 callsubr
          -26 callgsubr
          805 1194 -57 callgsubr
          hintmask 0000100100000000
          -87 callsubr
          hintmask 0001010100000000
          -80 callsubr
        </CharString>
        <CharString name="numbersign">
          94 21 -21 529 128 300 130 hstem
          50 1264 vstem
          291 hmoveto
          130 hlineto
          75 529 rlineto
          299 hlineto
          -74 -529 rlineto
          128 hlineto
          74 529 rlineto
          335 128 -320 hlineto
          46 300 rlineto
          330 130 -318 hlineto
          68 495 rlineto
          -126 hlineto
          -71 -495 rlineto
          -295 hlineto
          69 495 rlineto
          -132 hlineto
          -68 -495 rlineto
          -339 -130 325 hlineto
          -44 -300 rlineto
          -333 -128 317 hlineto
          142 128 rmoveto
          45 300 rlineto
          300 hlineto
          -41 -300 rlineto
          endchar
        </CharString>
        <CharString name="o">
          -47 callsubr
          hstem
          90 234 535 234 vstem
          -104 callsubr
          endchar
        </CharString>
        <CharString name="oacute">
          -47 callsubr
          14 callsubr
          90 234 168 495 -128 234 hintmask 11010100
          -104 callsubr
          hintmask 00101000
          258 639 -92 callsubr
        </CharString>
        <CharString name="obreve">
          -47 callsubr
          145 -7 callgsubr
          90 234 -61 677 -81 234 hintmask 11001010
          -104 callsubr
          hintmask 00110100
          275 662 -89 callgsubr
        </CharString>
        <CharString name="ocircumflex">
          -47 callsubr
          187 416 27 callsubr
          -82 718 -101 234 hintmask 11010100
          -104 callsubr
          hintmask 00101000
          6 704 rmoveto
          -96 callsubr
        </CharString>
        <CharString name="odieresis">
          -47 callsubr
          205 278 27 callsubr
          -78 -16 callsubr
          -95 234 hintmask 11010010
          -104 callsubr
          hintmask 00101100
          527 728 -98 callsubr
        </CharString>
        <CharString name="oe">
          597 -29 174 -167 108 433 104 309 110 27 callsubr
          535 268 434 225 hintmask 00000000
          hintmask 01111110
          90 469 rmoveto
          -331 219 -160 277 161 144 78 135 93 vhcurveto
          hintmask 10111110
          -141 75 142 -79 211 hhcurveto
          111 29 108 53 146 83 -34 86 rcurveline
          -139 -52 -150 -25 0 vvcurveto
          -118 -215 31 343 6 hvcurveto
          653 hlineto
          0 5 70 1 38 vhcurveto
          251 5 -103 164 -255 hhcurveto
          -177 -139 -80 -123 -88 hvcurveto
          136 -77 -142 67 -195 hhcurveto
          hintmask 01111110
          -277 -248 -227 -346 hvcurveto
          234 49 rmoveto
          203 44 199 175 10 vhcurveto
          248 14 68 -208 -249 vvcurveto
          -185 -44 -205 -174 -11 vhcurveto
          -250 -16 -67 205 243 vvcurveto
          803 105 rmoveto
          6 204 104 74 31 11 rrcurveto
          161 59 132 -70 -182 vvcurveto
          -35 -14 -38 -22 -3 vhcurveto
          -33 -4 -101 -12 -264 -4 rrcurveto
          endchar
        </CharString>
        <CharString name="ogonek">
          -612 4 callgsubr
          hstem
          115 174 vstem
          384 25 rmoveto
          -108 -48 -126 -98 -28 -122 rrcurveto
          -148 -36 102 -107 146 hhcurveto
          95 85 -60 callgsubr
          -24 -70 29 100 27 hvcurveto
          21 73 77 88 145 78 -81 25 rcurveline
          endchar
        </CharString>
        <CharString name="ograve">
          -47 callsubr
          14 callsubr
          90 234 -109 495 149 234 hintmask 11010100
          -104 callsubr
          hintmask 00101000
          296 639 -74 callsubr
        </CharString>
        <CharString name="ohungarumlaut">
          -47 callsubr
          498 -20 27 callsubr
          -26 898 -337 234 hintmask 11010100
          -104 callsubr
          hintmask 00101000
          475 649 -64 callsubr
        </CharString>
        <CharString name="omacron">
          -47 callsubr
          225 145 27 callsubr
          -22 598 -41 234 hintmask 11010100
          -104 callsubr
          hintmask 00101000
          -22 742 -39 callsubr
        </CharString>
        <CharString name="one">
          -387 0 82 1055 69 hstem
          382 211 vstem
          151 hmoveto
          652 82 hlineto
          -210 55 rlineto
          955 vlineto
          16 284 -50 21 rlineto
          -174 -104 -254 -87 0 vvcurveto
          -72 vlineto
          125 128 31 -142 hvcurveto
          -2 -731 rlineto
          -158 -84 -7 -147 -45 vhcurveto
          endchar
        </CharString>
        <CharString name="onehalf">
          709 -19 117 468 297 -184 72 -2 114 695 -20 hstemhm
          288 180 1132 197 hintmask 00101100
          138 679 -65 callgsubr
          hintmask 00000000
          1017 -770 -43 callgsubr
          hintmask 10010010
          6 -241 rlineto
          99 hlineto
          hintmask 11000010
          -36 callgsubr
          hintmask 10010010
          -772 -13 -37 callsubr
        </CharString>
        <CharString name="onequarter">
          602 -80 1546 -1270 101 382 72 807 -20 hstemhm
          288 180 -85 993 -10 193 hintmask 01000010
          -56 callgsubr
          hintmask 00111000
          -1228 381 -65 callgsubr
          hintmask 10000100
          245 -783 -37 callsubr
        </CharString>
        <CharString name="onesuperior">
          -587 679 72 807 -20 hstem
          283 180 vstem
          133 679 -65 callgsubr
          endchar
        </CharString>
        <CharString name="ordfeminine">
          -247 622 122 559 99 hstem
          165 173 264 179 vstem
          393 622 rmoveto
          99 27 30 74 91 hvcurveto
          -70 47 -34 66 55 72 24 14 41 vhcurveto
          57 vlineto
          4 -110 -11 49 vvcurveto
          445 vlineto
          152 -116 46 -176 -44 -149 -53 -40 -95 vhcurveto
          -15 -142 rlineto
          139 hlineto
          101 32 24 35 90 hhcurveto
          114 -2 17 -53 -90 vvcurveto
          -53 vlineto
          -390 -94 -47 -55 -125 vvcurveto
          -145 127 -64 101 vhcurveto
          78 122 rmoveto
          -91 -42 22 91 124 248 43 16 11 hvcurveto
          -227 vlineto
          -37 -39 -40 -27 -52 hhcurveto
          endchar
        </CharString>
        <CharString name="ordmasculine">
          -247 665 99 557 90 hstem
          127 177 414 177 vstem
          494 665 rmoveto
          212 189 157 239 224 -168 126 -211 hvcurveto
          -200 2 -189 -157 -239 vvcurveto
          -224 156 -128 211 vhcurveto
          55 99 rmoveto
          -191 -11 -54 147 151 vvcurveto
          140 35 123 134 7 vhcurveto
          191 11 54 -154 -151 vvcurveto
          -140 -35 -116 -134 -7 vhcurveto
          endchar
        </CharString>
        <CharString name="oslash">
          -87 -22 108 -78 -21 943 112 -5 -20 27 callsubr
          535 234 hintmask 00000000
          hintmask 10101100
          296 -193 rmoveto
          123 hlineto
          60 180 rlineto
          -6 34 36 -3 37 hhcurveto
          hintmask 01101100
          279 228 228 354 hvcurveto
          hintmask 10011100
          244 -98 148 -174 59 vhcurveto
          68 204 rlineto
          -123 hlineto
          -60 -178 rlineto
          3 -29 -30 2 -32 hhcurveto
          -277 -248 -220 -346 hvcurveto
          hintmask 10101100
          -242 111 -150 165 -67 vhcurveto
          50 150 rmoveto
          -69 81 -23 131 146 vvcurveto
          203 44 192 175 10 vhcurveto
          47 2 41 -5 35 -12 rrcurveto
          -149 -815 rmoveto
          249 748 rlineto
          69 -79 24 -129 -146 vvcurveto
          -190 -44 -207 -174 -11 vhcurveto
          -48 -3 -41 5 -35 12 rrcurveto
          endchar
        </CharString>
        <CharString name="otilde">
          -47 callsubr
          214 -35 callgsubr
          -10 -20 27 callsubr
          -97 754 -122 234 hintmask 11000101
          -104 callsubr
          hintmask 00000000
          442 731 -57 callgsubr
          hintmask 00010010
          -87 callsubr
          hintmask 00101010
          -80 callsubr
        </CharString>
        <CharString name="p">
          6 callsubr
          hstemhm
          212 210 527 214 hintmask 00000000
          hintmask 11010110
          -9 callsubr
          hintmask 10110110
          348 vlineto
          hintmask 11010110
          -44 callsubr
          hintmask 11001110
          -23 callsubr
          hintmask 11010110
          -9 callgsubr
          hintmask 11001110
          -97 -96 32 38 -76 hvcurveto
          endchar
        </CharString>
        <CharString name="paragraph">
          53 -152 101 1391 117 hstem
          702 152 170 138 vstem
          505 -51 rmoveto
          -102 vlineto
          125 1 rlineto
          -1 vlineto
          150 -1 74 63 179 vvcurveto
          1252 205 vlineto
          -21 -28 -13 -36 -1 -51 1 -1378 rcurveline
          138 1284 hlineto
          183 28 26 116 vhcurveto
          15 117 rlineto
          -513 hlineto
          -441 -210 -258 -239 -230 121 -247 271 46 51 8 17 55 hvcurveto
          -350 vlineto
          -201 -26 -8 -171 vhcurveto
          endchar
        </CharString>
        <CharString name="parenleft">
          -417 -394 2200 hstem
          225 180 vstem
          225 689 rmoveto
          -587 216 -320 192 -176 vhcurveto
          125 118 rlineto
          -171 180 -182 284 509 vvcurveto
          486 229 342 139 220 vhcurveto
          -73 61 rlineto
          -197 -187 -278 -411 -519 vvcurveto
          endchar
        </CharString>
        <CharString name="parenright">
          -417 -394 2200 hstem
          448 180 vstem
          628 723 rmoveto
          587 -216 320 -192 176 vhcurveto
          -125 -118 rlineto
          171 -180 182 -284 -509 vvcurveto
          -486 -229 -342 -139 -220 vhcurveto
          73 -61 rlineto
          197 187 278 411 519 vvcurveto
          endchar
        </CharString>
        <CharString name="partialdiff">
          -74 -22 108 755 107 466 125 hstem
          109 224 564 198 vstem
          109 451 rmoveto
          -276 -6 183 -197 302 hhcurveto
          329 163 317 261 15 hvcurveto
          33 593 -289 370 -385 20 -91 5 -154 -34 -71 -48 rrcurveto
          -4 -3 62 -91 0 vvcurveto
          19 36 102 27 79 hhcurveto
          300 122 -278 -264 43 hvcurveto
          46 -60 -78 30 -103 hhcurveto
          -277 -243 -153 -344 -8 hvcurveto
          224 2 rmoveto
          12 203 88 201 175 -16 158 -15 95 -77 36 -93 2 -78 -5 -67 -6 -46 -29 -201 -72 -167 -144 -11 -250 -19 -70 212 10 174 rrcurveto
          endchar
        </CharString>
        <CharString name="percent">
          720 10 callsubr
          hstem
          6 callgsubr
          vstem
          636 -166 -81 callgsubr
        </CharString>
        <CharString name="period">
          -694 -9 -21 hstem
          140 296 vstem
          140 115 rmoveto
          -77 callgsubr
          endchar
        </CharString>
        <CharString name="periodcentered">
          -654 633 292 hstem
          160 296 vstem
          308 633 -38 callsubr
        </CharString>
        <CharString name="perthousand">
          1552 10 callsubr
          hstemhm
          6 callgsubr
          85 171 409 167 hintmask 1010000001100000
          1955 381 rmoveto
          -194 97 -207 268 265 117 228 205 195 -109 211 -257 -262 -119 -232 -206 vhcurveto
          171 56 rmoveto
          80 10 96 52 74 vhcurveto
          28 32 85 4 9 hhcurveto
          174 47 -175 -182 -81 -23 -97 -51 -75 hvcurveto
          -23 -36 -47 -8 -18 hhcurveto
          -181 -53 177 182 hvcurveto
          hintmask 1111111110000000
          -1490 -603 -81 callgsubr
        </CharString>
        <CharString name="pi">
          92 -9 101 -71 -21 882 183 hstemhm
          780 178 hintmask 00000000
          hintmask 10110000
          61 hmoveto
          -3 18 93 -6 90 hhcurveto
          179 38 153 278 28 hvcurveto
          45 460 rlineto
          306 hlineto
          -22 -172 -45 -334 -11 -167 rrcurveto
          -159 -11 106 -59 110 hhcurveto
          136 150 100 206 9 hvcurveto
          -95 hlineto
          -11 -73 -38 -63 -63 -9 -94 -15 -32 75 14 208 rrcurveto
          hintmask 01110000
          3 53 23 262 13 147 rrcurveto
          hintmask 10110000
          21 hlineto
          218 63 101 187 16 hvcurveto
          -68 hlineto
          -77 -41 -30 -28 -106 hhcurveto
          -750 hlineto
          -178 -56 -159 -130 -18 hvcurveto
          89 hlineto
          70 26 20 36 111 hhcurveto
          90 hlineto
          -83 -462 -56 -339 -86 3 -100 11 rlinecurve
          endchar
        </CharString>
        <CharString name="plus">
          -77 539 163 355 -20 hstem
          515 163 vstem
          515 173 rmoveto
          163 366 9 callgsubr
          -163 344 hlineto
          endchar
        </CharString>
        <CharString name="plusminus">
          33 -31 163 407 163 355 -20 hstem
          515 163 vstem
          171 539 rmoveto
          344 -296 163 296 9 callgsubr
          hlineto
          -733 vmoveto
          850 163 -850 hlineto
          endchar
        </CharString>
        <CharString name="product">
          266 -171 82 1486 133 -82 82 hstemhm
          283 216 567 216 hintmask 00000000
          hintmask 11011000
          110 -89 rmoveto
          -82 538 109 vlineto
          -149 28 rlineto
          hintmask 10111000
          1431 vlineto
          hintmask 11011000
          567 -1276 hlineto
          hintmask 10111000
          -154 -42 -17 -126 -35 vhcurveto
          -86 581 82 vlineto
          -197 55 rlineto
          1272 -27 callsubr
          45 -46 callsubr
          82 vlineto
          hintmask 11011000
          -1357 -82 hlineto
          -12 callsubr
          -1271 -35 callsubr
          -33 -76 callsubr
          endchar
        </CharString>
        <CharString name="q">
          -63 -485 82 384 161 776 127 hstem
          90 214 522 210 vstem
          90 477 rmoveto
          -219 117 -277 294 70 110 50 116 145 vhcurveto
          -376 vlineto
          -130 -50 -7 -146 -37 vhcurveto
          -82 520 82 vlineto
          -42 14 -72 43 0 vvcurveto
          1216 vlineto
          126 46 rlineto
          72 vlineto
          -209 4 -32 9 -95 11 rrcurveto
          13 -58 -76 20 -76 hhcurveto
          -147 -168 -71 -138 -102 hvcurveto
          -70 -90 -39 -121 -148 vvcurveto
          435 -335 rmoveto
          -119 -102 171 238 273 126 97 132 -3 hvcurveto
          105 -2 98 -32 61 -36 rrcurveto
          -599 vlineto
          -49 -79 -148 -58 -74 hhcurveto
          endchar
        </CharString>
        <CharString name="question">
          -144 -9 -21 1603 162 hstemhm
          390 186 -127 296 45 222 hintmask 00000000
          hintmask 11101000
          622 480 rmoveto
          191 100 -31 80 rlineto
          -172 -35 -34 62 50 vvcurveto
          66 105 124 80 75 vhcurveto
          95 90 156 172 130 vvcurveto
          210 -186 131 -186 -64 -87 -18 -35 -91 vhcurveto
          -84 -53 -100 -91 -58 -48 62 -94 rcurveline
          66 48 110 65 109 54 rrcurveto
          155 45 132 -118 -117 vvcurveto
          -157 -260 -255 -96 -135 vhcurveto
          -27 -42 -17 -43 -40 vvcurveto
          -137 102 -45 130 -39 vhcurveto
          hintmask 11011000
          -173 -365 rmoveto
          -77 callgsubr
          endchar
        </CharString>
        <CharString name="questiondown">
          -144 -360 162 1582 21 hstemhm
          114 222 45 296 -127 186 hintmask 00000000
          hintmask 11101000
          504 895 rmoveto
          -191 -100 31 -80 rlineto
          172 35 34 -62 -50 vvcurveto
          -66 -105 -124 -80 -75 vhcurveto
          -95 -90 -156 -172 -130 vvcurveto
          -210 186 -131 186 64 87 18 35 91 vhcurveto
          84 53 100 91 58 48 -62 94 rcurveline
          -66 -48 -110 -65 -109 -54 rrcurveto
          -155 -45 -132 118 117 vvcurveto
          157 260 255 96 135 vhcurveto
          27 42 17 43 40 vvcurveto
          137 -102 45 -130 39 vhcurveto
          hintmask 11110000
          173 365 -3 callsubr
        </CharString>
        <CharString name="quotedbl">
          -249 1010 625 hstemhm
          219 244 152 244 hintmask 11000000
          284 1010 rmoveto
          -52 callsubr
          hintmask 10100000
          396 hmoveto
          -52 callsubr
          endchar
        </CharString>
        <CharString name="quotedblbase">
          -122 -421 21 77 20 hstemhm
          190 11 callsubr
          338 156 -63 callgsubr
        </CharString>
        <CharString name="quotedblleft">
          -122 1558 -20 118 -21 hstemhm
          183 11 callsubr
          345 1079 rmoveto
          -60 callsubr
          hintmask 11010000
          465 hmoveto
          -60 callsubr
          endchar
        </CharString>
        <CharString name="quotedblright">
          -122 1058 21 77 20 hstemhm
          190 11 callsubr
          338 1635 -63 callgsubr
        </CharString>
        <CharString name="quoteleft">
          -587 1558 -20 118 -21 hstem
          183 310 vstem
          345 1079 rmoveto
          -60 callsubr
          endchar
        </CharString>
        <CharString name="quotereversed">
          -587 1058 21 77 20 hstem
          188 310 vstem
          350 1635 rmoveto
          -98 -64 -64 -115 -238 207 -115 31 -24 hvcurveto
          62 77 rlineto
          0 -135 59 148 vvcurveto
          102 128 -36 0 vhcurveto
          0 19 139 -2 3 vhcurveto
          3 -2 -48 61 -98 hhcurveto
          endchar
        </CharString>
        <CharString name="quoteright">
          -587 1058 21 callsubr
          1635 -43 callsubr
          endchar
        </CharString>
        <CharString name="quotesinglbase">
          -587 -422 21 callsubr
          155 -43 callsubr
          endchar
        </CharString>
        <CharString name="quotesingle">
          -587 1010 625 hstem
          219 244 vstem
          284 1010 rmoveto
          -52 callsubr
          endchar
        </CharString>
        <CharString name="r">
          -19 callsubr
          hstemhm
          261 -50 callgsubr
          hintmask 10010100
          -18 callsubr
          hintmask 11000100
          -55 callgsubr
          hintmask 10100100
          26 356 rlineto
          hintmask 10010100
          -39 callgsubr
          hintmask 10001100
          -66 callgsubr
          endchar
        </CharString>
        <CharString name="racute">
          -19 callsubr
          122 481 -1 callsubr
          -53 495 hintmask 00000000
          hintmask 10010010
          -18 callsubr
          hintmask 11000010
          -55 callgsubr
          hintmask 10100010
          26 356 rlineto
          hintmask 10010010
          -39 callgsubr
          hintmask 10001010
          -66 callgsubr
          hintmask 00000101
          412 1082 -92 callsubr
        </CharString>
        <CharString name="radical">
          185 -478 -21 hstem
          63 1391 vstem
          111 307 rmoveto
          155 59 362 -865 rlineto
          133 hlineto
          693 2189 -231 74 -532 -2063 -274 866 -354 -145 rlineto
          endchar
        </CharString>
        <CharString name="rcaron">
          -19 callsubr
          538 -20 hstemhm
          168 718 -625 -50 callgsubr
          hintmask 10010001
          -18 callsubr
          hintmask 11000001
          -55 callgsubr
          hintmask 10100001
          26 356 rlineto
          hintmask 10010001
          -39 callgsubr
          hintmask 10001001
          -66 callgsubr
          hintmask 00000110
          375 1142 -85 callgsubr
        </CharString>
        <CharString name="rcommaaccent">
          -303 -21 callsubr
          147 -2 callgsubr
          hstemhm
          232 307 -278 -50 callgsubr
          hintmask 01001001
          -18 callsubr
          hintmask 01100001
          -55 callgsubr
          hintmask 01010001
          26 356 rlineto
          hintmask 01001001
          -39 callgsubr
          hintmask 01000101
          -66 callgsubr
          hintmask 10000010
          283 -229 -102 callsubr
        </CharString>
        <CharString name="registered">
          548 -33 93 284 65 329 78 324 76 -75 87 265 94 hstemhm
          115 138 378 153 333 154 296 138 -26 callgsubr
          hintmask 1110111111000000
          -40 callsubr
          398 -432 rmoveto
          406 65 hlineto
          -135 30 rlineto
          299 vlineto
          66 -7 13 -2 33 -1 48 -77 65 -70 52 -66 64 -78 51 -75 103 -15 rrcurveto
          -4 32 34 -2 33 hhcurveto
          hintmask 1111011111000000
          -1 16 18 0 18 hhcurveto
          -167 -116 -184 -113 -220 hhcurveto
          -385 -272 326 390 373 272 344 385 hvcurveto
          23 callgsubr
          -137 -37 -133 -65 -113 vhcurveto
          -164 53 -179 191 -81 104 rrcurveto
          142 24 88 127 117 vvcurveto
          146 -124 71 -126 vhcurveto
          -185 -28 -12 -98 hhcurveto
          -197 -76 hlineto
          118 -30 rlineto
          -586 vlineto
          -88 -22 -7 -96 -20 vhcurveto
          hintmask 1110111111000000
          271 414 rmoveto
          192 vlineto
          102 8 24 126 110 89 -39 -116 -180 -158 -1 -175 18 vhcurveto
          endchar
        </CharString>
        <CharString name="ring">
          -537 1168 92 306 89 hstem
          114 -6 callgsubr
          vstem
          367 1168 -84 callgsubr
        </CharString>
        <CharString name="ring.cap">
          -537 1460 92 306 89 hstem
          114 -6 callgsubr
          vstem
          367 1460 -84 callgsubr
        </CharString>
        <CharString name="s">
          -24 callgsubr
          hstem
          155 183 387 181 vstem
          -102 callgsubr
          endchar
        </CharString>
        <CharString name="sacute">
          -24 callgsubr
          124 481 5 callsubr
          80 495 -188 181 hintmask 11010100
          -102 callgsubr
          hintmask 00101000
          334 839 -92 callsubr
        </CharString>
        <CharString name="scaron">
          -24 callgsubr
          540 -20 5 callsubr
          -170 718 -161 181 hintmask 11010100
          -102 callgsubr
          hintmask 00101000
          297 899 -85 callgsubr
        </CharString>
        <CharString name="scedilla">
          -270 -496 141 339 130 -109 -21 948 108 5 callsubr
          45 13 callsubr
          -29 181 hintmask 00000000
          hintmask 10111101
          140 68 rmoveto
          84 -42 137 -35 101 -7 rrcurveto
          -30 -25 -49 -45 -32 vvcurveto
          hintmask 10111110
          -59 callsubr
          200 144 92 148 vhcurveto
          hintmask 11011101
          -29 callsubr
          vhcurveto
          17 41 rlineto
          185 23 140 101 217 347 -568 -147 263 vvcurveto
          63 41 77 65 74 81 -17 -24 56 vhcurveto
          28 -12 11 -20 15 -39 30 -75 rcurveline
          98 hlineto
          26 269 rlineto
          15 -109 -100 11 -110 hhcurveto
          -251 -138 -131 -207 hvcurveto
          -339 570 145 -278 vvcurveto
          -60 -39 -56 -62 -102 -82 7 40 -87 vhcurveto
          -10 6 -13 7 -14 40 -38 109 rcurveline
          -104 2 rlineto
          endchar
        </CharString>
        <CharString name="scircumflex">
          -24 callgsubr
          189 416 5 callsubr
          -170 718 -161 181 hintmask 11010100
          -102 callgsubr
          hintmask 00101000
          82 904 rmoveto
          -96 callsubr
        </CharString>
        <CharString name="scommaaccent">
          -270 -21 callsubr
          130 131 818 108 5 callsubr
          51 307 29 181 hintmask 01110100
          -102 callgsubr
          hintmask 10001000
          362 -472 -102 callsubr
        </CharString>
        <CharString name="second">
          -249 1010 625 hstemhm
          200 324 93 324 hintmask 11000000
          200 1010 -41 callsubr
          hintmask 10100000
          322 -589 -41 callsubr
          endchar
        </CharString>
        <CharString name="section">
          -219 -22 108 1379 96 -26 -20 hstemhm
          173 183 -180 173 397 181 -174 171 hintmask 00000000
          hintmask 11001100
          161 63 rmoveto
          -46 93 159 -39 101 hhcurveto
          228 185 103 250 121 -62 64 -83 42 hvcurveto
          87 56 55 92 137 371 -568 -159 263 vvcurveto
          63 41 84 65 74 81 -21 -24 56 vhcurveto
          28 -12 11 -20 15 -39 30 -77 rcurveline
          98 -12 rlineto
          hintmask 11010010
          26 275 rlineto
          15 -109 -100 11 -110 hhcurveto
          -251 -138 -131 -207 -123 70 -62 91 -41 hvcurveto
          -103 -56 -55 -100 -130 -354 570 150 -278 vvcurveto
          -60 -39 -83 -62 vhcurveto
          hintmask 10110010
          -102 -82 11 40 -87 hvcurveto
          hintmask 11010010
          -10 6 -13 7 -14 40 -38 132 rcurveline
          -104 2 rlineto
          hintmask 11001100
          154 482 rmoveto
          81 26 40 64 33 vhcurveto
          152 -45 162 -28 -146 vvcurveto
          hintmask 11010010
          -82 -34 -33 -49 -26 vhcurveto
          -155 45 -166 19 142 vvcurveto
          endchar
        </CharString>
        <CharString name="semicolon">
          -694 -5 -21 721 -21 hstemhm
          110 346 -316 296 hintmask 01010000
          140 819 rmoveto
          -77 callgsubr
          hintmask 10100000
          8 -845 -42 callgsubr
        </CharString>
        <CharString name="seven">
          -227 21 -21 1021 -20 173 197 hstem
          94 934 vstem
          325 hmoveto
          206 hlineto
          61 257 176 643 260 406 -43 70 rcurveline
          -45 -3 -30 -1 -50 -1 rrcurveto
          -708 hlineto
          -58 -350 87 -1 rlineto
          61 34 28 93 66 hhcurveto
          164 16 300 -22 62 36 -221 -382 -213 -480 -76 -298 rrcurveto
          endchar
        </CharString>
        <CharString name="six">
          -77 -30 114 695 143 hstem
          121 219 545 211 vstem
          418 201 rmoveto
          -58 88 -20 142 108 vvcurveto
          386 271 307 335 142 vhcurveto
          -35 104 rlineto
          -495 -162 -295 -372 -444 vvcurveto
          -234 154 -296 341 288 192 268 250 213 -134 221 -214 -96 -122 -49 -28 -68 vhcurveto
          -111 vlineto
          16 23 88 29 81 hhcurveto
          65 56 -18 -26 29 hvcurveto
          46 -56 35 -162 -91 vvcurveto
          -203 -69 -135 -181 -4 vhcurveto
          -107 -2 -62 47 -48 72 rrcurveto
          endchar
        </CharString>
        <CharString name="slash">
          -421 -166 1838 hstem
          118 612 vstem
          118 -166 rmoveto
          133 hlineto
          479 1838 rlineto
          -139 hlineto
          endchar
        </CharString>
        <CharString name="space">
          -586 endchar
        </CharString>
        <CharString name="sterling">
          92 -30 209 -165 -21 80 142 476 120 642 139 hstemhm
          255 201 35 190 426 165 hintmask 00000000
          hintmask 01111110
          158 123 rmoveto
          73 -130 rlineto
          55 83 96 25 78 328 181 -103 119 hhcurveto
          131 25 85 97 71 -38 112 -51 54 hvcurveto
          -114 -31 rlineto
          22 -29 16 -69 -22 vvcurveto
          hintmask 10011111
          -40 -30 -19 -52 -114 -231 78 -75 -237 vhcurveto
          -6 244 136 306 23 -1 22 -2 22 hvcurveto
          337 hlineto
          hintmask 01111110
          30 120 rlineto
          -390 hlineto
          -59 207 -140 116 157 vvcurveto
          31 2 33 17 35 vhcurveto
          24 29 85 39 112 hhcurveto
          289 20 -75 -188 -18 -1 -19 -2 -20 hvcurveto
          114 hlineto
          0 35 225 24 92 vhcurveto
          58 -26 -74 84 -275 hhcurveto
          -265 -285 -158 -274 -143 84 -101 68 -105 hvcurveto
          -173 hlineto
          -30 -120 rlineto
          266 hlineto
          13 -35 8 -36 -40 vvcurveto
          -172 -187 -221 -146 -64 vhcurveto
          endchar
        </CharString>
        <CharString name="summation">
          223 -171 138 1432 131 -80 80 19 -20 hstemhm
          1124 104 hintmask 00000000
          hintmask 11001000
          196 -91 rmoveto
          -80 967 vlineto
          1 callsubr
          19 448 rlineto
          -118 hlineto
          -112 -289 -631 -6 389 737 -329 698 rlineto
          0 139 2 391 -17 vhcurveto
          72 -249 rlineto
          hintmask 10011000
          104 2 rlineto
          hintmask 11001000
          412 vlineto
          -142 -19 rlineto
          hintmask 10101000
          -895 -80 hlineto
          105 -54 349 -737 -287 -553 -81 -133 -7 -37 -74 -27 rlinecurve
          endchar
        </CharString>
        <CharString name="t">
          -447 -27 178 734 135 hstem
          226 210 vstem
          -84 callsubr
          endchar
        </CharString>
        <CharString name="tbar">
          -447 -27 178 287 145 302 135 hstem
          226 210 vstem
          226 292 rmoveto
          -217 9 -102 203 119 166 85 62 96 vhcurveto
          -38 96 rlineto
          -30 -62 -110 -35 -72 hhcurveto
          -63 -38 25 64 hvcurveto
          198 241 145 -241 302 319 135 -319 vlineto
          7 260 rlineto
          -124 hlineto
          -77 -192 -8 -20 -30 -31 -38 -14 rlinecurve
          -98 -37 rlineto
          -101 158 -302 -147 -145 147 vlineto
          endchar
        </CharString>
        <CharString name="tcaron">
          -353 -27 20 callsubr
          vstemhm
          -84 callsubr
          481 201 -68 callgsubr
        </CharString>
        <CharString name="tcedilla">
          -447 -496 141 352 -21 909 135 hstemhm
          226 210 -121 13 callsubr
          hintmask 00000000
          hintmask 11110000
          315 -118 rmoveto
          -74 179 -51 10 -42 vhcurveto
          hintmask 11101000
          -36 7 -31 -34 -82 hhcurveto
          hintmask 11110100
          -23 callgsubr
          15 35 rlineto
          hintmask 11101000
          107 22 123 66 78 50 -38 96 rcurveline
          -30 -62 -110 -35 -72 hhcurveto
          -63 -38 25 64 hvcurveto
          645 vlineto
          hintmask 11110000
          319 135 -319 hlineto
          7 260 rlineto
          -124 hlineto
          -77 -192 -8 -20 -30 -31 -38 -14 rlinecurve
          -98 -37 rlineto
          -101 158 -593 vlineto
          -196 7 -102 151 -18 vhcurveto
          -29 -26 -40 -40 -28 vvcurveto
          endchar
        </CharString>
        <CharString name="tcommaaccent">
          -447 -21 callsubr
          120 20 callsubr
          -176 307 hintmask 01110000
          -84 callsubr
          hintmask 10001000
          181 -1032 -102 callsubr
        </CharString>
        <CharString name="thorn">
          -51 -486 82 384 122 -84 -21 884 161 603 -21 hstemhm
          179 214 -212 435 299 214 hintmask 00000000
          hintmask 11011101
          179 23 rmoveto
          -237 vlineto
          -4 -140 -25 -21 -120 -29 rrcurveto
          -82 vlineto
          hintmask 11011011
          586 82 hlineto
          hintmask 10111101
          -225 56 rlineto
          345 vlineto
          hintmask 11011101
          -9 79 86 -8 67 hhcurveto
          121 385 69 514 134 -39 89 -43 70 hvcurveto
          -106 175 -174 12 -49 -1 rrcurveto
          -108 -142 -102 -52 -75 hvcurveto
          3 69 6 611 6 56 -37 21 rcurveline
          -134 -68 -42 -6 -182 -45 rrcurveto
          -72 vlineto
          88 -23 80 -2 -143 vvcurveto
          212 -1118 rmoveto
          613 vlineto
          31 53 151 69 97 hhcurveto
          128 93 -175 -217 -209 -68 -178 -190 -97 -88 25 41 -79 hvcurveto
          endchar
        </CharString>
        <CharString name="three">
          -224 -120 120 634 108 518 121 hstemhm
          135 100 428 239 -193 238 hintmask 00000000
          hintmask 11110100
          127 hmoveto
          -118 vlineto
          -2 19 19 0 20 hhcurveto
          428 334 229 320 130 -75 193 -289 -10 hvcurveto
          20 vlineto
          hintmask 11111000
          104 49 215 117 171 vvcurveto
          196 -188 86 -191 -146 -154 -32 -48 -88 vhcurveto
          -326 100 vlineto
          37 124 25 108 29 15 rrcurveto
          29 54 54 9 55 hhcurveto
          72 102 -37 -104 -222 -220 -113 -176 -27 hvcurveto
          -21 -139 rlineto
          7 36 61 9 35 hhcurveto
          hintmask 11110100
          197 134 -61 -208 -235 -255 -130 -327 hvcurveto
          endchar
        </CharString>
        <CharString name="threequarters">
          602 196 101 282 104 766 104 hstemhm
          104 91 310 190 -158 208 621 193 hintmask 10000010
          -56 callgsubr
          hintmask 00000000
          -1232 291 -36 callsubr
          hintmask 01110100
          -52 callgsubr
          hintmask 01111000
          -106 -114 -88 -289 10 vhcurveto
          hintmask 01110100
          249 -715 -37 callsubr
        </CharString>
        <CharString name="threesuperior">
          -417 579 104 766 104 hstemhm
          139 91 310 190 -158 208 hintmask 00000000
          hintmask 11101000
          169 589 -36 callsubr
          hintmask 11110000
          -52 callgsubr
          hintmask 11101000
          -106 -114 -88 -289 10 vhcurveto
          endchar
        </CharString>
        <CharString name="tilde">
          -288 1256 -35 callgsubr
          -10 -20 hstemhm
          114 754 hintmask 00000000
          hintmask 01010000
          653 1256 -57 callgsubr
          hintmask 10110000
          -87 callsubr
          hintmask 01010000
          -80 callsubr
        </CharString>
        <CharString name="tilde.cap">
          -288 1676 -35 callgsubr
          hstemhm
          114 754 hintmask 00000000
          hintmask 01100000
          653 1676 -57 callgsubr
          hintmask 10100000
          -87 callsubr
          hintmask 01100000
          -80 callsubr
        </CharString>
        <CharString name="trademark">
          829 657 77 652 111 -80 81 hstemhm
          385 160 324 318 -237 264 449 363 -350 264 hintmask 00000000
          hintmask 11010010
          261 657 rmoveto
          414 77 hlineto
          -130 31 rlineto
          587 vlineto
          18 0 12 2 8 vhcurveto
          18 11 -2 -5 128 hvcurveto
          30 -130 rlineto
          85 hlineto
          14 258 -97 -13 rlineto
          -551 hlineto
          -91 13 -14 -258 rlineto
          87 hlineto
          51 130 167 7 rlineto
          -561 vlineto
          -69 -40 -9 -84 -16 vhcurveto
          608 -78 rmoveto
          318 76 hlineto
          hintmask 10110001
          -94 30 16 168 18 155 16 165 rlinecurve
          252 -603 83 35 3 6 1 10 rlinecurve
          hintmask 11010101
          224 552 16 -140 19 -147 18 -136 rlinecurve
          -67 -19 -7 -77 -20 vhcurveto
          -77 363 77 vlineto
          -29 9 -43 11 -33 9 rrcurveto
          hintmask 10110110
          -25 176 -29 220 -24 175 rrcurveto
          58 18 8 53 14 vhcurveto
          hintmask 11011010
          26 6 rlineto
          78 -266 vlineto
          -5 2 -18 -7 vvcurveto
          -226 -556 -236 550 rlineto
          36 -264 -77 vlineto
          61 -15 23 -8 6 -30 -73 -525 -1 -8 -2 -7 -17 -66 -3 -10 -75 -19 rrcurveto
          endchar
        </CharString>
        <CharString name="two">
          -77 -3 -21 24 132 1118 131 hstemhm
          161 154 468 236 hintmask 00000000
          hintmask 01111000
          135 hmoveto
          773 hlineto
          hintmask 10111000
          157 -24 17 409 -106 -2 rlineto
          hintmask 01111000
          -82 -184 -4 -8 -3 -6 -529 -53 rcurveline
          99 101 181 145 136 155 rrcurveto
          141 158 104 145 197 vvcurveto
          261 -203 86 -228 1 vhcurveto
          -151 1 -161 -36 -120 -52 10 -363 rcurveline
          120 hlineto
          37 124 20 148 30 12 103 44 105 -5 70 -15 rrcurveto
          51 -10 81 -90 -148 vvcurveto
          -332 -455 -366 -210 -195 vhcurveto
          2 -31 15 -67 0 vvcurveto
          endchar
        </CharString>
        <CharString name="twosuperior">
          -421 678 117 468 297 -114 114 hstemhm
          552 197 hintmask 00000000
          hintmask 10110000
          107 678 -43 callgsubr
          hintmask 11010000
          6 -241 rlineto
          99 hlineto
          hintmask 10110000
          -36 callgsubr
          endchar
        </CharString>
        <CharString name="u">
          -54 callgsubr
          -15 callsubr
          454 -50 callgsubr
          hintmask 10111000
          -80 callgsubr
          hintmask 01111000
          -101 callgsubr
          hintmask 10111000
          -99 callgsubr
          endchar
        </CharString>
        <CharString name="uacute">
          -54 callgsubr
          142 481 -15 callsubr
          94 495 -135 -103 callsubr
          394 369 -92 callsubr
        </CharString>
        <CharString name="ubreve">
          -54 callgsubr
          165 -7 callgsubr
          237 210 -133 677 -90 -50 callgsubr
          hintmask 10100101
          -80 callgsubr
          hintmask 01100101
          -101 callgsubr
          hintmask 10100101
          -99 callgsubr
          hintmask 00011010
          413 392 -89 callgsubr
        </CharString>
        <CharString name="ucircumflex">
          -54 callgsubr
          207 416 -15 callsubr
          -156 718 -108 -103 callsubr
          142 434 rmoveto
          -96 callsubr
        </CharString>
        <CharString name="udieresis">
          -54 callgsubr
          245 278 -15 callsubr
          -152 -16 callsubr
          -102 -50 callgsubr
          hintmask 10101001
          -80 callgsubr
          hintmask 01101001
          -101 callgsubr
          hintmask 10101001
          -99 callgsubr
          hintmask 00010110
          663 478 -98 callsubr
        </CharString>
        <CharString name="ugrave">
          -54 callgsubr
          142 481 -15 callsubr
          -183 495 142 -103 callsubr
          432 369 -74 callsubr
        </CharString>
        <CharString name="uhungarumlaut">
          -54 callgsubr
          518 -20 -15 callsubr
          -100 898 -344 -103 callsubr
          611 379 -64 callsubr
        </CharString>
        <CharString name="umacron">
          -54 callgsubr
          265 145 -15 callsubr
          -96 598 -48 -103 callsubr
          114 492 -39 callsubr
        </CharString>
        <CharString name="underscore">
          57 -340 163 hstem
          -10 1347 vstem
          -10 -177 rmoveto
          -163 1347 163 vlineto
          endchar
        </CharString>
        <CharString name="uni0001">
          endchar
        </CharString>
        <CharString name="uni0002">
          endchar
        </CharString>
        <CharString name="uni0003">
          endchar
        </CharString>
        <CharString name="uni0004">
          endchar
        </CharString>
        <CharString name="uni0005">
          endchar
        </CharString>
        <CharString name="uni0006">
          endchar
        </CharString>
        <CharString name="uni0007">
          endchar
        </CharString>
        <CharString name="uni0008">
          endchar
        </CharString>
        <CharString name="uni0015">
          endchar
        </CharString>
        <CharString name="uni0016">
          endchar
        </CharString>
        <CharString name="uni0017">
          endchar
        </CharString>
        <CharString name="uni0018">
          endchar
        </CharString>
        <CharString name="uni0019">
          endchar
        </CharString>
        <CharString name="uni00AD">
          437 endchar
        </CharString>
        <CharString name="uni0394">
          -45 callgsubr
        </CharString>
        <CharString name="uni03A9">
          -77 callsubr
        </CharString>
        <CharString name="uni03BC">
          -76 callgsubr
        </CharString>
        <CharString name="uni1E02">
          104 -30 1572 178 278 hstemhm
          110 1184 -752 305 hintmask 10100000
          -79 callgsubr
          hintmask 01010000
          191 1599 -93 callgsubr
        </CharString>
        <CharString name="uni1E03">
          21 callgsubr
          22 -20 137 -21 hstemhm
          187 212 202 305 15 214 hintmask 11101101
          185 -67 callgsubr
          hintmask 00010010
          342 1099 -85 callsubr
        </CharString>
        <CharString name="uni1E0A">
          -21 callgsubr
          190 278 -57 callsubr
          206 305 362 -71 callgsubr
          346 1543 -93 callgsubr
        </CharString>
        <CharString name="uni1E0B">
          -87 -18 callgsubr
          503 -20 120 -21 hstemhm
          90 214 -141 305 358 -50 callgsubr
          hintmask 10101101
          -5 callsubr
          hintmask 01101101
          -78 callgsubr
          hintmask 10101101
          -73 callgsubr
          hintmask 00010010
          -222 1125 -85 callsubr
        </CharString>
        <CharString name="uni1E1E">
          10 callgsubr
          191 278 -57 callsubr
          30 305 hintmask 00000000
          hintmask 10100010
          123 hmoveto
          696 hlineto
          hintmask 01100010
          -37 callgsubr
          hintmask 10001010
          20 392 rlineto
          hintmask 10100010
          -142 -20 -1023 -1 rlineto
          hintmask 10010010
          -78 vlineto
          165 -54 rlineto
          -1104 -35 callsubr
          -12 -76 callsubr
          hintmask 00000101
          538 1638 -93 callgsubr
        </CharString>
        <CharString name="uni1E1F">
          -461 -31 callgsubr
          289 -20 hstemhm
          243 305 -269 -50 callgsubr
          hintmask 11100010
          94 hmoveto
          -86 callgsubr
          hintmask 11010010
          36 280 rlineto
          hintmask 11100010
          -82 callsubr
          hintmask 00001100
          289 1551 -85 callsubr
        </CharString>
        <CharString name="uni1E40">
          24 callsubr
          190 278 hstemhm
          11 330 -330 2020 -1148 305 hintmask 00000000
          hintmask 10100100
          -53 callgsubr
          hintmask 10101000
          -26 callsubr
          hintmask 01100100
          -3 callgsubr
          hintmask 10100100
          -41 -156 9 -16 -140 -38 rrcurveto
          hintmask 00010010
          1012 1638 -93 callgsubr
        </CharString>
        <CharString name="uni1E41">
          24 callgsubr
          503 -20 -1 callsubr
          404 305 -250 210 460 -50 callgsubr
          hintmask 11001011
          -79 callsubr
          hintmask 10101011
          -34 callsubr
          hintmask 00010100
          918 1185 -85 callsubr
        </CharString>
        <CharString name="uni1E56">
          8 callgsubr
          166 278 -57 callsubr
          55 305 224 219 hintmask 00000000
          hintmask 11010101
          -48 callsubr
          hintmask 11100101
          -14 callsubr
          hintmask 11010101
          -5 callgsubr
          hintmask 11100101
          25 callsubr
          hintmask 00001010
          195 980 -93 callgsubr
        </CharString>
        <CharString name="uni1E57">
          6 callsubr
          28 callgsubr
          212 210 120 305 102 214 -26 callgsubr
          hintmask 1101001010000000
          -9 callsubr
          hintmask 1011001010000000
          348 vlineto
          hintmask 1101001010000000
          -44 callsubr
          hintmask 1100101010000000
          -23 callsubr
          hintmask 1101001010000000
          -9 callgsubr
          hintmask 1100101010000000
          -97 -96 32 38 -76 hvcurveto
          hintmask 0000010100000000
          260 1095 -85 callsubr
        </CharString>
        <CharString name="uni1E60">
          64 -24 -29 callgsubr
          170 278 13 callgsubr
          165 305 165 202 hintmask 11010100
          -105 callgsubr
          hintmask 00101000
          489 1221 -93 callgsubr
        </CharString>
        <CharString name="uni1E61">
          -24 callgsubr
          505 -20 5 callsubr
          36 305 46 181 hintmask 11010100
          -102 callgsubr
          hintmask 00101000
          340 942 -85 callsubr
        </CharString>
        <CharString name="uni1E6A">
          94 0 -31 callsubr
          191 278 hstemhm
          530 305 -256 -65 callsubr
          316 1638 -93 callgsubr
        </CharString>
        <CharString name="uni1E6B">
          -447 -27 178 734 135 628 -20 hstemhm
          226 210 -201 305 hintmask 11010000
          -84 callsubr
          hintmask 00101000
          149 485 -85 callsubr
        </CharString>
        <CharString name="uogonek">
          59 4 callgsubr
          303 176 -133 -21 60 72 918 -20 -15 callsubr
          369 174 -89 -50 callgsubr
          hintmask 11001101
          -80 callgsubr
          106 39 110 79 0 vvcurveto
          hintmask 10101101
          24 -137 -51 -64 -44 -84 -13 -77 rlinecurve
          hintmask 10011110
          -155 -29 95 -110 146 hhcurveto
          94 86 -60 callgsubr
          -24 -63 27 102 20 hvcurveto
          9 53 14 74 54 84 52 17 48 9 89 19 rrcurveto
          72 vlineto
          hintmask 10011101
          -84 11 -65 -11 141 vvcurveto
          268 vlineto
          157 0 210 6 142 vhcurveto
          -404 -25 rlineto
          -76 vlineto
          109 -11 79 -37 -110 vvcurveto
          hintmask 11001101
          -99 callgsubr
          endchar
        </CharString>
        <CharString name="uring">
          -54 callgsubr
          146 92 306 89 -15 callsubr
          -49 -6 callgsubr
          -2 210 -26 callgsubr
          hintmask 1010010010000000
          -80 callgsubr
          hintmask 0110010010000000
          -101 callgsubr
          hintmask 1010010010000000
          -99 callgsubr
          hintmask 0001101100000000
          414 373 -84 callgsubr
        </CharString>
        <CharString name="utilde">
          -54 callgsubr
          254 -35 callgsubr
          -10 -20 -15 callsubr
          -171 754 -129 210 -26 callgsubr
          hintmask 1010001010000000
          -80 callgsubr
          hintmask 0110001010000000
          -101 callgsubr
          hintmask 1010001010000000
          -99 callgsubr
          -26 callgsubr
          578 481 -57 callgsubr
          hintmask 0000100100000000
          -87 callsubr
          hintmask 0001010100000000
          -80 callsubr
        </CharString>
        <CharString name="v">
          -107 939 81 hstem
          3 1191 vstem
          489 131 rmoveto
          59 -158 99 -17 36 94 rlineto
          1 hlineto
          329 748 49 101 8 1 124 39 rlinecurve
          81 -419 -82 vlineto
          130 -40 -261 -635 -13 3 -14 15 -15 34 rlinecurve
          -229 570 23 21 39 13 64 20 rlinecurve
          6 81 rlineto
          -502 -82 hlineto
          125 -54 17 -13 rlineto
          endchar
        </CharString>
        <CharString name="w">
          -8 callgsubr
          hstem
          13 1721 vstem
          -103 callgsubr
          endchar
        </CharString>
        <CharString name="wacute">
          -8 callgsubr
          144 481 hstemhm
          13 1721 -981 495 hintmask 11010000
          -103 callgsubr
          hintmask 00101000
          380 1019 -92 callsubr
        </CharString>
        <CharString name="wcircumflex">
          -8 callgsubr
          209 416 hstemhm
          13 1721 -1231 718 hintmask 11010000
          -103 callgsubr
          hintmask 00101000
          128 1084 rmoveto
          -96 callsubr
        </CharString>
        <CharString name="wdieresis">
          -8 callgsubr
          247 278 hstemhm
          13 1721 -1227 -16 callsubr
          hintmask 11010000
          -103 callgsubr
          hintmask 00101100
          649 1128 -98 callsubr
        </CharString>
        <CharString name="wgrave">
          -8 callgsubr
          144 481 hstemhm
          13 1721 -1258 495 hintmask 11010000
          -103 callgsubr
          hintmask 00101000
          418 1019 -74 callsubr
        </CharString>
        <CharString name="x">
          -106 0 81 803 136 -81 81 hstemhm
          33 1123 hintmask 00000000
          hintmask 10110000
          35 hmoveto
          497 hlineto
          -1 81 -90 25 -48 7 -25 27 rlinecurve
          203 267 220 -276 -118 -49 rlineto
          -82 483 81 vlineto
          -129 45 -314 414 266 361 40 5 40 7 82 26 rlinecurve
          6 81 rlineto
          -430 hlineto
          1 -82 109 -35 -192 -273 -209 279 29 13 40 8 51 9 rlinecurve
          81 -513 vlineto
          3 -82 162 -52 294 -390 -210 -276 -92 -84 -152 -54 rlineto
          hintmask 11010000
          829 802 rmoveto
          12 2 8 -2 rlineto
          endchar
        </CharString>
        <CharString name="y">
          -33 callsubr
          hstem
          4 1216 vstem
          -99 callsubr
          endchar
        </CharString>
        <CharString name="yacute">
          -33 callsubr
          144 481 hstemhm
          4 1216 -719 495 hintmask 11101000
          -99 callsubr
          hintmask 00010100
          389 1576 -92 callsubr
        </CharString>
        <CharString name="ycircumflex">
          -33 callsubr
          209 416 hstemhm
          4 1216 -969 718 hintmask 11101000
          -99 callsubr
          hintmask 00010100
          137 1641 rmoveto
          -96 callsubr
        </CharString>
        <CharString name="ydieresis">
          -33 callsubr
          247 278 hstemhm
          4 1216 -965 -16 callsubr
          hintmask 11101000
          -99 callsubr
          hintmask 00010110
          658 1685 -98 callsubr
        </CharString>
        <CharString name="yen">
          262 1 82 281 102 213 102 667 82 hstem
          670 216 vstem
          250 364 rmoveto
          420 -71 hlineto
          -161 -52 -21 -170 -28 vhcurveto
          -82 661 82 vlineto
          -223 55 rlineto
          226 447 102 -447 213 447 102 -447 vlineto
          453 615 39 22 49 12 64 18 rlinecurve
          82 -488 -82 vlineto
          154 -40 -368 -541 -347 493 -3 54 52 21 114 13 rlinecurve
          82 -565 -82 vlineto
          131 -55 63 -67 422 -545 rlineto
          -406 -102 420 -213 -420 hlineto
          endchar
        </CharString>
        <CharString name="ygrave">
          -33 callsubr
          144 481 hstemhm
          4 1216 -996 495 hintmask 11101000
          -99 callsubr
          hintmask 00010100
          427 1576 -74 callsubr
        </CharString>
        <CharString name="z">
          -226 0 1020 hstem
          95 882 vstem
          -86 callsubr
          endchar
        </CharString>
        <CharString name="zacute">
          -226 0 1020 144 481 hstemhm
          95 882 -550 495 hintmask 10100000
          -86 callsubr
          hintmask 01010000
          422 1065 -92 callsubr
        </CharString>
        <CharString name="zcaron">
          -226 0 1020 560 -20 hstemhm
          95 882 -799 718 hintmask 10100000
          -86 callsubr
          hintmask 01010000
          386 1125 -85 callgsubr
        </CharString>
        <CharString name="zdotaccent">
          -226 0 1020 525 -20 hstemhm
          95 882 -594 305 hintmask 10100000
          -86 callsubr
          hintmask 01010000
          428 1168 -85 callsubr
        </CharString>
        <CharString name="zero">
          92 -20 147 1103 151 hstem
          133 197 693 206 vstem
          133 650 rmoveto
          -341 131 -329 404 399 162 364 359 342 -149 336 -388 -395 -164 -372 -359 vhcurveto
          595 -523 rmoveto
          -285 -113 304 312 139 46 166 77 129 hvcurveto
          47 54 137 6 15 hhcurveto
          275 89 -301 -312 -139 -51 -170 -77 -129 hvcurveto
          -38 -60 -77 -14 -30 hhcurveto
          endchar
        </CharString>
      <CharString index="0">
        103 254 rmoveto
        -190 159 -84 138 140 52 44 106 128 vhcurveto
        -101 37 -49 94 74 95 35 20 53 vhcurveto
        83 vlineto
        6 -153 -16 71 vvcurveto
        575 vlineto
        220 -92 68 -239 -59 -219 -78 -58 -132 vhcurveto
        -21 -206 rlineto
        160 hlineto
        148 45 35 73 127 hhcurveto
        180 -3 5 -67 -74 vvcurveto
        -153 vlineto
        -539 -127 -68 -74 -169 vvcurveto
        220 25 rmoveto
        186 242 3 145 54 vhcurveto
        -297 vlineto
        -53 -56 -73 -44 -71 hhcurveto
        -105 -82 44 107 hvcurveto
        return
      </CharString>
      <CharString index="1">
        100 732 rmoveto
        -384 238 -368 498 505 266 411 405 384 -239 370 -498 -505 -265 -413 -405 vhcurveto
        223 104 rmoveto
        156 51 177 107 146 vhcurveto
        53 84 106 36 115 hhcurveto
        417 181 -359 -353 -156 -52 -182 -107 -146 hvcurveto
        -49 -84 -106 -34 -115 hhcurveto
        -417 -180 358 353 hvcurveto
        return
      </CharString>
      <CharString index="2">
        159 100 rmoveto
        -67 127 169 -57 137 hhcurveto
        339 293 113 342 hvcurveto
        540 -837 -211 437 vvcurveto
        113 58 32 30 36 vhcurveto
        26 46 69 9 79 hhcurveto
        96 79 -20 -23 56 hvcurveto
        38 -18 20 -20 14 -61 40 -167 rcurveline
        107 hlineto
        29 396 rlineto
        22 -153 -71 28 -155 hhcurveto
        -283 -306 -117 -295 hvcurveto
        -563 842 189 -416 vvcurveto
        -51 -23 -58 -13 -23 vhcurveto
        -45 -44 -70 -59 -115 hhcurveto
        -132 -158 48 30 -60 hvcurveto
        -13 9 -20 9 -15 59 -42 230 rcurveline
        -114 2 rlineto
        return
      </CharString>
      <CharString index="3">
        20 callgsubr
        hintmask 1010001000000000
        115 hmoveto
        997 hlineto
        hintmask 0110001000000000
        1 callsubr
        19 448 rlineto
        -108 hlineto
        hintmask 1010001010000000
        -92 -287 -581 -24 rlineto
        585 vlineto
        442 -31 rlineto
        190 vlineto
        -442 -29 rlineto
        565 vlineto
        0 89 2 391 -17 vhcurveto
        72 -249 104 2 rlineto
        hintmask 1000101010000000
        412 vlineto
        hintmask 1010001000000000
        -142 -19 rlineto
        -895 hlineto
        hintmask 1001001000000000
        -80 vlineto
        165 -54 rlineto
        -1115 vlineto
        -153 -26 -11 -134 -37 vhcurveto
        hintmask 0000010100000000
        return
      </CharString>
      <CharString index="4">
        463 145 rmoveto
        49 -158 94 -17 29 75 19 47 16 43 rlinecurve
        211 503 73 -172 77 -183 53 -138 rlinecurve
        61 -158 94 -17 29 91 298 765 37 79 30 13 95 20 rlinecurve
        6 82 rlineto
        -452 hlineto
        3 -83 162 -48 -218 -593 -9 3 -8 10 -7 19 rlinecurve
        -208 555 29 21 42 15 62 19 rlinecurve
        6 82 rlineto
        -490 hlineto
        3 -83 123 -41 13 -32 14 -35 15 -35 rlinecurve
        -203 -493 rlineto
        -12 -11 10 26 -9 hvcurveto
        -199 534 22 30 40 13 77 24 rlinecurve
        6 82 rlineto
        -512 hlineto
        3 -83 131 -54 93 -227 130 -311 93 -200 rlinecurve
        return
      </CharString>
      <CharString index="5">
        140 68 rmoveto
        -46 93 159 -39 101 hhcurveto
        228 185 96 250 hvcurveto
        347 -568 -147 263 vvcurveto
        63 41 77 65 74 81 -17 -24 56 vhcurveto
        28 -12 11 -20 15 -39 30 -75 rcurveline
        98 hlineto
        26 269 rlineto
        15 -109 -100 11 -110 hhcurveto
        -251 -138 -131 -207 hvcurveto
        -339 570 145 -278 vvcurveto
        -60 -39 -56 -62 -102 -82 7 40 -87 vhcurveto
        -10 6 -13 7 -14 40 -38 109 rcurveline
        -104 2 rlineto
        return
      </CharString>
      <CharString index="6">
        106 39 110 79 0 vvcurveto
        25 -142 40 -21 111 51 39 6 140 29 rlinecurve
        72 vlineto
        -84 11 -65 -11 141 vvcurveto
        268 vlineto
        157 0 210 6 142 vhcurveto
        -404 -25 rlineto
        -76 vlineto
        109 -11 79 -37 -110 vvcurveto
        return
      </CharString>
      <CharString index="7">
        110 1 rmoveto
        569 79 hlineto
        -188 52 rlineto
        559 vlineto
        91 -12 62 -5 48 -1 65 -134 48 -123 73 -115 90 -138 72 -130 145 -27 rrcurveto
        -9 44 47 -3 47 hhcurveto
        -1 47 62 0 47 hhcurveto
        1 51 -121 38 -144 138 -129 159 rlinecurve
        -91 111 -67 135 -32 75 rrcurveto
        199 43 153 222 205 vvcurveto
        256 -179 124 -248 vhcurveto
        -258 -39 -20 -138 hhcurveto
        -276 -81 hlineto
        165 -53 rlineto
        -1116 vlineto
        -153 -31 -12 -134 -35 vhcurveto
        381 716 rmoveto
        430 vlineto
        180 11 43 176 205 149 -120 -203 -151 -54 -83 -62 -58 vhcurveto
        -107 -58 -177 -6 -141 26 rrcurveto
        return
      </CharString>
      <CharString index="8">
        -558 vlineto
        -37 -60 -119 -42 -106 hhcurveto
        -129 -40 9 113 hvcurveto
        265 vlineto
        317 2 82 12 110 vhcurveto
        -367 -25 rlineto
        -76 vlineto
        50 -10 91 -2 2 -134 rrcurveto
        return
      </CharString>
      <CharString index="9">
        658 -34 rmoveto
        171 54 300 932 339 -986 179 54 444 1384 51 19 62 8 63 17 rlinecurve
        82 -525 -82 vlineto
        173 -55 rlineto
        -25 vlineto
        -342 -1135 -354 1080 1 91 72 7 137 37 rlinecurve
        82 -612 -82 vlineto
        153 -55 56 -142 33 -95 -296 -937 -363 1097 18 87 34 14 113 31 rlinecurve
        82 -575 -82 vlineto
        164 -55 rlineto
        return
      </CharString>
      <CharString index="10">
        100 737 rmoveto
        -384 247 -374 511 35 147 -7 237 363 vhcurveto
        -39 82 rlineto
        -53 -131 -226 -85 -39 hhcurveto
        -466 -187 297 391 156 49 184 107 126 hvcurveto
        57 84 116 34 115 hhcurveto
        152 145 -21 -79 103 hvcurveto
        47 -218 rlineto
        113 hlineto
        48 376 rlineto
        0 -251 93 -281 -498 -264 -407 -405 vhcurveto
        return
      </CharString>
      <CharString index="11">
        90 461 rmoveto
        -318 223 -163 289 22 176 64 90 148 vhcurveto
        -33 84 rlineto
        -28 -84 -158 -38 -40 hhcurveto
        -250 -92 197 213 66 45 193 80 53 hvcurveto
        13 46 52 8 44 hhcurveto
        69 63 -9 -15 65 hvcurveto
        15 -4 7 -38 35 -144 rrcurveto
        94 hlineto
        3 31 275 26 4 hvcurveto
        37 -93 -108 19 -93 hhcurveto
        -294 -266 -209 -372 hvcurveto
        return
      </CharString>
      <CharString index="12">
        81 hmoveto
        541 82 hlineto
        -193 55 -2 3 -14 1060 931 -1200 3 13 1 -13 rlineto
        116 1236 hlineto
        160 33 12 140 38 -7 callsubr
        172 -56 9 -524 7 -499 -920 1163 rlineto
        -319 -82 hlineto
        113 -31 43 -14 13 -88 rrcurveto
        -962 vlineto
        -7 -61 -18 -160 -27 -12 -140 -38 rlinecurve
        return
      </CharString>
      <CharString index="13">
        99 hmoveto
        545 -24 callsubr
        650 vlineto
        37 59 111 50 112 hhcurveto
        105 38 -12 -30 31 hvcurveto
        11 -12 8 -28 -27 vvcurveto
        -471 vlineto
        -182 6 18 -165 -48 vhcurveto
        -82 541 82 vlineto
        -39 8 -132 47 0 vvcurveto
        -1 515 rlineto
        200 -1 25 190 -305 hhcurveto
        -75 -81 -30 -7 -26 hvcurveto
        -103 -58 -116 -66 0 vvcurveto
        return
      </CharString>
      <CharString index="14">
        rmoveto
        15 16 2 4 17 hvcurveto
        80 20 37 61 59 vvcurveto
        -94 callsubr
        vhcurveto
        endchar
      </CharString>
      <CharString index="15">
        407 1 rmoveto
        701 82 hlineto
        -243 55 rlineto
        459 vlineto
        468 811 35 15 43 11 52 14 rlinecurve
        82 -468 -82 vlineto
        165 -47 -378 -691 -365 629 -16 70 48 24 128 15 rlinecurve
        82 -565 -82 vlineto
        131 -55 21 -23 485 -773 rlineto
        -304 -35 callsubr
        -72 -21 -170 -28 vhcurveto
        return
      </CharString>
      <CharString index="16">
        rmoveto
        385 215 -48 51 -68 85 -56 10 rlinecurve
        -102 -107 -96 -80 -105 -99 rrcurveto
        endchar
      </CharString>
      <CharString index="17">
        218 -63 198 -26 callgsubr
        hintmask 1111000101000000
        148 156 -66 callsubr
        hintmask 1111001000100000
        -87 callgsubr
        hintmask 1110100101000000
        -72 callgsubr
        hintmask 1111000101000000
        -95 callsubr
        hintmask 1111001000100000
        -75 callsubr
        hintmask 0000010010000000
        return
      </CharString>
      <CharString index="18">
        rmoveto
        205 171 144 238 -41 hvcurveto
        -109 hlineto
        -135 -1 -107 -79 -118 hhcurveto
        -118 -102 79 135 -1 hvcurveto
        -109 hlineto
        -238 -40 165 -144 205 hhcurveto
        endchar
      </CharString>
      <CharString index="19">
        543 82 hlineto
        -172 55 rlineto
        763 vlineto
        245 -5 292 19 187 vhcurveto
        -37 21 -148 -74 -24 -9 -182 -35 rlinecurve
        -73 vlineto
        87 -21 80 -11 callsubr
        -21 -76 callsubr
        return
      </CharString>
      <CharString index="20">
        -64 -57 -35 -58 -4 -29 -2 -12 0 -18 3 -22 rrcurveto
        -115 18 97 -102 281 hhcurveto
        465 185 255 175 -12 hvcurveto
        -15 219 -302 9 -233 12 -86 6 -132 5 -9 70 -5 36 49 49 34 36 rrcurveto
        -6 42 45 -6 47 hhcurveto
        return
      </CharString>
      <CharString index="21">
        615 82 hlineto
        -213 55 rlineto
        -5 81 -3 76 78 157 1 118 238 vvcurveto
        281 135 -281 hlineto
        82 0 316 17 47 vhcurveto
        31 29 212 22 19 -57 30 -117 rcurveline
        87 hlineto
        return
      </CharString>
      <CharString index="22">
        rmoveto
        112 hlineto
        102 135 96 89 105 132 -88 65 rcurveline
        -271 -211 -271 211 -88 -65 105 -132 96 -89 102 -135 rlinecurve
        endchar
      </CharString>
      <CharString index="23">
        rmoveto
        132 120 104 138 143 -117 102 -135 -134 -119 -102 -143 -140 119 -102 134 hvcurveto
        -3 92 rmoveto
        -73 -68 61 89 71 50 85 94 96 47 -85 -71 -91 -70 -59 -76 hvcurveto
        endchar
      </CharString>
      <CharString index="24">
        100 hmoveto
        1026 hlineto
        131 -18 29 438 rlineto
        -98 hlineto
        -112 -257 -133 -4 -309 -23 -276 -18 rlinecurve
        916 1326 -20 86 rlineto
        -955 hlineto
        -132 19 rlineto
        -412 vlineto
        94 -2 72 240 279 12 169 16 211 18 rlinecurve
        -914 -1334 rlineto
        return
      </CharString>
      <CharString index="25">
        1 callsubr
        42 484 rlineto
        -113 hlineto
        -93 -323 -581 -31 rlineto
        1124 -27 callsubr
        53 15 140 35 vhcurveto
        84 -581 -84 vlineto
        172 -56 rlineto
        -1098 vlineto
        -1 callgsubr
        return
      </CharString>
      <CharString index="26">
        rmoveto
        143 hlineto
        579 1742 rlineto
        -149 hlineto
        -724 -997 rmoveto
        265 117 228 205 195 -109 211 -257 -262 -119 -232 -206 -194 97 -207 268 hvcurveto
        40 98 rmoveto
        -181 -53 177 182 80 10 96 52 74 hvcurveto
        28 32 85 4 9 hhcurveto
        174 37 -175 -182 -81 -13 -97 -51 -75 hvcurveto
        -23 -36 -47 -8 -18 hhcurveto
        598 -296 rmoveto
        -194 97 -207 268 265 117 228 205 195 -109 211 -257 -262 -119 -232 -206 vhcurveto
        171 56 rmoveto
        80 10 96 52 74 vhcurveto
        28 32 85 4 9 hhcurveto
        174 47 -175 -182 -81 -23 -97 -51 -75 hvcurveto
        -23 -36 -47 -8 -18 hhcurveto
        -181 -53 177 182 hvcurveto
        endchar
      </CharString>
      <CharString index="27">
        237 370 rmoveto
        -200 -16 -200 294 75 75 32 9 24 vhcurveto
        return
      </CharString>
      <CharString index="28">
        110 hmoveto
        235 hlineto
        128 208 -30 87 hhcurveto
        224 302 114 331 230 -157 113 -180 51 hvcurveto
        87 60 131 126 223 vvcurveto
        268 -266 56 -239 vhcurveto
        -87 -158 -12 -112 hhcurveto
        -203 -79 hlineto
        165 -54 rlineto
        -1118 vlineto
        -153 -31 -11 -134 -37 vhcurveto
        381 759 rmoveto
        583 vlineto
        5 38 53 6 54 hhcurveto
        182 141 -61 -240 -148 -70 -96 -54 -52 hvcurveto
        9 -58 -58 3 -52 hhcurveto
        -80 -60 -5 -4 -36 hvcurveto
        -716 vmoveto
        597 vlineto
        4 37 59 3 116 hhcurveto
        252 119 -169 -177 -136 -36 -55 -45 -56 hvcurveto
        -27 -50 -98 -14 -87 hhcurveto
        -112 -7 2 28 -148 hvcurveto
        return
      </CharString>
      <CharString index="29">
        -74 9 -73 0 vhcurveto
        327 82 hlineto
        -46 13 -58 29 -17 18 rrcurveto
        -6 10 -5 19 11 vvcurveto
        1108 vlineto
        3 143 1 47 13 144 -38 21 rcurveline
        -117 -53 -71 -26 -175 -39 rrcurveto
        -73 vlineto
        40 -8 26 -5 27 -14 rrcurveto
        90 -46 -9 -69 -93 vvcurveto
        -202 vlineto
        10 -58 -76 15 -76 hhcurveto
        -147 -168 -71 -138 -102 hvcurveto
        return
      </CharString>
      <CharString index="30">
        -77 63 -68 85 86 62 69 76 75 -60 72 -88 -85 -63 -70 -77 vhcurveto
        return
      </CharString>
      <CharString index="31">
        -74 -490 1538 hstem
        384 440 210 127 vstem
        175 -292 rmoveto
        -139 1 96 -59 105 hhcurveto
        133 17 86 60 -8 hvcurveto
        0 -123 -19 -46 128 vhcurveto
        -15 40 -1 181 94 vvcurveto
        -96 70 111 -14 69 hhcurveto
        102 102 59 74 69 hvcurveto
        77 -211 223 86 62 168 -58 41 rcurveline
        -48 -47 -79 -31 118 vvcurveto
        215 vlineto
        132 0 348 5 119 vhcurveto
        -189 28 -26 -49 -192 vvcurveto
        -644 vlineto
        -33 -91 -50 -11 -94 hhcurveto
        -123 -63 47 50 -19 hvcurveto
        225 vlineto
        267 1 219 10 93 vhcurveto
        -208 28 -14 -49 1 -192 rrcurveto
        -502 0 -427 1 -191 vhcurveto
        endchar
      </CharString>
      <CharString index="32">
        hmoveto
        549 82 hlineto
        -176 55 rlineto
        653 vlineto
        37 60 116 47 126 hhcurveto
        91 -1 102 -19 -107 vvcurveto
        -453 vlineto
        -163 -29 -11 -143 -38 vhcurveto
        -82 544 80 vlineto
        -41 8 -120 49 0 vvcurveto
        -2 509 rlineto
        211 -2 12 185 -294 hhcurveto
        -85 -89 -29 -6 -24 hvcurveto
        -103 -58 -119 -68 0 vvcurveto
        return
      </CharString>
      <CharString index="33">
        7 72 61 1 20 hhcurveto
        416 236 -223 -443 -323 -137 -163 -94 -80 hvcurveto
        -44 -85 -159 -27 -106 hhcurveto
        -139 -110 37 20 -43 hvcurveto
        return
      </CharString>
      <CharString index="34">
        -70 -92 -39 -125 -152 vvcurveto
        435 -322 rmoveto
        -119 -102 164 232 280 126 100 132 -3 hvcurveto
        105 -2 98 -28 61 -35 rrcurveto
        -601 vlineto
        -49 -79 -148 -58 -74 hhcurveto
        return
      </CharString>
      <CharString index="35">
        237 193 134 230 48 -9 43 -17 37 hvcurveto
        55 -2 57 1 58 16 rrcurveto
        12 20 8 35 42 vvcurveto
        21 -9 32 -24 23 vhcurveto
        return
      </CharString>
</ttFont>
